<?xml version="1.0" encoding="UTF-8" standalone="no"?>
<!DOCTYPE svg PUBLIC "-//W3C//DTD SVG 1.1//EN" "http://www.w3.org/Graphics/SVG/1.1/DTD/svg11.dtd">
<svg xmlns="http://www.w3.org/2000/svg" version="1.1" viewBox="0.00 0.00 512.00 512.00">
<path fill="#000000" d="
  M 330.97 31.53
  C 330.42 64.34 304.23 90.72 271.49 90.92
  Q 256.57 91.02 242.00 91.01
  C 224.96 91.00 211.74 103.40 211.10 120.41
  A 0.61 0.61 0.0 0 1 210.49 121.00
  L 181.29 121.00
  Q 181.02 121.00 181.03 120.73
  C 181.58 91.40 201.70 67.24 230.72 61.96
  Q 237.51 60.72 250.45 60.96
  Q 261.33 61.16 270.88 60.92
  C 287.69 60.51 300.23 48.27 300.92 31.52
  A 0.54 0.54 0.0 0 1 301.46 31.00
  L 330.45 31.00
  Q 330.98 31.00 330.97 31.53
  Z"
/>
<path fill="#000000" d="
  M 360.99 91.55
  C 360.33 124.42 334.26 150.74 301.34 150.93
  Q 286.74 151.02 271.92 151.01
  C 254.93 151.00 241.76 163.44 241.10 180.41
  A 0.62 0.61 1.0 0 1 240.48 181.00
  L 211.29 181.00
  Q 210.95 181.00 210.96 180.66
  Q 211.77 156.03 227.90 139.40
  Q 241.62 125.26 260.73 121.93
  Q 267.66 120.73 280.31 120.95
  Q 290.57 121.13 300.18 120.97
  C 317.38 120.68 330.20 108.66 330.92 91.52
  A 0.54 0.54 0.0 0 1 331.46 91.00
  L 360.45 91.00
  Q 361.00 91.00 360.99 91.55
  Z"
/>
<path fill="#000000" d="
  M 512.00 391.14
  L 512.00 420.95
  L 475.60 421.00
  Q 475.27 421.00 475.12 421.30
  L 445.42 480.73
  Q 445.28 481.00 444.97 481.00
  L 67.13 481.00
  A 0.68 0.67 76.2 0 1 66.53 480.63
  L 36.83 421.21
  A 0.39 0.38 75.7 0 0 36.49 421.00
  L 0.00 420.94
  L 0.00 391.37
  L 30.94 391.01
  A 0.83 0.83 0.0 0 0 31.76 390.25
  C 34.14 361.31 42.94 332.64 57.74 307.65
  Q 87.86 256.80 140.61 230.76
  Q 160.38 221.00 183.21 215.85
  Q 185.66 215.29 187.15 213.86
  C 191.89 209.30 197.68 205.60 203.62 202.98
  C 221.74 194.98 242.17 196.61 258.99 206.57
  C 259.95 207.14 260.47 207.86 261.75 207.50
  Q 290.26 199.48 315.73 212.45
  Q 318.31 213.77 321.38 214.34
  Q 352.62 220.17 379.25 234.86
  Q 432.05 264.00 459.80 317.75
  C 471.36 340.14 478.23 365.31 480.24 390.43
  A 0.62 0.62 0.0 0 0 480.86 391.00
  L 512.00 391.14
  Z
  M 215.97 230.79
  C 238.74 274.70 246.10 322.43 237.16 370.81
  C 235.94 377.40 234.12 384.07 232.40 390.58
  A 0.34 0.33 -82.6 0 0 232.72 391.00
  L 262.80 391.00
  A 0.72 0.71 -82.6 0 0 263.49 390.46
  Q 270.43 362.88 270.93 334.73
  C 271.04 328.45 270.62 322.25 270.35 315.99
  Q 270.05 308.87 269.11 302.25
  C 268.19 295.80 267.54 289.55 266.09 283.31
  C 264.48 276.40 263.20 269.39 260.88 262.54
  C 258.37 255.10 256.52 246.80 252.32 240.71
  C 244.51 229.37 229.06 224.67 216.19 230.19
  A 0.44 0.44 0.0 0 0 215.97 230.79
  Z
  M 283.38 234.91
  Q 311.79 311.32 294.31 390.68
  A 0.26 0.26 0.0 0 0 294.56 391.00
  L 324.29 391.00
  Q 324.90 391.00 325.02 390.41
  Q 336.25 334.00 326.24 277.08
  Q 324.23 265.61 321.39 259.23
  C 314.79 244.37 299.93 235.09 283.62 234.57
  Q 283.25 234.56 283.38 234.91
  Z
  M 76.65 335.67
  C 68.43 353.21 63.72 371.50 61.73 390.72
  A 0.26 0.25 3.0 0 0 61.99 391.00
  L 91.45 391.00
  Q 91.91 391.00 91.96 390.55
  Q 94.45 368.67 103.57 349.22
  Q 122.38 309.14 161.53 287.44
  Q 179.15 277.67 200.92 273.39
  Q 201.52 273.28 201.32 272.70
  Q 196.37 258.20 189.67 245.36
  Q 189.55 245.13 189.30 245.19
  C 139.59 256.50 98.24 289.60 76.65 335.67
  Z
  M 355.17 256.29
  Q 353.85 255.67 352.56 255.16
  Q 352.00 254.94 352.15 255.52
  Q 356.58 272.96 358.61 291.29
  Q 358.74 292.41 359.68 293.03
  Q 384.40 309.34 399.90 333.87
  Q 416.28 359.79 419.95 390.34
  A 0.76 0.75 -3.4 0 0 420.70 391.00
  L 449.95 391.00
  A 0.30 0.30 0.0 0 0 450.25 390.67
  C 444.25 331.98 408.48 281.60 355.17 256.29
  Z
  M 208.05 302.52
  C 163.02 310.80 129.36 344.99 122.18 390.34
  Q 122.07 391.00 122.74 391.00
  L 152.00 391.00
  Q 152.66 391.00 152.80 390.36
  Q 157.70 368.11 174.01 352.30
  Q 189.31 337.46 210.37 332.78
  A 0.75 0.74 83.7 0 0 210.95 332.05
  Q 210.91 317.95 208.77 303.03
  Q 208.68 302.41 208.05 302.52
  Z
  M 389.79 390.67
  C 386.65 369.10 376.62 348.86 361.55 333.17
  Q 360.95 332.55 360.95 333.41
  Q 360.71 362.46 355.50 390.66
  A 0.29 0.29 0.0 0 0 355.78 391.00
  L 389.50 391.00
  A 0.29 0.29 0.0 0 0 389.79 390.67
  Z
  M 185.56 386.62
  Q 184.56 388.60 183.91 390.46
  Q 183.72 391.00 184.29 391.00
  L 200.20 391.00
  A 0.70 0.69 9.3 0 0 200.86 390.53
  Q 205.00 378.46 207.62 365.68
  Q 207.75 365.04 207.16 365.32
  Q 192.83 372.20 185.56 386.62
  Z
  M 426.52 451.00
  A 0.32 0.32 0.0 0 0 426.81 450.82
  L 441.49 421.46
  A 0.32 0.32 0.0 0 0 441.20 421.00
  L 70.80 421.00
  A 0.32 0.32 0.0 0 0 70.51 421.46
  L 85.19 450.82
  A 0.32 0.32 0.0 0 0 85.48 451.00
  L 426.52 451.00
  Z"
/>
</svg>
