<?xml version="1.0" encoding="UTF-8" standalone="no"?>
<!DOCTYPE svg PUBLIC "-//W3C//DTD SVG 1.1//EN" "http://www.w3.org/Graphics/SVG/1.1/DTD/svg11.dtd">
<svg xmlns="http://www.w3.org/2000/svg" version="1.1" viewBox="0.00 0.00 512.00 512.00">
<path fill="#000000" d="
  M 248.81 0.00
  L 262.08 0.00
  Q 326.15 1.78 381.83 32.90
  Q 382.26 33.14 382.62 32.80
  Q 391.98 23.80 401.06 14.56
  Q 414.08 1.30 432.77 0.00
  L 437.33 0.00
  Q 455.68 1.29 468.96 14.54
  Q 480.82 26.36 492.64 38.22
  Q 502.54 48.16 505.59 53.37
  Q 511.18 62.93 512.00 74.58
  L 512.00 79.56
  Q 510.65 97.50 498.16 110.16
  Q 488.66 119.78 479.14 129.27
  A 0.65 0.64 -37.9 0 0 479.04 130.04
  Q 509.86 185.15 512.00 248.63
  L 512.00 263.55
  C 509.61 333.98 479.09 399.97 427.29 446.30
  Q 357.93 508.35 263.17 512.00
  L 250.46 512.00
  Q 185.99 510.32 130.02 478.98
  Q 129.65 478.78 129.35 479.08
  Q 120.09 488.33 110.72 497.72
  Q 97.74 510.73 79.22 512.00
  L 74.68 512.00
  Q 56.31 510.70 43.43 497.82
  Q 28.75 483.13 14.08 468.41
  Q 1.06 455.35 0.00 436.72
  L 0.00 432.98
  Q 1.28 413.66 15.18 400.42
  Q 19.61 396.20 32.88 382.61
  Q 33.22 382.25 32.98 381.82
  Q 2.11 326.40 0.00 262.70
  L 0.00 247.92
  Q 1.75 201.59 19.10 158.89
  Q 21.10 153.96 22.99 152.77
  C 27.64 149.85 34.03 152.43 34.55 158.06
  Q 34.79 160.71 33.53 163.57
  Q 30.05 171.47 27.75 178.46
  Q 0.65 261.11 30.92 342.07
  C 50.97 395.69 91.70 441.36 142.34 468.53
  C 198.82 498.83 265.62 505.05 326.88 486.37
  C 387.28 467.95 438.50 425.49 468.41 369.94
  C 514.41 284.50 504.15 178.62 442.64 103.60
  Q 411.79 65.97 369.28 43.23
  C 314.75 14.05 250.02 7.32 190.48 24.06
  C 131.80 40.55 81.30 79.25 49.76 131.35
  C 45.64 138.16 35.16 135.29 35.70 127.44
  Q 35.87 124.89 37.72 121.99
  Q 77.54 59.21 141.07 27.06
  Q 190.83 1.88 248.81 0.00
  Z
  M 476.57 64.17
  C 484.00 71.55 484.20 82.29 476.69 89.71
  Q 469.57 96.75 462.62 103.75
  Q 462.24 104.14 462.55 104.59
  L 470.51 116.08
  A 0.42 0.41 49.9 0 0 471.15 116.14
  Q 477.87 109.22 485.30 101.99
  Q 490.80 96.63 493.08 92.35
  C 499.55 80.21 497.85 64.39 487.92 54.61
  Q 474.20 41.07 459.54 26.25
  Q 454.30 20.96 449.62 18.56
  C 438.65 12.97 423.54 13.98 414.28 22.74
  Q 407.18 29.46 396.02 40.86
  Q 395.61 41.28 396.09 41.62
  L 407.36 49.42
  Q 407.86 49.77 408.30 49.34
  Q 414.26 43.54 420.72 36.87
  Q 424.87 32.59 428.41 31.12
  C 435.28 28.29 442.51 30.07 447.70 35.31
  Q 461.04 48.74 476.57 64.17
  Z
  M 452.55 92.05
  A 0.34 0.33 47.8 0 0 453.05 92.08
  L 466.58 78.57
  A 2.22 2.22 0.0 0 0 466.58 75.43
  L 436.64 45.50
  A 2.28 2.28 0.0 0 0 433.40 45.50
  L 420.18 58.72
  Q 419.68 59.21 420.22 59.66
  Q 438.05 74.63 452.55 92.05
  Z
  M 71.06 481.14
  Q 67.81 480.05 65.44 477.70
  Q 50.27 462.70 34.73 447.00
  C 28.13 440.34 28.19 429.53 34.82 422.87
  Q 41.98 415.68 49.53 408.15
  A 0.51 0.51 0.0 0 0 49.59 407.51
  L 41.52 395.89
  A 0.38 0.38 0.0 0 0 40.94 395.84
  Q 34.37 402.58 26.78 409.97
  Q 20.74 415.86 18.33 420.86
  C 12.47 433.00 14.57 447.78 24.29 457.46
  Q 38.49 471.59 52.53 485.78
  Q 56.90 490.20 61.00 492.65
  C 70.35 498.24 82.25 498.31 91.87 493.30
  Q 97.04 490.61 103.97 483.31
  Q 109.90 477.07 116.13 471.22
  A 0.47 0.47 0.0 0 0 116.08 470.49
  L 104.65 462.53
  A 0.71 0.71 0.0 0 0 103.74 462.61
  Q 96.92 469.43 89.97 476.42
  Q 81.72 484.70 71.06 481.14
  Z
  M 75.93 466.88
  Q 77.48 467.65 78.61 466.52
  Q 85.33 459.82 92.03 453.09
  Q 92.36 452.76 92.00 452.47
  Q 74.51 437.89 59.57 420.08
  A 0.49 0.49 0.0 0 0 58.85 420.05
  L 45.44 433.45
  A 2.19 2.19 0.0 0 0 45.44 436.55
  L 75.37 466.48
  A 2.14 1.98 78.3 0 0 75.93 466.88
  Z"
/>
<path fill="#000000" d="
  M 237.86 475.75
  C 155.89 469.00 84.03 416.69 52.44 341.00
  C 30.12 287.52 29.84 226.33 51.77 172.63
  C 73.70 118.89 116.94 75.12 170.40 52.67
  C 224.33 30.03 285.89 29.76 339.94 51.94
  Q 375.35 66.48 404.47 92.92
  C 444.96 129.69 469.38 179.37 475.47 233.55
  C 476.04 238.63 471.88 243.07 466.67 242.06
  C 459.75 240.73 460.46 233.77 459.71 228.44
  C 451.26 167.99 417.28 114.99 365.78 82.17
  C 339.19 65.23 307.84 54.22 276.02 51.44
  Q 202.39 45.00 141.78 85.08
  Q 133.81 90.35 125.55 97.19
  C 89.02 127.41 64.13 168.33 54.58 214.86
  Q 52.37 225.66 51.53 235.06
  Q 44.44 314.90 90.60 377.95
  Q 112.79 408.27 145.40 429.16
  Q 187.60 456.20 239.13 460.88
  C 248.98 461.78 247.71 476.56 237.86 475.75
  Z"
/>
<path fill="#000000" d="
  M 285.98 108.51
  A 18.08 18.08 0.0 0 1 267.90 126.59
  L 244.12 126.59
  A 18.08 18.08 0.0 0 1 226.04 108.51
  L 226.04 84.83
  A 18.08 18.08 0.0 0 1 244.12 66.75
  L 267.90 66.75
  A 18.08 18.08 0.0 0 1 285.98 84.83
  L 285.98 108.51
  Z
  M 270.99 84.90
  A 3.16 3.16 0.0 0 0 267.83 81.74
  L 244.19 81.74
  A 3.16 3.16 0.0 0 0 241.03 84.90
  L 241.03 108.42
  A 3.16 3.16 0.0 0 0 244.19 111.58
  L 267.83 111.58
  A 3.16 3.16 0.0 0 0 270.99 108.42
  L 270.99 84.90
  Z"
/>
<path fill="#000000" d="
  M 198.99 118.01
  A 22.78 22.78 0.0 0 1 176.21 140.79
  A 22.78 22.78 0.0 0 1 153.43 118.01
  A 22.78 22.78 0.0 0 1 176.21 95.23
  A 22.78 22.78 0.0 0 1 198.99 118.01
  Z
  M 183.98 118.02
  A 7.77 7.77 0.0 0 0 176.21 110.25
  A 7.77 7.77 0.0 0 0 168.44 118.02
  A 7.77 7.77 0.0 0 0 176.21 125.79
  A 7.77 7.77 0.0 0 0 183.98 118.02
  Z"
/>
<path fill="#000000" d="
  M 358.47 118.01
  A 22.78 22.78 0.0 0 1 335.69 140.79
  A 22.78 22.78 0.0 0 1 312.91 118.01
  A 22.78 22.78 0.0 0 1 335.69 95.23
  A 22.78 22.78 0.0 0 1 358.47 118.01
  Z
  M 343.46 118.02
  A 7.78 7.78 0.0 0 0 335.68 110.24
  A 7.78 7.78 0.0 0 0 327.90 118.02
  A 7.78 7.78 0.0 0 0 335.68 125.80
  A 7.78 7.78 0.0 0 0 343.46 118.02
  Z"
/>
<path fill="#000000" d="
  M 122.76 144.47
  L 143.26 156.28
  A 18.13 18.13 0.0 0 1 149.91 181.06
  L 138.07 201.56
  A 18.13 18.13 0.0 0 1 113.30 208.19
  L 92.82 196.35
  A 18.13 18.13 0.0 0 1 86.19 171.59
  L 98.00 151.12
  A 18.13 18.13 0.0 0 1 122.76 144.47
  Z
  M 136.8804 173.6584
  A 3.20 3.20 0.0 0 0 135.7168 169.2851
  L 115.3684 157.4896
  A 3.20 3.20 0.0 0 0 110.9951 158.6532
  L 99.1996 179.0016
  A 3.20 3.20 0.0 0 0 100.3632 183.3749
  L 120.7116 195.1704
  A 3.20 3.20 0.0 0 0 125.0849 194.0068
  L 136.8804 173.6584
  Z"
/>
<path fill="#000000" d="
  M 368.78 156.33
  L 389.24 144.49
  A 18.14 18.14 0.0 0 1 414.03 151.12
  L 425.86 171.60
  A 18.14 18.14 0.0 0 1 419.21 196.40
  L 398.73 208.19
  A 18.14 18.14 0.0 0 1 373.96 201.54
  L 362.16 181.09
  A 18.14 18.14 0.0 0 1 368.78 156.33
  Z
  M 401.0449 158.6632
  A 3.20 3.20 0.0 0 0 396.6716 157.4996
  L 376.3232 169.2951
  A 3.20 3.20 0.0 0 0 375.1596 173.6684
  L 386.9551 194.0168
  A 3.20 3.20 0.0 0 0 391.3284 195.1804
  L 411.6768 183.3849
  A 3.20 3.20 0.0 0 0 412.8404 179.0116
  L 401.0449 158.6632
  Z"
/>
<circle fill="#000000" cx="239.72" cy="158.71" r="7.47"/>
<circle fill="#000000" cx="272.30" cy="158.71" r="7.48"/>
<circle fill="#000000" cx="256.01" cy="183.69" r="7.48"/>
<path fill="#000000" d="
  M 298.21 256.37
  Q 312.71 267.45 315.16 284.17
  C 316.22 291.33 315.69 300.12 315.71 307.73
  C 315.72 314.17 310.74 316.03 304.94 315.76
  Q 299.79 315.52 294.68 315.71
  C 279.05 316.33 265.98 310.92 256.36 298.10
  Q 256.02 297.64 255.68 298.10
  C 246.21 310.76 233.20 316.25 217.71 315.74
  Q 212.25 315.56 206.78 315.76
  C 199.41 316.03 195.98 313.08 196.24 305.59
  C 196.47 298.95 195.85 291.87 196.64 285.56
  Q 198.88 267.58 214.00 256.28
  Q 214.38 256.00 214.00 255.73
  Q 196.52 242.63 196.32 221.05
  Q 196.25 213.21 196.31 204.20
  C 196.36 198.50 200.61 196.01 205.89 196.23
  C 213.15 196.53 221.05 195.76 228.05 196.86
  Q 244.86 199.49 255.69 213.89
  Q 256.02 214.33 256.34 213.90
  Q 267.03 199.80 283.01 197.03
  C 290.72 195.70 299.67 196.40 307.84 196.33
  C 313.17 196.28 315.88 200.29 315.80 205.29
  Q 315.66 213.30 315.69 220.79
  Q 315.76 240.26 300.90 253.51
  Q 299.60 254.67 298.23 255.58
  Q 297.68 255.96 298.21 256.37
  Z
  M 226.97 246.00
  C 233.09 249.05 240.79 248.77 247.90 248.45
  Q 248.48 248.43 248.50 247.84
  Q 248.70 239.31 248.33 235.56
  C 246.99 222.11 236.06 211.93 222.65 211.38
  Q 218.01 211.19 211.98 211.33
  Q 211.37 211.34 211.34 211.96
  Q 210.99 221.26 211.68 225.55
  Q 213.94 239.50 226.97 246.00
  Z
  M 265.92 227.18
  C 262.88 233.53 263.36 241.19 263.52 247.89
  Q 263.54 248.43 264.07 248.45
  Q 273.99 248.89 278.06 248.11
  Q 293.54 245.14 299.11 230.57
  C 301.27 224.91 300.82 217.85 300.70 211.96
  Q 300.69 211.36 300.10 211.35
  Q 289.82 211.08 286.45 211.66
  Q 272.18 214.10 265.92 227.18
  Z
  M 235.85 263.58
  C 223.91 264.71 212.76 274.31 211.60 287.19
  Q 211.05 293.32 211.37 300.12
  Q 211.40 300.66 211.94 300.67
  C 220.94 300.84 229.26 301.32 236.87 295.86
  Q 247.53 288.21 248.37 275.62
  Q 248.57 272.58 248.59 264.30
  Q 248.59 263.59 247.88 263.57
  Q 238.41 263.34 235.85 263.58
  Z
  M 278.39 297.79
  C 284.97 301.35 292.89 300.77 300.30 300.67
  A 0.42 0.42 0.0 0 0 300.72 300.25
  Q 300.72 295.40 300.72 290.99
  C 300.73 276.53 289.92 264.33 275.49 263.63
  Q 270.11 263.37 264.07 263.57
  Q 263.45 263.59 263.44 264.20
  Q 263.32 271.10 263.72 275.95
  Q 264.91 290.48 278.39 297.79
  Z"
/>
<circle fill="#000000" cx="158.73" cy="239.70" r="7.48"/>
<circle fill="#000000" cx="353.30" cy="239.71" r="7.48"/>
<path fill="#000000" d="
  M 119.47 255.99
  A 22.78 22.78 0.0 0 1 96.69 278.77
  A 22.78 22.78 0.0 0 1 73.91 255.99
  A 22.78 22.78 0.0 0 1 96.69 233.21
  A 22.78 22.78 0.0 0 1 119.47 255.99
  Z
  M 104.47 256.00
  A 7.78 7.78 0.0 0 0 96.69 248.22
  A 7.78 7.78 0.0 0 0 88.91 256.00
  A 7.78 7.78 0.0 0 0 96.69 263.78
  A 7.78 7.78 0.0 0 0 104.47 256.00
  Z"
/>
<path fill="#000000" d="
  M 438.12 255.99
  A 22.78 22.78 0.0 0 1 415.34 278.77
  A 22.78 22.78 0.0 0 1 392.56 255.99
  A 22.78 22.78 0.0 0 1 415.34 233.21
  A 22.78 22.78 0.0 0 1 438.12 255.99
  Z
  M 423.12 256.00
  A 7.78 7.78 0.0 0 0 415.34 248.22
  A 7.78 7.78 0.0 0 0 407.56 256.00
  A 7.78 7.78 0.0 0 0 415.34 263.78
  A 7.78 7.78 0.0 0 0 423.12 256.00
  Z"
/>
<circle fill="#000000" cx="183.71" cy="256.00" r="7.47"/>
<circle fill="#000000" cx="328.32" cy="256.00" r="7.47"/>
<path fill="#000000" d="
  M 455.29 350.51
  C 421.02 421.50 353.45 468.87 274.59 475.75
  C 264.18 476.66 263.00 461.80 272.91 460.90
  Q 337.70 454.97 387.58 413.91
  C 428.04 380.61 453.13 332.96 460.00 281.41
  C 460.50 277.63 460.69 273.80 461.04 269.93
  C 462.02 258.79 477.05 260.22 476.08 271.50
  Q 472.31 315.25 455.29 350.51
  Z"
/>
<circle fill="#000000" cx="158.73" cy="272.29" r="7.48"/>
<circle fill="#000000" cx="353.30" cy="272.29" r="7.47"/>
<path fill="#000000" d="
  M 92.83 315.65
  L 113.29 303.82
  A 18.14 18.14 0.0 0 1 138.08 310.45
  L 149.91 330.93
  A 18.14 18.14 0.0 0 1 143.26 355.72
  L 122.77 367.52
  A 18.14 18.14 0.0 0 1 98.01 360.87
  L 86.20 340.42
  A 18.14 18.14 0.0 0 1 92.83 315.65
  Z
  M 125.0799 317.9846
  A 3.19 3.19 0.0 0 0 120.7202 316.8246
  L 100.3546 328.6301
  A 3.19 3.19 0.0 0 0 99.1946 332.9898
  L 111.0001 353.3554
  A 3.19 3.19 0.0 0 0 115.3598 354.5154
  L 135.7254 342.7099
  A 3.19 3.19 0.0 0 0 136.8854 338.3502
  L 125.0799 317.9846
  Z"
/>
<path fill="#000000" d="
  M 389.23 367.50
  L 368.78 355.67
  A 18.14 18.14 0.0 0 1 362.16 330.90
  L 373.95 310.46
  A 18.14 18.14 0.0 0 1 398.72 303.80
  L 419.21 315.59
  A 18.14 18.14 0.0 0 1 425.87 340.39
  L 414.02 360.88
  A 18.14 18.14 0.0 0 1 389.23 367.50
  Z
  M 412.8357 332.9455
  A 3.20 3.20 0.0 0 0 411.6645 328.5743
  L 391.2955 316.8143
  A 3.20 3.20 0.0 0 0 386.9243 317.9855
  L 375.1643 338.3545
  A 3.20 3.20 0.0 0 0 376.3355 342.7257
  L 396.7045 354.4857
  A 3.20 3.20 0.0 0 0 401.0757 353.3145
  L 412.8357 332.9455
  Z"
/>
<circle fill="#000000" cx="256.01" cy="328.30" r="7.47"/>
<circle fill="#000000" cx="239.72" cy="353.28" r="7.47"/>
<circle fill="#000000" cx="272.30" cy="353.28" r="7.48"/>
<path fill="#000000" d="
  M 198.99 393.98
  A 22.78 22.78 0.0 0 1 176.21 416.76
  A 22.78 22.78 0.0 0 1 153.43 393.98
  A 22.78 22.78 0.0 0 1 176.21 371.20
  A 22.78 22.78 0.0 0 1 198.99 393.98
  Z
  M 183.99 393.98
  A 7.78 7.78 0.0 0 0 176.21 386.20
  A 7.78 7.78 0.0 0 0 168.43 393.98
  A 7.78 7.78 0.0 0 0 176.21 401.76
  A 7.78 7.78 0.0 0 0 183.99 393.98
  Z"
/>
<path fill="#000000" d="
  M 358.47 393.98
  A 22.78 22.78 0.0 0 1 335.69 416.76
  A 22.78 22.78 0.0 0 1 312.91 393.98
  A 22.78 22.78 0.0 0 1 335.69 371.20
  A 22.78 22.78 0.0 0 1 358.47 393.98
  Z
  M 343.47 393.98
  A 7.78 7.78 0.0 0 0 335.69 386.20
  A 7.78 7.78 0.0 0 0 327.91 393.98
  A 7.78 7.78 0.0 0 0 335.69 401.76
  A 7.78 7.78 0.0 0 0 343.47 393.98
  Z"
/>
<path fill="#000000" d="
  M 267.88 445.26
  L 244.14 445.26
  A 18.10 18.10 0.0 0 1 226.04 427.16
  L 226.04 403.52
  A 18.10 18.10 0.0 0 1 244.14 385.42
  L 267.89 385.42
  A 18.10 18.10 0.0 0 1 285.99 403.52
  L 285.98 427.16
  A 18.10 18.10 0.0 0 1 267.88 445.26
  Z
  M 270.98 403.58
  A 3.16 3.16 0.0 0 0 267.82 400.42
  L 244.20 400.42
  A 3.16 3.16 0.0 0 0 241.04 403.58
  L 241.04 427.10
  A 3.16 3.16 0.0 0 0 244.20 430.26
  L 267.82 430.26
  A 3.16 3.16 0.0 0 0 270.98 427.10
  L 270.98 403.58
  Z"
/>
</svg>
