<?xml version="1.0" encoding="UTF-8" standalone="no"?>
<!DOCTYPE svg PUBLIC "-//W3C//DTD SVG 1.1//EN" "http://www.w3.org/Graphics/SVG/1.1/DTD/svg11.dtd">
<svg xmlns="http://www.w3.org/2000/svg" version="1.1" viewBox="0.00 0.00 512.00 512.00">
<path fill="#000000" d="
  M 296.07 0.00
  L 441.03 0.00
  Q 447.29 1.14 449.44 5.93
  Q 451.53 10.58 449.23 14.97
  C 447.02 19.18 443.04 20.51 438.57 20.51
  Q 370.36 20.45 303.82 20.49
  A 0.91 0.89 -76.5 0 0 303.02 20.99
  L 272.78 81.46
  A 0.32 0.32 0.0 0 0 273.07 81.92
  Q 335.94 81.96 396.94 81.90
  Q 401.61 81.90 404.00 83.15
  C 408.20 85.36 409.67 89.51 409.62 93.95
  Q 409.41 112.06 409.65 130.88
  Q 409.71 134.98 408.26 137.88
  C 406.42 141.53 402.51 143.37 398.49 143.37
  Q 237.23 143.38 72.82 143.38
  C 68.23 143.38 63.88 141.26 62.28 136.74
  Q 61.40 134.24 61.41 130.62
  Q 61.46 113.47 61.38 95.37
  Q 61.36 89.77 62.79 87.29
  C 65.20 83.13 68.89 81.94 73.37 81.93
  Q 162.17 81.89 249.10 81.94
  A 0.92 0.92 0.0 0 0 249.93 81.42
  Q 268.46 44.33 287.10 7.07
  Q 290.15 0.97 296.07 0.00
  Z"
/>
<path fill="#000000" d="
  M 280.53 304.34
  C 255.17 291.87 227.17 276.15 199.46 264.67
  Q 180.94 257.00 161.01 252.10
  Q 129.19 244.27 95.26 247.85
  Q 94.60 247.92 94.53 247.26
  L 85.30 164.28
  Q 85.25 163.82 85.71 163.82
  L 385.41 163.82
  A 0.34 0.33 -86.9 0 1 385.74 164.20
  L 367.76 325.97
  Q 367.69 326.56 367.10 326.56
  Q 358.73 326.56 352.22 326.10
  Q 338.39 325.12 322.22 320.60
  Q 302.16 314.98 280.53 304.34
  Z"
/>
<path fill="#000000" d="
  M 338.62 512.00
  L 132.39 512.00
  Q 123.79 510.54 122.87 502.22
  Q 109.87 385.24 96.88 268.31
  A 0.22 0.22 0.0 0 1 97.08 268.06
  Q 126.50 264.66 154.64 271.37
  Q 172.97 275.74 190.41 282.98
  C 227.03 298.19 261.41 320.13 298.01 334.26
  Q 318.85 342.31 340.62 345.62
  C 348.64 346.84 356.87 347.12 364.76 347.38
  Q 365.35 347.40 365.28 347.99
  Q 356.73 425.24 348.13 502.47
  Q 347.23 510.56 338.62 512.00
  Z"
/>
</svg>
