<?xml version="1.0" encoding="UTF-8" standalone="no"?>
<!DOCTYPE svg PUBLIC "-//W3C//DTD SVG 1.1//EN" "http://www.w3.org/Graphics/SVG/1.1/DTD/svg11.dtd">
<svg xmlns="http://www.w3.org/2000/svg" version="1.1" viewBox="0.00 0.00 512.00 512.00">
<path fill="#000000" d="
  M 222.26 150.17
  Q 219.82 155.77 219.26 162.06
  Q 219.18 163.00 218.58 162.27
  Q 205.93 146.57 189.69 136.29
  C 180.28 130.34 173.00 124.25 167.22 114.99
  C 164.35 110.39 162.53 105.33 160.01 100.55
  Q 159.72 100.00 159.94 99.42
  Q 163.67 89.42 172.69 83.71
  C 175.91 81.67 177.04 77.79 175.81 74.17
  C 166.18 45.79 198.72 21.82 222.78 40.02
  Q 231.27 46.44 233.90 56.69
  C 234.89 60.55 238.45 62.19 242.26 62.13
  Q 262.41 61.85 271.73 81.08
  A 0.74 0.73 58.5 0 1 271.52 81.98
  Q 251.93 97.23 252.22 121.97
  Q 252.23 122.54 251.68 122.72
  Q 242.45 125.76 234.87 132.42
  Q 234.33 132.90 234.11 132.20
  L 228.30 113.67
  A 0.98 0.98 0.0 0 1 228.45 112.79
  C 232.48 107.47 236.97 101.72 242.53 98.17
  Q 246.38 95.71 247.41 93.03
  C 249.49 87.58 245.39 81.78 239.47 82.20
  C 234.14 82.57 225.84 91.05 222.80 94.60
  A 0.28 0.28 0.0 0 1 222.32 94.50
  Q 217.54 79.32 213.03 64.75
  Q 212.23 62.18 211.07 60.67
  C 208.30 57.11 203.05 56.74 199.66 59.68
  C 196.75 62.21 196.44 65.64 197.56 69.15
  Q 202.48 84.64 207.04 99.35
  A 0.30 0.30 0.0 0 1 206.68 99.73
  Q 199.72 97.97 192.87 97.78
  C 181.44 97.46 180.89 113.48 192.60 113.81
  Q 201.72 114.06 212.42 117.98
  Q 212.97 118.19 213.15 118.74
  Q 217.53 132.83 222.37 148.17
  Q 222.69 149.19 222.26 150.17
  Z"
/>
<path fill="#000000" d="
  M 432.14 227.13
  Q 427.75 238.58 416.53 244.20
  Q 416.04 244.44 415.58 244.16
  Q 412.15 242.06 407.80 240.98
  Q 407.25 240.85 407.09 240.30
  C 399.11 212.66 364.03 206.89 348.51 231.80
  Q 348.24 232.25 347.73 232.37
  Q 337.76 234.72 328.95 239.18
  Q 328.50 239.41 328.15 239.03
  Q 327.09 237.88 327.61 236.40
  Q 334.25 217.32 341.08 197.57
  Q 341.22 197.19 341.54 196.94
  Q 348.86 191.46 355.88 187.44
  Q 372.76 177.77 391.00 177.84
  Q 395.26 177.85 397.57 176.30
  C 402.34 173.08 402.32 166.06 397.40 162.97
  Q 395.10 161.52 390.98 161.65
  Q 368.93 162.29 350.43 172.17
  Q 349.81 172.50 350.04 171.84
  Q 360.27 142.35 371.03 111.36
  C 374.53 101.29 359.51 95.65 355.65 106.86
  Q 344.98 137.81 335.00 166.31
  Q 334.68 167.24 334.29 166.33
  Q 326.44 148.00 309.57 133.58
  C 305.09 129.75 299.62 128.48 295.91 133.76
  C 293.09 137.76 294.62 142.37 298.34 145.24
  C 308.11 152.77 315.98 163.35 320.39 174.34
  Q 323.28 181.54 326.08 191.19
  Q 326.23 191.70 326.05 192.20
  L 317.62 216.49
  A 0.35 0.34 -51.3 0 1 317.00 216.56
  C 300.51 189.58 270.67 167.38 237.56 179.40
  Q 236.88 179.65 236.66 178.96
  Q 230.93 160.55 242.73 147.08
  Q 249.50 139.35 259.90 137.12
  C 264.86 136.06 268.77 134.80 269.03 128.77
  C 269.15 125.99 268.13 123.18 268.22 120.31
  Q 268.83 102.42 283.27 93.56
  Q 299.76 83.46 316.70 93.18
  C 319.41 94.73 321.81 97.79 324.68 98.82
  C 329.37 100.50 334.20 97.95 335.38 93.04
  C 341.61 67.30 376.27 60.28 391.99 82.31
  Q 400.83 94.69 396.94 109.82
  Q 396.47 111.65 395.57 113.31
  C 393.37 117.42 394.72 122.26 398.82 124.46
  Q 400.89 125.58 404.33 125.38
  Q 418.36 124.59 428.66 134.79
  C 441.16 147.17 441.20 168.84 427.42 180.67
  C 423.46 184.06 421.85 189.11 425.78 193.42
  C 432.60 200.89 435.57 209.94 434.27 220.18
  C 433.98 222.50 433.00 224.90 432.14 227.13
  Z"
/>
<path fill="#000000" d="
  M 105.68 159.02
  C 97.93 155.54 91.14 164.27 95.91 171.09
  C 105.55 184.86 117.87 196.82 134.56 199.97
  Q 135.25 200.10 135.54 200.74
  L 153.20 239.48
  Q 153.47 240.09 152.80 240.07
  Q 144.78 239.82 137.35 243.79
  A 0.65 0.65 0.0 0 1 136.54 243.63
  C 123.14 227.49 99.49 228.54 86.69 244.57
  A 0.26 0.25 55.0 0 1 86.25 244.49
  C 80.75 226.99 79.33 209.78 82.12 192.34
  C 84.51 177.36 83.08 161.09 76.17 147.49
  C 68.50 132.39 66.86 116.30 73.57 101.10
  C 76.47 94.52 81.96 88.36 88.52 84.78
  C 103.78 76.47 121.38 81.08 133.95 92.44
  C 141.31 99.10 145.64 106.83 149.54 115.75
  Q 155.80 130.07 169.48 141.54
  C 174.88 146.08 180.90 149.32 186.46 153.47
  Q 203.72 166.33 215.39 185.51
  Q 215.69 186.01 215.27 186.41
  Q 207.59 193.59 203.86 202.99
  Q 202.81 205.65 201.13 207.86
  Q 185.50 228.58 179.19 254.60
  A 0.24 0.24 0.0 0 1 178.76 254.67
  Q 177.89 253.36 176.90 252.15
  Q 176.01 251.06 175.41 249.75
  Q 162.99 222.25 150.09 194.12
  A 0.98 0.95 -42.0 0 1 150.15 193.20
  C 158.98 178.89 157.50 162.56 153.82 145.03
  C 151.54 134.20 135.52 137.26 138.35 149.52
  Q 140.91 160.62 140.54 171.62
  Q 140.49 173.01 139.91 171.74
  Q 125.63 140.33 111.45 109.32
  C 107.07 99.74 92.54 106.33 96.96 116.06
  Q 111.59 148.28 124.97 177.39
  Q 126.15 179.97 123.98 178.14
  Q 114.66 170.32 108.11 160.82
  Q 107.40 159.79 105.68 159.02
  Z"
/>
<path fill="#000000" d="
  M 270.74 242.89
  C 258.61 237.79 244.04 239.59 233.17 247.23
  Q 220.90 255.87 217.03 270.91
  Q 216.88 271.53 216.24 271.51
  L 193.04 270.78
  Q 192.49 270.76 192.56 270.21
  Q 196.34 241.15 212.99 218.32
  C 228.06 197.63 251.04 184.07 276.07 197.38
  Q 282.73 200.93 288.67 206.56
  C 305.50 222.53 316.62 246.61 319.39 270.12
  Q 319.47 270.76 318.82 270.78
  L 295.71 271.51
  A 0.73 0.72 81.4 0 1 294.99 270.97
  Q 289.69 250.85 270.74 242.89
  Z"
/>
<path fill="#000000" d="
  M 355.05 255.33
  C 358.33 254.03 360.01 250.93 360.04 247.48
  C 360.15 235.43 374.36 227.76 384.43 234.44
  Q 391.77 239.31 391.98 247.89
  C 392.10 252.53 395.60 255.99 400.27 256.02
  C 405.35 256.05 409.95 258.69 412.97 262.75
  Q 413.43 263.38 412.67 263.47
  Q 375.70 268.00 336.68 269.92
  Q 336.16 269.94 336.27 269.44
  Q 338.28 260.18 346.68 256.96
  C 349.45 255.90 352.38 256.39 355.05 255.33
  Z"
/>
<path fill="#000000" d="
  M 48.97 254.28
  C 43.84 252.92 38.03 251.17 33.69 248.34
  A 0.33 0.33 0.0 0 1 33.71 247.77
  Q 38.54 245.15 43.67 243.50
  Q 54.93 239.89 67.49 237.55
  A 0.36 0.36 0.0 0 1 67.91 237.82
  Q 70.44 248.90 74.62 259.27
  Q 74.83 259.78 74.28 259.70
  Q 61.67 257.64 48.97 254.28
  Z"
/>
<path fill="#000000" d="
  M 474.34 250.47
  C 461.38 255.74 446.05 258.48 432.33 260.62
  Q 431.68 260.73 431.54 260.08
  L 430.51 255.21
  Q 430.37 254.57 430.90 254.19
  Q 439.69 247.74 444.82 238.19
  Q 445.08 237.70 445.63 237.80
  Q 457.64 240.00 469.17 243.81
  Q 473.77 245.34 478.18 247.73
  Q 478.74 248.04 478.22 248.39
  Q 476.34 249.66 474.34 250.47
  Z"
/>
<path fill="#000000" d="
  M 124.68 255.51
  C 122.80 258.44 121.46 261.88 120.77 265.29
  Q 120.64 265.94 119.98 265.87
  L 96.65 263.16
  A 0.57 0.56 -82.8 0 1 96.15 262.51
  Q 97.53 252.82 106.17 249.17
  C 112.81 246.37 120.33 248.76 124.63 254.40
  Q 125.04 254.93 124.68 255.51
  Z"
/>
<path fill="#000000" d="
  M 166.43 265.27
  Q 167.41 267.16 167.57 269.24
  A 0.32 0.32 0.0 0 1 167.23 269.58
  L 137.11 267.46
  A 0.28 0.27 -78.7 0 1 136.87 267.09
  C 141.74 252.86 159.78 252.48 166.43 265.27
  Z"
/>
<path fill="#000000" d="
  M 233.73 271.42
  C 242.15 250.88 269.63 250.99 278.31 271.41
  A 0.38 0.37 -11.4 0 1 277.96 271.93
  L 234.07 271.93
  Q 233.52 271.93 233.73 271.42
  Z"
/>
<path fill="#000000" d="
  M 32.46 264.55
  Q 40.45 267.95 48.43 270.15
  Q 72.85 276.88 109.48 280.77
  Q 134.42 283.42 159.45 284.98
  Q 272.93 292.03 387.05 282.42
  C 404.86 280.92 422.68 278.47 440.58 275.37
  Q 461.27 271.79 479.45 264.70
  Q 479.95 264.51 479.97 265.05
  Q 480.14 272.31 480.04 280.00
  Q 479.27 340.45 441.86 386.36
  C 410.20 425.22 362.47 447.92 312.05 447.95
  Q 253.35 448.00 209.28 448.08
  Q 197.15 448.10 189.31 447.55
  Q 130.09 443.41 86.81 403.82
  Q 40.80 361.75 32.93 297.98
  C 31.68 287.89 31.96 275.66 32.01 264.84
  Q 32.01 264.36 32.46 264.55
  Z"
/>
<rect fill="#000000" x="192.00" y="464.00" width="128.00" height="16.00" rx="0.48"/>
</svg>
