<?xml version="1.0" encoding="UTF-8" standalone="no"?>
<!DOCTYPE svg PUBLIC "-//W3C//DTD SVG 1.1//EN" "http://www.w3.org/Graphics/SVG/1.1/DTD/svg11.dtd">
<svg xmlns="http://www.w3.org/2000/svg" version="1.1" viewBox="0.00 0.00 512.00 512.00">
<path fill="#000000" d="
  M 50.41 91.48
  Q 39.93 96.59 28.10 102.90
  A 0.40 0.40 0.0 0 1 27.56 102.74
  L 20.45 89.28
  A 0.36 0.36 0.0 0 1 20.60 88.79
  Q 154.03 17.04 305.97 15.96
  C 334.56 15.76 347.08 51.33 324.04 68.65
  Q 323.62 68.97 323.10 68.90
  L 301.28 65.91
  Q 300.52 65.81 301.14 65.35
  Q 306.00 61.80 311.29 58.21
  Q 316.08 54.96 317.93 52.08
  C 323.64 43.20 316.86 31.87 306.38 31.95
  Q 170.59 32.92 50.41 91.48
  Z"
/>
<path fill="#000000" d="
  M 215.87 188.26
  C 198.95 195.56 178.27 191.89 165.52 178.10
  Q 160.02 172.15 160.02 163.67
  Q 160.05 132.47 166.35 99.05
  Q 166.48 98.36 167.16 98.16
  Q 183.91 93.22 201.96 88.55
  Q 245.50 77.26 289.55 80.86
  Q 305.60 82.18 321.51 84.94
  Q 322.04 85.03 321.59 85.33
  L 294.03 103.68
  A 0.35 0.35 0.0 0 1 293.54 103.58
  C 288.35 95.80 278.49 93.50 270.72 98.95
  C 263.78 103.81 262.03 112.99 266.31 120.24
  C 272.56 130.83 287.37 130.17 293.66 120.11
  Q 293.96 119.63 294.52 119.73
  C 295.21 119.86 295.90 120.04 296.62 119.96
  Q 310.84 118.40 324.95 116.82
  A 0.17 0.17 0.0 0 1 325.05 117.14
  Q 273.93 145.22 229.78 179.29
  Q 221.04 186.03 215.87 188.26
  Z"
/>
<path fill="#000000" d="
  M 148.54 104.98
  Q 149.13 104.73 149.02 105.36
  Q 144.10 134.35 144.02 163.83
  Q 143.99 177.92 153.69 188.95
  Q 154.13 189.45 153.55 189.78
  Q 143.18 195.82 134.63 204.20
  A 0.41 0.41 0.0 0 1 134.03 204.16
  L 88.60 146.36
  A 0.66 0.65 46.5 0 1 88.62 145.52
  Q 103.67 128.39 123.34 117.33
  Q 135.46 110.51 148.54 104.98
  Z"
/>
<path fill="#000000" d="
  M 353.47 384.00
  L 390.98 384.00
  Q 391.98 384.00 391.20 384.63
  Q 362.09 408.42 324.27 414.43
  Q 323.77 414.51 323.40 414.85
  Q 299.20 437.16 271.32 453.88
  Q 270.98 454.08 270.93 453.69
  Q 265.43 414.81 238.11 386.78
  Q 237.67 386.33 237.23 386.77
  L 226.72 397.28
  A 0.50 0.50 0.0 0 0 226.71 397.97
  Q 252.68 424.85 255.65 462.01
  Q 255.69 462.60 255.17 462.87
  Q 217.57 482.47 176.59 491.48
  Q 175.61 491.69 176.32 490.99
  Q 186.66 480.73 197.08 470.19
  C 204.20 462.99 197.08 453.04 187.74 457.08
  Q 166.11 466.44 146.64 474.70
  A 0.23 0.22 83.7 0 1 146.33 474.45
  Q 162.02 394.94 213.64 333.09
  Q 214.23 332.39 213.80 331.59
  C 202.81 311.29 207.87 287.89 226.36 274.22
  Q 233.03 269.30 239.54 264.32
  Q 240.00 263.97 240.00 264.54
  L 240.00 304.70
  A 0.32 0.31 -21.8 0 0 240.53 304.92
  Q 269.62 277.87 305.11 258.88
  Q 315.77 253.17 327.47 247.75
  A 1.30 1.26 -1.6 0 0 328.11 247.09
  Q 343.16 212.40 375.27 192.43
  Q 376.01 191.97 375.80 192.81
  L 367.07 227.81
  Q 366.86 228.66 367.64 228.27
  Q 397.12 213.88 426.03 199.94
  C 431.92 197.09 433.66 192.51 430.30 186.56
  C 424.12 175.64 422.63 161.86 425.40 149.91
  Q 425.60 149.01 426.01 149.83
  Q 437.40 172.68 448.83 195.53
  C 450.20 198.26 452.67 199.61 455.68 200.04
  Q 473.82 202.60 491.52 205.14
  Q 492.54 205.29 491.65 205.80
  Q 471.81 217.21 448.31 215.94
  C 444.45 215.74 441.82 218.41 440.30 221.65
  Q 426.43 251.25 412.71 280.40
  A 0.25 0.25 0.0 0 0 413.00 280.75
  L 447.28 272.20
  Q 448.03 272.01 447.62 272.67
  Q 428.13 303.94 394.90 318.99
  Q 394.36 319.23 394.09 319.77
  Q 377.44 353.94 353.16 383.33
  Q 352.60 384.00 353.47 384.00
  Z
  M 207.97 424.00
  A 15.97 15.97 0.0 0 0 192.00 408.03
  A 15.97 15.97 0.0 0 0 176.03 424.00
  A 15.97 15.97 0.0 0 0 192.00 439.97
  A 15.97 15.97 0.0 0 0 207.97 424.00
  Z"
/>
<path fill="#000000" d="
  M 104.85 261.10
  L 56.78 238.91
  Q 56.29 238.69 56.25 238.15
  Q 55.82 232.13 56.12 226.20
  Q 58.00 189.96 77.97 159.46
  A 0.35 0.34 -46.8 0 1 78.53 159.44
  L 123.19 216.31
  A 0.63 0.62 43.8 0 1 123.21 217.08
  Q 108.89 236.79 105.17 260.93
  A 0.23 0.22 16.4 0 1 104.85 261.10
  Z"
/>
<path fill="#000000" d="
  M 187.02 231.12
  A 0.61 0.59 64.4 0 0 187.56 231.32
  L 230.28 224.19
  A 0.43 0.42 81.0 0 1 230.76 224.54
  L 233.24 239.47
  A 0.45 0.45 0.0 0 1 232.87 239.99
  Q 207.38 244.24 186.07 247.79
  C 181.67 248.52 179.14 246.85 176.31 243.39
  Q 162.27 226.25 150.33 212.12
  A 0.47 0.45 50.6 0 1 150.38 211.46
  Q 156.26 206.65 162.77 202.84
  Q 163.23 202.57 163.57 202.98
  L 187.02 231.12
  Z"
/>
<path fill="#000000" d="
  M 166.19 249.33
  L 215.87 261.76
  Q 216.18 261.84 216.10 262.15
  L 212.40 276.97
  A 0.37 0.37 0.0 0 1 211.94 277.24
  Q 184.54 270.35 158.00 263.72
  Q 154.50 262.85 152.73 259.33
  Q 144.16 242.24 136.49 226.88
  Q 136.22 226.33 136.59 225.85
  Q 141.53 219.44 147.29 214.27
  Q 147.82 213.80 148.13 214.43
  L 165.17 248.51
  Q 165.49 249.15 166.19 249.33
  Z"
/>
<path fill="#000000" d="
  M 157.30 280.00
  L 199.50 280.00
  Q 200.00 280.00 200.00 280.50
  L 200.00 295.46
  Q 200.00 296.00 199.46 296.00
  Q 176.65 296.02 152.26 295.99
  C 149.35 295.98 146.66 294.54 145.11 292.06
  Q 133.47 273.46 122.75 256.28
  Q 122.46 255.81 122.60 255.27
  Q 125.12 245.70 129.36 237.58
  A 0.32 0.32 0.0 0 1 129.91 237.56
  L 155.99 279.28
  Q 156.45 280.00 157.30 280.00
  Z"
/>
<path fill="#000000" d="
  M 58.74 257.43
  L 103.59 278.13
  Q 104.12 278.38 104.14 278.96
  Q 105.02 300.77 114.54 319.64
  A 0.38 0.38 0.0 0 1 114.26 320.18
  L 88.69 324.14
  A 0.71 0.70 -22.8 0 1 88.03 323.88
  Q 64.94 294.53 58.35 257.74
  A 0.28 0.28 0.0 0 1 58.74 257.43
  Z"
/>
<path fill="#000000" d="
  M 156.19 311.40
  L 200.30 305.93
  Q 200.72 305.88 200.77 306.30
  L 202.64 321.33
  Q 202.69 321.75 202.26 321.81
  Q 176.38 325.04 153.18 327.91
  C 149.67 328.35 146.99 326.74 144.96 324.00
  Q 133.40 308.40 123.05 294.75
  Q 121.85 293.16 121.48 291.11
  Q 119.07 277.71 120.58 265.71
  Q 120.69 264.87 121.20 265.55
  L 155.30 311.02
  A 0.96 0.95 -21.5 0 0 156.19 311.40
  Z"
/>
<path fill="#000000" d="
  M 144.04 367.38
  Q 120.17 356.75 101.45 338.69
  A 0.21 0.20 62.9 0 1 101.56 338.34
  L 123.34 335.02
  Q 123.89 334.93 124.21 335.39
  L 147.22 368.23
  Q 147.66 368.86 146.94 368.59
  Q 145.44 368.01 144.04 367.38
  Z"
/>
</svg>
