<?xml version="1.0" encoding="UTF-8" standalone="no"?>
<!DOCTYPE svg PUBLIC "-//W3C//DTD SVG 1.1//EN" "http://www.w3.org/Graphics/SVG/1.1/DTD/svg11.dtd">
<svg xmlns="http://www.w3.org/2000/svg" version="1.1" viewBox="0.00 0.00 512.00 512.00">
<path fill="#000000" d="
  M 19.81 0.00
  L 23.73 0.00
  C 32.71 1.81 39.02 8.36 39.02 17.48
  Q 39.03 75.35 39.04 138.71
  C 39.04 148.82 47.60 156.96 57.76 156.13
  C 67.26 155.36 73.78 147.57 73.77 138.25
  Q 73.74 77.15 73.76 17.58
  C 73.76 8.36 79.95 1.77 89.12 0.00
  L 93.03 0.00
  C 103.05 2.00 108.56 8.93 108.54 18.72
  Q 108.43 77.81 108.47 137.98
  Q 108.48 142.42 109.77 145.41
  C 115.94 159.67 135.74 159.82 141.90 145.42
  Q 143.31 142.14 143.29 135.00
  Q 143.13 76.13 143.23 17.16
  C 143.24 8.13 149.71 1.66 158.57 0.00
  L 162.52 0.00
  Q 172.92 2.17 176.34 10.38
  Q 178.05 14.49 178.02 23.26
  Q 177.76 99.19 177.96 171.82
  C 178.07 211.00 154.79 244.36 117.55 256.61
  A 0.54 0.52 -9.2 0 0 117.18 257.11
  Q 117.12 366.26 117.21 470.60
  Q 117.22 481.40 115.89 485.29
  C 109.32 504.45 85.63 509.40 71.99 494.86
  Q 65.06 487.47 65.06 476.28
  Q 65.08 368.17 65.06 257.28
  A 0.78 0.77 9.5 0 0 64.53 256.55
  Q 37.28 247.55 20.63 224.49
  Q 4.32 201.89 4.33 172.39
  Q 4.35 95.69 4.31 20.63
  Q 4.31 14.16 5.83 10.46
  Q 9.29 2.03 19.81 0.00
  Z"
/>
<path fill="#000000" d="
  M 436.28 0.00
  L 442.30 0.00
  C 475.25 2.56 502.08 26.37 506.86 59.04
  Q 507.78 65.32 507.75 77.73
  Q 507.60 167.34 507.70 260.42
  C 507.71 265.66 504.77 269.00 499.69 270.03
  C 487.49 272.49 478.02 282.33 474.41 293.84
  Q 472.95 298.48 472.95 305.40
  Q 472.95 389.29 473.04 470.34
  Q 473.06 480.75 471.68 484.63
  Q 467.40 496.73 455.94 501.46
  C 449.71 504.03 442.09 503.95 436.24 501.02
  Q 420.87 493.33 420.87 476.25
  Q 420.91 250.99 420.88 18.75
  Q 420.87 3.19 436.28 0.00
  Z"
/>
<path fill="#000000" d="
  M 270.44 116.52
  Q 271.93 124.24 273.21 132.67
  Q 273.77 136.36 272.62 138.74
  C 269.72 144.76 261.86 145.59 257.76 140.31
  Q 256.36 138.50 255.74 134.30
  Q 254.56 126.32 252.91 118.23
  A 0.66 0.65 0.7 0 0 252.40 117.71
  Q 221.95 110.74 212.56 81.35
  C 208.54 68.75 213.12 52.99 218.02 40.59
  Q 225.91 20.58 238.45 0.35
  Q 238.64 0.04 238.94 0.24
  Q 261.83 15.33 278.86 32.27
  C 284.10 37.48 289.66 43.82 293.34 50.14
  C 307.24 74.00 297.33 105.39 270.99 115.51
  Q 270.30 115.78 270.44 116.52
  Z"
/>
<path fill="#000000" d="
  M 320.61 286.89
  Q 318.49 299.16 317.32 313.04
  C 316.35 324.55 299.02 323.56 300.13 310.46
  Q 301.28 296.95 303.45 283.94
  Q 303.55 283.37 303.01 283.15
  Q 283.92 275.37 274.28 258.97
  Q 261.93 237.96 265.53 212.25
  Q 267.19 200.38 273.40 190.61
  Q 282.38 176.47 296.92 162.56
  Q 320.29 140.21 348.05 121.77
  Q 348.33 121.59 348.51 121.88
  Q 368.75 154.91 379.54 186.36
  C 384.12 199.69 387.97 216.16 385.17 229.57
  C 378.84 259.88 353.16 285.64 321.38 286.22
  Q 320.72 286.23 320.61 286.89
  Z"
/>
<path fill="#000000" d="
  M 274.66 512.00
  L 272.18 512.00
  Q 266.16 510.57 264.99 505.26
  Q 259.05 478.39 249.01 453.62
  Q 248.83 453.19 248.40 453.37
  Q 230.03 460.74 210.69 457.38
  C 179.67 451.98 150.51 424.95 145.30 393.45
  Q 142.35 375.60 144.66 352.06
  Q 148.07 317.27 160.29 275.86
  C 161.77 270.83 166.54 268.01 171.66 269.65
  Q 197.27 277.88 223.64 291.03
  Q 245.41 301.88 261.56 314.50
  Q 269.19 320.46 275.55 327.72
  C 283.52 336.79 288.52 348.73 291.07 360.20
  Q 291.15 360.55 291.44 360.33
  Q 305.92 349.07 325.12 341.86
  Q 350.38 332.37 379.41 327.11
  C 384.45 326.19 389.13 329.21 389.97 334.25
  Q 396.04 370.71 394.32 398.56
  C 393.36 413.93 390.52 430.01 381.07 442.00
  C 361.69 466.56 327.84 476.58 299.88 461.06
  Q 299.41 460.80 299.12 461.26
  Q 286.44 481.39 281.99 505.01
  Q 280.94 510.59 274.66 512.00
  Z
  M 243.96 322.84
  C 223.37 308.92 198.96 297.78 174.82 288.94
  Q 174.55 288.84 174.46 289.12
  Q 167.22 314.04 163.27 339.90
  Q 159.93 361.78 160.77 379.73
  C 161.19 388.76 162.85 397.78 167.31 405.91
  C 181.49 431.73 212.29 448.99 241.44 437.02
  A 0.30 0.29 -23.6 0 0 241.60 436.63
  Q 228.81 408.08 209.68 382.75
  C 206.92 379.10 206.13 374.72 209.25 371.05
  C 212.90 366.76 219.39 366.80 222.84 371.32
  Q 243.03 397.72 256.29 426.77
  Q 256.68 427.63 257.36 426.97
  C 277.58 407.42 280.68 377.80 270.50 352.07
  C 265.51 339.46 254.97 330.28 243.96 322.84
  Z
  M 326.82 401.39
  C 335.66 393.26 347.38 406.13 338.54 414.22
  Q 322.94 428.48 309.88 445.76
  Q 309.63 446.09 310.01 446.25
  Q 332.88 455.93 353.76 443.72
  Q 368.13 435.32 373.34 420.24
  C 375.83 413.02 376.92 403.93 377.18 396.43
  Q 378.03 371.62 374.60 345.87
  Q 374.55 345.50 374.18 345.58
  Q 358.54 348.90 342.82 353.85
  C 330.00 357.89 317.48 362.81 306.67 370.22
  Q 298.76 375.65 294.58 384.03
  Q 293.49 386.23 293.30 388.62
  Q 292.53 398.86 288.91 409.18
  Q 288.20 411.22 288.41 413.40
  Q 289.58 425.13 296.02 434.37
  A 0.38 0.37 45.8 0 0 296.63 434.38
  Q 309.33 417.46 326.82 401.39
  Z
  M 274.27 471.47
  Q 279.23 460.28 285.53 450.44
  Q 285.93 449.82 285.42 449.28
  C 281.24 444.82 277.81 439.05 275.68 433.73
  A 0.33 0.33 0.0 0 0 275.12 433.64
  Q 270.37 439.28 264.27 444.08
  Q 263.84 444.41 264.05 444.91
  Q 269.79 459.04 273.75 471.44
  Q 273.98 472.13 274.27 471.47
  Z"
/>
</svg>
