<?xml version="1.0" encoding="UTF-8" standalone="no"?>
<!DOCTYPE svg PUBLIC "-//W3C//DTD SVG 1.1//EN" "http://www.w3.org/Graphics/SVG/1.1/DTD/svg11.dtd">
<svg xmlns="http://www.w3.org/2000/svg" version="1.1" viewBox="0.00 0.00 500.00 500.00">
<g stroke-width="2.00" fill="none" stroke-linecap="butt">
<path stroke="#305488" stroke-opacity="0.753" vector-effect="non-scaling-stroke" d="
  M 370.27 340.91
  L 393.84 340.89"
/>
<path stroke="#6e94c7" vector-effect="non-scaling-stroke" d="
  M 431.29 340.25
  L 432.98 340.64"
/>
<path stroke="#1a977a" vector-effect="non-scaling-stroke" d="
  M 114.36 312.76
  L 120.28 312.73"
/>
<path stroke="#6e94c7" vector-effect="non-scaling-stroke" d="
  M 266.07 134.47
  Q 267.13 135.03 267.68 134.74"
/>
<path stroke="#1a977a" vector-effect="non-scaling-stroke" d="
  M 303.54 340.94
  L 319.20 340.76
  A 1.34 1.33 1.9 0 0 320.51 339.54
  L 321.23 330.89"
/>
<path stroke="#6e94c7" vector-effect="non-scaling-stroke" d="
  M 323.94 261.91
  Q 324.99 261.61 326.09 261.81"
/>
<path stroke="#305488" stroke-opacity="0.753" vector-effect="non-scaling-stroke" d="
  M 392.24 337.88
  L 371.12 337.88"
/>
<path stroke="#6e94c7" vector-effect="non-scaling-stroke" d="
  M 389.91 330.66
  Q 389.46 331.15 389.25 331.15
  Q 382.13 331.31 375.01 331.15
  Q 373.73 331.13 373.91 329.75"
/>
<path stroke="#6e94c7" vector-effect="non-scaling-stroke" d="
  M 388.17 324.72
  L 375.31 324.58"
/>
<path stroke="#6e94c7" vector-effect="non-scaling-stroke" d="
  M 386.03 317.59
  L 377.50 317.65"
/>
<path stroke="#6e94c7" vector-effect="non-scaling-stroke" d="
  M 146.65 305.79
  L 146.74 259.99
  Q 146.74 259.32 147.39 259.20
  Q 147.64 259.15 147.88 259.21
  Q 148.65 259.39 148.67 260.18
  L 148.78 263.84
  Q 148.80 264.62 149.59 264.62
  L 164.47 264.64
  A 0.92 0.92 0.0 0 0 165.39 263.77
  L 165.60 259.47
  A 0.43 0.43 0.0 0 1 166.09 259.07
  L 166.47 259.12
  Q 167.25 259.23 167.25 260.01
  L 167.35 305.03
  Q 167.35 305.54 167.85 305.62
  L 168.28 305.70"
/>
<path stroke="#6e94c7" vector-effect="non-scaling-stroke" d="
  M 298.32 275.41
  Q 297.28 275.58 296.92 275.17
  Q 296.63 274.84 296.24 275.04
  C 295.53 275.39 295.41 276.15 294.77 276.63
  Q 291.68 278.92 287.75 278.22
  Q 260.14 273.29 232.48 268.63
  Q 232.43 268.62 229.75 268.27
  C 225.67 267.73 222.23 265.46 222.03 260.96
  Q 222.01 260.30 222.48 258.62
  Q 222.86 257.26 222.48 256.15"
/>
<path stroke="#6e94c7" vector-effect="non-scaling-stroke" d="
  M 222.77 252.41
  Q 222.66 252.21 223.11 252.22
  Q 223.48 252.23 223.55 251.87
  Q 225.75 240.41 227.69 228.18
  Q 228.04 225.99 228.74 223.97
  Q 229.42 222.04 230.24 219.98"
/>
<path stroke="#537baa" stroke-opacity="0.906" vector-effect="non-scaling-stroke" d="
  M 276.46 220.39
  L 288.60 227.18"
/>
<path stroke="#305488" stroke-opacity="0.753" vector-effect="non-scaling-stroke" d="
  M 288.60 227.18
  L 292.43 229.37"
/>
<path stroke="#537baa" stroke-opacity="0.906" vector-effect="non-scaling-stroke" d="
  M 292.43 229.37
  Q 294.38 230.48 297.47 229.89"
/>
<path stroke="#305488" stroke-opacity="0.753" vector-effect="non-scaling-stroke" d="
  M 256.32 220.10
  Q 255.21 220.53 254.03 220.30"
/>
<path stroke="#537baa" stroke-opacity="0.906" vector-effect="non-scaling-stroke" d="
  M 254.03 220.30
  Q 250.63 219.63 247.77 221.21
  Q 247.03 221.62 247.82 221.92
  Q 248.52 222.18 249.27 221.96
  Q 249.72 221.82 250.19 221.90
  Q 254.56 222.63 258.97 223.61
  Q 260.69 223.99 262.36 223.83
  Q 264.43 223.63 265.91 224.46
  Q 266.80 224.95 267.87 224.84
  Q 269.06 224.71 270.08 225.01
  Q 272.05 225.60 273.84 225.76
  Q 275.55 225.92 277.21 226.39
  Q 279.48 227.02 281.69 227.09
  C 282.90 227.12 283.85 227.95 285.09 227.87
  Q 286.39 227.78 285.23 227.19
  L 271.45 220.09"
/>
<path stroke="#305488" stroke-opacity="0.753" vector-effect="non-scaling-stroke" d="
  M 267.54 257.66
  Q 266.94 258.47 268.00 259.60"
/>
<path stroke="#6e94c7" vector-effect="non-scaling-stroke" d="
  M 270.53 257.91
  Q 272.99 256.73 275.02 254.74
  A 0.71 0.70 -35.3 0 1 276.15 254.93
  Q 279.63 262.00 283.23 270.05
  Q 283.88 271.51 285.02 272.15
  C 286.94 273.24 291.37 273.56 291.91 270.31
  Q 293.61 260.30 295.45 249.50
  Q 295.67 248.19 294.98 247.07"
/>
<path stroke="#537baa" stroke-opacity="0.906" vector-effect="non-scaling-stroke" d="
  M 294.98 247.07
  Q 295.28 247.76 295.67 247.01
  Q 295.78 246.78 295.79 246.46
  Q 295.80 244.13 296.10 242.17
  Q 296.11 242.10 296.17 242.12
  Q 296.30 242.15 296.43 242.12
  Q 296.73 242.06 296.74 241.76
  L 296.96 237.76
  A 2.30 2.30 0.0 0 0 295.11 235.38
  L 285.55 233.50"
/>
<path stroke="#6e94c7" vector-effect="non-scaling-stroke" d="
  M 285.55 233.50
  L 236.78 225.03
  Q 233.32 224.43 232.72 227.89
  Q 230.43 241.14 228.09 254.76
  Q 227.97 255.42 227.98 256.24
  C 228.01 259.01 225.88 260.73 229.37 262.70
  Q 229.80 262.94 230.25 262.84
  Q 230.83 262.71 230.88 262.10
  Q 230.94 261.55 231.40 261.24
  Q 233.70 259.74 235.71 257.91
  Q 246.78 247.83 257.06 238.47
  A 0.41 0.40 55.6 0 1 257.69 238.59
  Q 261.41 246.25 264.83 253.78
  C 265.52 255.32 266.62 256.30 267.54 257.66"
/>
<path stroke="#98bee6" stroke-opacity="0.906" vector-effect="non-scaling-stroke" d="
  M 285.55 233.50
  L 286.00 233.71
  Q 286.57 233.97 286.07 234.36
  Q 285.94 234.46 285.90 234.63
  Q 285.83 234.89 285.97 235.12
  Q 287.72 237.96 291.39 237.32
  Q 291.89 237.23 292.20 237.64
  Q 293.28 239.09 292.23 240.68
  Q 291.96 241.09 291.95 241.58
  Q 291.91 243.59 292.28 244.72
  Q 292.78 246.26 294.98 247.07"
/>
<path stroke="#83a6d1" stroke-opacity="0.753" vector-effect="non-scaling-stroke" d="
  M 268.00 259.60
  L 268.53 258.52
  Q 268.78 258.00 268.22 257.85
  L 267.54 257.66"
/>
<path stroke="#6e94c7" vector-effect="non-scaling-stroke" d="
  M 165.40 267.17
  A 0.58 0.58 0.0 0 0 164.82 266.59
  L 149.38 266.59
  A 0.58 0.58 0.0 0 0 148.80 267.17
  L 148.80 273.19
  A 0.58 0.58 0.0 0 0 149.38 273.77
  L 164.82 273.77
  A 0.58 0.58 0.0 0 0 165.40 273.19
  L 165.40 267.17"
/>
<path stroke="#6e94c7" vector-effect="non-scaling-stroke" d="
  M 165.4103 276.3891
  A 0.64 0.64 0.0 0 0 164.7725 275.7468
  L 149.4126 275.6932
  A 0.64 0.64 0.0 0 0 148.7704 276.3310
  L 148.7497 282.2509
  A 0.64 0.64 0.0 0 0 149.3875 282.8932
  L 164.7474 282.9468
  A 0.64 0.64 0.0 0 0 165.3896 282.3090
  L 165.4103 276.3891"
/>
<path stroke="#6e94c7" vector-effect="non-scaling-stroke" d="
  M 165.40 285.38
  A 0.61 0.61 0.0 0 0 164.79 284.77
  L 149.35 284.77
  A 0.61 0.61 0.0 0 0 148.74 285.38
  L 148.74 291.40
  A 0.61 0.61 0.0 0 0 149.35 292.01
  L 164.79 292.01
  A 0.61 0.61 0.0 0 0 165.40 291.40
  L 165.40 285.38"
/>
<path stroke="#6e94c7" vector-effect="non-scaling-stroke" d="
  M 165.2647 294.5156
  A 0.53 0.53 0.0 0 0 164.7338 293.9865
  L 149.2938 294.0135
  A 0.53 0.53 0.0 0 0 148.7648 294.5444
  L 148.7753 300.5644
  A 0.53 0.53 0.0 0 0 149.3062 301.0935
  L 164.7462 301.0665
  A 0.53 0.53 0.0 0 0 165.2752 300.5356
  L 165.2647 294.5156"
/>
<path stroke="#6e94c7" vector-effect="non-scaling-stroke" d="
  M 164.56 304.96
  Q 165.29 304.87 165.13 304.04
  A 0.91 0.90 -4.6 0 0 164.25 303.30
  L 149.51 303.10
  A 0.70 0.69 6.6 0 0 148.82 303.64
  Q 148.51 305.02 150.31 305.69"
/>
<path stroke="#6e94c7" vector-effect="non-scaling-stroke" d="
  M 161.39 305.05
  L 154.77 305.64"
/>
<path stroke="#305488" stroke-opacity="0.753" vector-effect="non-scaling-stroke" d="
  M 130.90 315.09
  A 0.76 0.76 0.0 0 0 130.14 314.33
  L 103.78 314.33
  A 0.76 0.76 0.0 0 0 103.02 315.09
  L 103.02 318.43
  A 0.76 0.76 0.0 0 0 103.78 319.19
  L 130.14 319.19
  A 0.76 0.76 0.0 0 0 130.90 318.43
  L 130.90 315.09"
/>
<path stroke="#6e94c7" vector-effect="non-scaling-stroke" d="
  M 215.66 162.95
  Q 213.75 165.76 213.98 169.44
  Q 214.08 171.04 214.90 172.58
  C 216.59 175.70 218.17 178.22 221.98 178.94
  Q 222.49 179.04 222.87 179.38
  Q 224.05 180.44 225.75 179.92
  Q 227.48 179.39 229.29 178.93
  Q 231.15 178.46 232.32 177.27
  C 234.06 175.50 235.91 173.87 236.10 171.23
  Q 236.22 169.49 235.98 167.97
  C 235.80 166.90 236.03 166.17 236.23 165.14
  Q 236.34 164.56 235.86 164.22
  Q 235.30 163.81 235.47 163.18
  Q 235.62 162.67 235.21 162.32
  Q 233.13 160.58 231.08 159.03
  C 228.11 156.79 222.55 156.64 219.37 159.08
  Q 217.10 160.81 215.66 162.95"
/>
<path stroke="#6e94c7" vector-effect="non-scaling-stroke" d="
  M 290.1610 242.4695
  A 4.51 4.27 -6.5 0 0 285.1966 238.7374
  A 4.51 4.27 -6.5 0 0 281.1990 243.4905
  A 4.51 4.27 -6.5 0 0 286.1634 247.2226
  A 4.51 4.27 -6.5 0 0 290.1610 242.4695"
/>
</g>
<path fill="#305790" d="
  M 370.27 340.91
  L 393.84 340.89
  Q 399.25 341.23 401.35 340.86
  Q 403.34 340.50 404.86 340.67
  Q 407.62 340.97 407.67 340.97
  Q 418.33 341.02 428.99 340.95
  C 429.83 340.94 430.53 340.58 431.29 340.25
  L 432.98 340.64
  L 449.43 340.93
  Q 449.97 340.94 450.08 341.47
  Q 450.15 341.86 450.07 342.21
  Q 449.90 342.98 449.12 342.98
  L 50.55 342.95
  A 0.65 0.65 0.0 0 1 49.90 342.31
  L 49.88 341.83
  Q 49.86 341.03 50.66 341.03
  L 106.54 341.00
  Q 107.13 341.00 107.00 340.43
  Q 104.79 330.90 103.25 321.85
  Q 103.15 321.24 102.64 320.88
  L 101.82 320.30
  Q 101.31 319.95 101.30 319.33
  Q 101.24 317.31 101.22 315.22
  Q 101.19 312.39 104.01 312.50
  Q 109.10 312.71 114.36 312.76
  L 120.28 312.73
  L 130.94 312.70
  A 1.69 1.69 0.0 0 1 132.62 314.24
  C 132.77 316.02 133.44 320.26 131.13 320.88
  Q 130.63 321.01 130.54 321.52
  L 127.03 339.61
  A 1.36 1.05 -37.5 0 1 126.96 339.87
  Q 126.74 340.40 126.31 340.64
  Q 125.67 341.00 126.50 341.00
  L 146.24 340.99
  Q 146.77 340.99 146.77 340.46
  L 146.75 320.28
  A 0.57 0.57 0.0 0 0 146.22 319.71
  C 144.10 319.57 141.44 319.96 139.57 318.80
  C 137.62 317.58 135.54 315.36 135.46 312.88
  Q 134.49 282.47 133.87 254.26
  Q 133.43 233.88 134.49 219.77
  C 134.80 215.75 138.24 214.15 141.94 214.17
  Q 202.03 214.54 262.08 214.20
  Q 263.08 214.19 264.01 214.24
  Q 266.82 214.39 269.19 214.38
  Q 270.67 214.37 269.87 213.12
  L 269.53 212.58
  Q 268.90 211.59 267.75 211.39
  Q 265.81 211.04 266.39 209.17
  A 1.16 1.14 30.5 0 0 266.07 207.98
  Q 265.63 207.57 265.05 207.40
  A 2.37 2.35 -15.0 0 1 264.07 206.84
  C 261.03 203.88 262.12 200.46 265.69 198.80
  Q 266.23 198.55 266.22 197.97
  L 266.07 134.47
  Q 267.13 135.03 267.68 134.74
  L 267.72 198.00
  Q 267.72 198.70 268.39 198.92
  C 272.71 200.39 272.44 205.78 268.38 207.62
  C 267.63 207.97 267.34 208.82 267.70 209.57
  Q 267.93 210.04 268.41 210.23
  Q 270.91 211.25 271.28 213.72
  Q 271.37 214.31 271.97 214.32
  Q 283.76 214.55 295.96 214.42
  C 300.61 214.37 303.18 216.56 303.35 221.37
  Q 304.24 246.79 304.47 264.36
  Q 304.77 286.05 302.19 311.43
  C 301.73 315.96 299.22 318.99 294.76 319.09
  Q 264.54 319.77 234.81 319.76
  Q 234.16 319.76 234.20 320.41
  Q 234.59 326.63 236.13 333.72
  Q 236.27 334.35 236.91 334.36
  Q 242.97 334.43 249.26 334.32
  C 252.87 334.26 254.59 337.38 252.82 340.45
  Q 252.52 340.97 253.12 340.97
  L 303.54 340.94
  L 319.20 340.76
  A 1.34 1.33 1.9 0 0 320.51 339.54
  L 321.23 330.89
  Q 321.86 329.86 323.53 330.07
  Q 324.01 330.13 324.01 329.64
  L 323.94 261.91
  Q 324.99 261.61 326.09 261.81
  L 326.03 329.57
  Q 326.03 330.07 326.52 330.07
  L 327.62 330.08
  Q 328.26 330.09 328.37 330.71
  C 328.67 332.27 329.38 333.42 329.28 335.08
  Q 329.13 337.70 329.67 340.51
  Q 329.76 341.01 330.27 341.01
  L 343.49 341.00
  Q 343.99 341.00 343.99 340.51
  L 343.99 126.02
  Q 343.99 125.43 343.40 125.43
  Q 312.01 125.52 279.62 125.50
  Q 279.02 125.50 278.55 125.12
  A 0.80 0.79 -48.2 0 1 278.49 123.94
  L 294.92 107.49
  Q 295.21 107.20 295.62 107.20
  L 343.52 107.21
  Q 344.00 107.21 344.00 106.73
  L 343.98 91.51
  Q 343.98 91.01 344.49 91.01
  L 362.20 91.00
  A 0.46 0.45 89.3 0 1 362.65 91.45
  L 362.69 106.57
  Q 362.69 107.21 363.32 107.21
  L 394.51 107.21
  Q 395.07 107.21 395.07 107.77
  L 395.08 124.80
  Q 395.08 125.43 394.45 125.43
  L 363.25 125.41
  Q 362.67 125.41 362.67 126.00
  L 362.72 340.46
  Q 362.72 340.96 363.22 340.95
  L 370.27 340.91
  Z
  M 358.65 93.48
  A 0.33 0.33 0.0 0 0 358.42 92.92
  L 348.10 92.85
  A 0.33 0.33 0.0 0 0 347.87 93.42
  L 353.10 98.56
  A 0.33 0.33 0.0 0 0 353.56 98.56
  L 358.65 93.48
  Z
  M 346.55 94.63
  A 0.34 0.34 0.0 0 0 345.97 94.87
  L 345.99 105.32
  A 0.34 0.34 0.0 0 0 346.57 105.56
  L 351.77 100.32
  A 0.34 0.34 0.0 0 0 351.76 99.84
  L 346.55 94.63
  Z
  M 360.05 105.53
  A 0.33 0.33 0.0 0 0 360.61 105.29
  L 360.63 94.91
  A 0.33 0.33 0.0 0 0 360.07 94.68
  L 354.88 99.86
  A 0.33 0.33 0.0 0 0 354.88 100.33
  L 360.05 105.53
  Z
  M 348.12 106.62
  A 0.33 0.33 0.0 0 0 348.35 107.18
  L 358.23 107.16
  A 0.33 0.33 0.0 0 0 358.47 106.60
  L 353.52 101.61
  A 0.33 0.33 0.0 0 0 353.05 101.61
  L 348.12 106.62
  Z
  M 309.32 109.57
  A 0.34 0.34 0.0 0 0 309.08 108.99
  L 298.74 109.00
  A 0.34 0.34 0.0 0 0 298.50 109.58
  L 303.66 114.76
  A 0.34 0.34 0.0 0 0 304.14 114.76
  L 309.32 109.57
  Z
  M 325.75 109.55
  A 0.34 0.34 0.0 0 0 325.51 108.97
  L 315.20 109.01
  A 0.34 0.34 0.0 0 0 314.96 109.59
  L 320.08 114.75
  A 0.34 0.34 0.0 0 0 320.56 114.75
  L 325.75 109.55
  Z
  M 342.10 109.58
  A 0.34 0.34 0.0 0 0 341.86 109.00
  L 331.60 108.98
  A 0.34 0.34 0.0 0 0 331.36 109.56
  L 336.48 114.74
  A 0.34 0.34 0.0 0 0 336.96 114.74
  L 342.10 109.58
  Z
  M 375.01 109.58
  A 0.34 0.34 0.0 0 0 374.77 109.00
  L 364.43 108.98
  A 0.34 0.34 0.0 0 0 364.19 109.56
  L 369.35 114.74
  A 0.34 0.34 0.0 0 0 369.83 114.74
  L 375.01 109.58
  Z
  M 391.38 109.59
  A 0.34 0.34 0.0 0 0 391.14 109.01
  L 380.81 108.98
  A 0.34 0.34 0.0 0 0 380.57 109.56
  L 385.75 114.76
  A 0.34 0.34 0.0 0 0 386.23 114.76
  L 391.38 109.59
  Z
  M 358.83 109.76
  A 0.30 0.30 0.0 0 0 358.62 109.25
  L 348.06 109.25
  A 0.30 0.30 0.0 0 0 347.85 109.76
  L 353.13 115.01
  A 0.30 0.30 0.0 0 0 353.55 115.01
  L 358.83 109.76
  Z
  M 310.57 121.65
  A 0.34 0.34 0.0 0 0 311.15 121.41
  L 311.17 111.17
  A 0.34 0.34 0.0 0 0 310.59 110.93
  L 305.41 116.04
  A 0.34 0.34 0.0 0 0 305.41 116.52
  L 310.57 121.65
  Z
  M 392.70 121.69
  A 0.34 0.34 0.0 0 0 393.28 121.45
  L 393.26 111.13
  A 0.34 0.34 0.0 0 0 392.68 110.89
  L 387.52 116.06
  A 0.34 0.34 0.0 0 0 387.52 116.54
  L 392.70 121.69
  Z
  M 297.17 110.85
  A 0.33 0.33 0.0 0 0 296.61 111.09
  L 296.61 121.43
  A 0.33 0.33 0.0 0 0 297.17 121.67
  L 302.38 116.49
  A 0.33 0.33 0.0 0 0 302.38 116.03
  L 297.17 110.85
  Z
  M 346.58 111.09
  A 0.34 0.34 0.0 0 0 346.00 111.33
  L 346.00 121.77
  A 0.34 0.34 0.0 0 0 346.58 122.01
  L 351.77 116.79
  A 0.34 0.34 0.0 0 0 351.77 116.31
  L 346.58 111.09
  Z
  M 379.31 110.95
  A 0.33 0.33 0.0 0 0 378.74 111.18
  L 378.74 121.42
  A 0.33 0.33 0.0 0 0 379.31 121.65
  L 384.44 116.53
  A 0.33 0.33 0.0 0 0 384.44 116.07
  L 379.31 110.95
  Z
  M 313.65 110.92
  A 0.34 0.34 0.0 0 0 313.07 111.16
  L 313.05 121.35
  A 0.34 0.34 0.0 0 0 313.63 121.60
  L 318.81 116.51
  A 0.34 0.34 0.0 0 0 318.81 116.02
  L 313.65 110.92
  Z
  M 327.01 121.66
  A 0.32 0.32 0.0 0 0 327.56 121.44
  L 327.56 111.12
  A 0.32 0.32 0.0 0 0 327.01 110.90
  L 321.85 116.05
  A 0.32 0.32 0.0 0 0 321.85 116.51
  L 327.01 121.66
  Z
  M 330.06 110.93
  A 0.33 0.33 0.0 0 0 329.50 111.16
  L 329.50 121.40
  A 0.33 0.33 0.0 0 0 330.06 121.63
  L 335.18 116.51
  A 0.33 0.33 0.0 0 0 335.18 116.05
  L 330.06 110.93
  Z
  M 343.45 121.66
  A 0.32 0.32 0.0 0 0 343.99 121.44
  L 343.99 111.10
  A 0.32 0.32 0.0 0 0 343.45 110.88
  L 338.27 116.04
  A 0.32 0.32 0.0 0 0 338.27 116.50
  L 343.45 121.66
  Z
  M 376.26 121.66
  A 0.31 0.31 0.0 0 0 376.79 121.44
  L 376.79 111.08
  A 0.31 0.31 0.0 0 0 376.26 110.86
  L 371.09 116.04
  A 0.31 0.31 0.0 0 0 371.09 116.48
  L 376.26 121.66
  Z
  M 294.76 111.26
  A 0.38 0.38 0.0 0 0 294.11 110.99
  L 282.26 122.84
  A 0.38 0.38 0.0 0 0 282.53 123.49
  L 294.39 123.50
  A 0.38 0.38 0.0 0 0 294.77 123.12
  L 294.76 111.26
  Z
  M 359.89 121.77
  A 0.31 0.31 0.0 0 0 360.42 121.55
  L 360.38 111.50
  A 0.31 0.31 0.0 0 0 359.85 111.28
  L 354.83 116.32
  A 0.31 0.31 0.0 0 0 354.83 116.76
  L 359.89 121.77
  Z
  M 363.28 111.32
  A 0.32 0.32 0.0 0 0 362.73 111.55
  L 362.69 121.05
  A 0.32 0.32 0.0 0 0 363.23 121.28
  L 368.06 116.56
  A 0.32 0.32 0.0 0 0 368.06 116.10
  L 363.28 111.32
  Z
  M 298.58 122.96
  A 0.31 0.31 0.0 0 0 298.80 123.49
  L 308.97 123.51
  A 0.31 0.31 0.0 0 0 309.19 122.98
  L 304.12 117.79
  A 0.31 0.31 0.0 0 0 303.68 117.79
  L 298.58 122.96
  Z
  M 314.92 122.98
  A 0.31 0.31 0.0 0 0 315.14 123.51
  L 325.50 123.53
  A 0.31 0.31 0.0 0 0 325.72 123.00
  L 320.55 117.78
  A 0.31 0.31 0.0 0 0 320.11 117.78
  L 314.92 122.98
  Z
  M 331.35 122.98
  A 0.32 0.32 0.0 0 0 331.57 123.53
  L 341.87 123.53
  A 0.32 0.32 0.0 0 0 342.09 122.98
  L 336.95 117.79
  A 0.32 0.32 0.0 0 0 336.49 117.79
  L 331.35 122.98
  Z
  M 364.19 122.96
  A 0.33 0.33 0.0 0 0 364.42 123.52
  L 374.70 123.52
  A 0.33 0.33 0.0 0 0 374.93 122.96
  L 369.79 117.81
  A 0.33 0.33 0.0 0 0 369.33 117.81
  L 364.19 122.96
  Z
  M 380.55 122.95
  A 0.34 0.34 0.0 0 0 380.78 123.53
  L 391.13 123.55
  A 0.34 0.34 0.0 0 0 391.37 122.97
  L 386.21 117.84
  A 0.34 0.34 0.0 0 0 385.73 117.84
  L 380.55 122.95
  Z
  M 348.18 122.97
  A 0.33 0.33 0.0 0 0 348.41 123.53
  L 358.15 123.53
  A 0.33 0.33 0.0 0 0 358.38 122.97
  L 353.52 118.03
  A 0.33 0.33 0.0 0 0 353.04 118.03
  L 348.18 122.97
  Z
  M 358.66 126.28
  A 0.33 0.33 0.0 0 0 358.43 125.72
  L 348.18 125.70
  A 0.33 0.33 0.0 0 0 347.94 126.26
  L 353.06 131.39
  A 0.33 0.33 0.0 0 0 353.53 131.39
  L 358.66 126.28
  Z
  M 346.53 127.46
  A 0.32 0.32 0.0 0 0 345.99 127.69
  L 346.01 138.18
  A 0.32 0.32 0.0 0 0 346.55 138.41
  L 351.78 133.15
  A 0.32 0.32 0.0 0 0 351.78 132.70
  L 346.53 127.46
  Z
  M 360.07 138.37
  A 0.32 0.32 0.0 0 0 360.61 138.14
  L 360.58 127.75
  A 0.32 0.32 0.0 0 0 360.03 127.52
  L 354.86 132.74
  A 0.32 0.32 0.0 0 0 354.86 133.19
  L 360.07 138.37
  Z
  M 347.88 139.64
  A 0.34 0.34 0.0 0 0 348.12 140.22
  L 358.48 140.24
  A 0.34 0.34 0.0 0 0 358.72 139.66
  L 353.55 134.50
  A 0.34 0.34 0.0 0 0 353.07 134.50
  L 347.88 139.64
  Z
  M 358.66 142.70
  A 0.34 0.34 0.0 0 0 358.41 142.12
  L 348.20 142.14
  A 0.34 0.34 0.0 0 0 347.96 142.72
  L 353.08 147.81
  A 0.34 0.34 0.0 0 0 353.56 147.81
  L 358.66 142.70
  Z
  M 346.57 143.89
  A 0.34 0.34 0.0 0 0 345.99 144.13
  L 345.99 154.59
  A 0.34 0.34 0.0 0 0 346.57 154.83
  L 351.78 149.60
  A 0.34 0.34 0.0 0 0 351.78 149.12
  L 346.57 143.89
  Z
  M 360.05 154.75
  A 0.33 0.33 0.0 0 0 360.61 154.52
  L 360.59 144.22
  A 0.33 0.33 0.0 0 0 360.03 143.98
  L 354.84 149.14
  A 0.33 0.33 0.0 0 0 354.84 149.61
  L 360.05 154.75
  Z
  M 347.86 156.04
  A 0.31 0.31 0.0 0 0 348.08 156.57
  L 358.47 156.59
  A 0.31 0.31 0.0 0 0 358.69 156.06
  L 353.51 150.84
  A 0.31 0.31 0.0 0 0 353.07 150.84
  L 347.86 156.04
  Z
  M 358.64 159.09
  A 0.34 0.34 0.0 0 0 358.40 158.51
  L 348.15 158.49
  A 0.34 0.34 0.0 0 0 347.91 159.07
  L 353.10 164.28
  A 0.34 0.34 0.0 0 0 353.58 164.27
  L 358.64 159.09
  Z
  M 346.54 160.26
  A 0.34 0.34 0.0 0 0 345.96 160.50
  L 345.98 171.05
  A 0.34 0.34 0.0 0 0 346.56 171.29
  L 351.76 166.00
  A 0.34 0.34 0.0 0 0 351.76 165.52
  L 346.54 160.26
  Z
  M 360.07 171.21
  A 0.31 0.31 0.0 0 0 360.60 170.99
  L 360.60 160.55
  A 0.31 0.31 0.0 0 0 360.07 160.33
  L 354.83 165.55
  A 0.31 0.31 0.0 0 0 354.83 165.99
  L 360.07 171.21
  Z
  M 347.89 172.45
  A 0.34 0.34 0.0 0 0 348.13 173.03
  L 358.41 173.03
  A 0.34 0.34 0.0 0 0 358.65 172.45
  L 353.51 167.30
  A 0.34 0.34 0.0 0 0 353.03 167.30
  L 347.89 172.45
  Z
  M 358.66 175.51
  A 0.34 0.34 0.0 0 0 358.42 174.93
  L 348.11 174.89
  A 0.34 0.34 0.0 0 0 347.87 175.47
  L 353.06 180.64
  A 0.34 0.34 0.0 0 0 353.54 180.64
  L 358.66 175.51
  Z
  M 346.52 176.62
  A 0.32 0.32 0.0 0 0 345.97 176.85
  L 345.99 187.42
  A 0.32 0.32 0.0 0 0 346.54 187.64
  L 351.79 182.35
  A 0.32 0.32 0.0 0 0 351.79 181.90
  L 346.52 176.62
  Z
  M 360.05 187.60
  A 0.33 0.33 0.0 0 0 360.62 187.37
  L 360.62 177.01
  A 0.33 0.33 0.0 0 0 360.05 176.78
  L 354.86 181.96
  A 0.33 0.33 0.0 0 0 354.86 182.42
  L 360.05 187.60
  Z
  M 347.87 188.95
  A 0.31 0.31 0.0 0 0 348.09 189.48
  L 358.55 189.46
  A 0.31 0.31 0.0 0 0 358.77 188.93
  L 353.53 183.69
  A 0.31 0.31 0.0 0 0 353.09 183.69
  L 347.87 188.95
  Z
  M 358.71 191.91
  A 0.31 0.31 0.0 0 0 358.50 191.38
  L 348.09 191.34
  A 0.31 0.31 0.0 0 0 347.87 191.87
  L 353.10 197.09
  A 0.31 0.31 0.0 0 0 353.54 197.09
  L 358.71 191.91
  Z
  M 346.56 193.15
  A 0.34 0.34 0.0 0 0 345.98 193.39
  L 345.98 203.85
  A 0.34 0.34 0.0 0 0 346.56 204.09
  L 351.76 198.86
  A 0.34 0.34 0.0 0 0 351.76 198.38
  L 346.56 193.15
  Z
  M 360.04 204.01
  A 0.33 0.33 0.0 0 0 360.61 203.78
  L 360.61 193.38
  A 0.33 0.33 0.0 0 0 360.04 193.15
  L 354.82 198.35
  A 0.33 0.33 0.0 0 0 354.82 198.81
  L 360.04 204.01
  Z
  M 347.92 205.27
  A 0.33 0.33 0.0 0 0 348.16 205.84
  L 358.41 205.82
  A 0.33 0.33 0.0 0 0 358.64 205.25
  L 353.51 200.13
  A 0.33 0.33 0.0 0 0 353.04 200.13
  L 347.92 205.27
  Z
  M 358.73 208.33
  A 0.34 0.34 0.0 0 0 358.49 207.75
  L 348.14 207.73
  A 0.34 0.34 0.0 0 0 347.90 208.31
  L 353.10 213.49
  A 0.34 0.34 0.0 0 0 353.58 213.49
  L 358.73 208.33
  Z
  M 346.53 209.55
  A 0.34 0.34 0.0 0 0 345.95 209.79
  L 345.97 220.32
  A 0.34 0.34 0.0 0 0 346.55 220.56
  L 351.81 215.28
  A 0.34 0.34 0.0 0 0 351.81 214.80
  L 346.53 209.55
  Z
  M 360.04 220.41
  A 0.34 0.34 0.0 0 0 360.62 220.17
  L 360.60 209.83
  A 0.34 0.34 0.0 0 0 360.02 209.59
  L 354.86 214.77
  A 0.34 0.34 0.0 0 0 354.86 215.25
  L 360.04 220.41
  Z
  M 146.65 305.79
  L 146.74 259.99
  Q 146.74 259.32 147.39 259.20
  Q 147.64 259.15 147.88 259.21
  Q 148.65 259.39 148.67 260.18
  L 148.78 263.84
  Q 148.80 264.62 149.59 264.62
  L 164.47 264.64
  A 0.92 0.92 0.0 0 0 165.39 263.77
  L 165.60 259.47
  A 0.43 0.43 0.0 0 1 166.09 259.07
  L 166.47 259.12
  Q 167.25 259.23 167.25 260.01
  L 167.35 305.03
  Q 167.35 305.54 167.85 305.62
  L 168.28 305.70
  Q 168.06 305.64 167.77 305.83
  Q 167.35 306.11 167.35 306.61
  L 167.25 317.46
  Q 167.25 318.14 167.94 318.15
  C 183.71 318.34 199.36 318.06 215.24 318.06
  Q 256.12 318.04 293.51 317.53
  Q 299.84 317.44 300.48 311.49
  Q 304.27 276.29 302.13 241.13
  A 0.04 0.03 -42.0 0 0 302.06 241.13
  Q 299.88 250.77 298.59 261.20
  C 298.03 265.73 298.50 270.65 298.32 275.41
  Q 297.28 275.58 296.92 275.17
  Q 296.63 274.84 296.24 275.04
  C 295.53 275.39 295.41 276.15 294.77 276.63
  Q 291.68 278.92 287.75 278.22
  Q 260.14 273.29 232.48 268.63
  Q 232.43 268.62 229.75 268.27
  C 225.67 267.73 222.23 265.46 222.03 260.96
  Q 222.01 260.30 222.48 258.62
  Q 222.86 257.26 222.48 256.15
  L 222.77 252.41
  Q 222.66 252.21 223.11 252.22
  Q 223.48 252.23 223.55 251.87
  Q 225.75 240.41 227.69 228.18
  Q 228.04 225.99 228.74 223.97
  Q 229.42 222.04 230.24 219.98
  Q 231.78 219.92 233.59 219.66
  Q 235.28 219.42 236.91 219.67
  Q 241.91 220.42 245.25 219.93
  Q 254.40 218.61 263.41 217.31
  Q 263.71 217.27 263.69 216.96
  L 263.67 216.61
  A 0.59 0.59 0.0 0 0 263.08 216.04
  Q 206.23 216.00 141.33 215.79
  C 138.42 215.78 136.28 217.33 136.09 220.47
  Q 135.21 235.35 135.55 254.98
  Q 135.96 278.85 137.10 312.41
  C 137.20 315.35 140.30 318.16 143.23 318.02
  Q 144.73 317.94 146.17 318.04
  A 0.52 0.52 0.0 0 0 146.72 317.52
  L 146.74 314.71
  Q 146.74 314.15 146.19 314.11
  C 142.40 313.87 143.06 309.60 146.06 309.81
  Q 146.72 309.86 146.71 309.20
  L 146.65 305.79
  Z
  M 269.1894 216.5328
  A 2.16 0.40 1.4 0 0 267.0398 216.0801
  A 2.16 0.40 1.4 0 0 264.8706 216.4272
  A 2.16 0.40 1.4 0 0 267.0202 216.8799
  A 2.16 0.40 1.4 0 0 269.1894 216.5328
  Z
  M 276.46 220.39
  L 288.60 227.18
  L 292.43 229.37
  Q 294.38 230.48 297.47 229.89
  Q 299.91 231.15 301.64 233.27
  Q 302.11 233.85 302.07 233.10
  Q 301.77 227.70 301.77 221.86
  C 301.78 218.71 300.47 216.11 297.06 216.09
  Q 283.19 215.98 272.79 216.08
  Q 268.24 216.12 271.87 218.85
  Q 273.37 219.98 276.46 220.39
  Z
  M 347.85 221.71
  A 0.34 0.34 0.0 0 0 348.09 222.29
  L 358.45 222.29
  A 0.34 0.34 0.0 0 0 358.69 221.71
  L 353.51 216.56
  A 0.34 0.34 0.0 0 0 353.03 216.56
  L 347.85 221.71
  Z
  M 256.32 220.10
  Q 255.21 220.53 254.03 220.30
  Q 250.63 219.63 247.77 221.21
  Q 247.03 221.62 247.82 221.92
  Q 248.52 222.18 249.27 221.96
  Q 249.72 221.82 250.19 221.90
  Q 254.56 222.63 258.97 223.61
  Q 260.69 223.99 262.36 223.83
  Q 264.43 223.63 265.91 224.46
  Q 266.80 224.95 267.87 224.84
  Q 269.06 224.71 270.08 225.01
  Q 272.05 225.60 273.84 225.76
  Q 275.55 225.92 277.21 226.39
  Q 279.48 227.02 281.69 227.09
  C 282.90 227.12 283.85 227.95 285.09 227.87
  Q 286.39 227.78 285.23 227.19
  L 271.45 220.09
  L 268.99 218.75
  Q 268.50 218.48 267.97 218.63
  Q 266.81 218.94 265.71 218.49
  Q 265.24 218.30 264.75 218.40
  L 256.32 220.10
  Z
  M 226.77 249.70
  Q 227.20 250.14 227.31 249.53
  Q 229.06 239.83 231.16 227.54
  C 231.57 225.14 233.76 222.88 236.20 223.30
  Q 266.34 228.48 295.06 233.52
  C 297.83 234.01 299.41 236.34 298.89 239.34
  Q 296.57 252.83 293.41 270.83
  C 292.97 273.38 290.45 274.96 287.90 274.52
  Q 259.45 269.60 229.90 264.50
  Q 225.92 263.81 225.75 260.18
  Q 225.61 257.11 227.12 251.63
  A 0.94 0.94 0.0 0 0 226.66 250.56
  L 226.31 250.38
  Q 225.62 250.02 225.49 250.78
  Q 224.78 255.04 223.99 259.25
  C 223.37 262.56 224.79 265.58 228.16 266.17
  Q 257.88 271.37 288.12 276.67
  C 291.52 277.26 294.27 275.65 294.90 271.93
  Q 297.78 255.13 300.81 238.04
  C 301.85 232.18 296.20 231.48 292.20 230.81
  Q 263.01 225.93 236.12 221.11
  A 5.38 5.38 0.0 0 0 229.87 225.49
  L 226.04 247.54
  A 2.17 1.98 48.6 0 0 226.03 248.15
  Q 226.14 249.06 226.77 249.70
  Z
  M 358.62 224.78
  A 0.32 0.32 0.0 0 0 358.39 224.24
  L 348.12 224.20
  A 0.32 0.32 0.0 0 0 347.89 224.75
  L 353.05 229.91
  A 0.32 0.32 0.0 0 0 353.51 229.91
  L 358.62 224.78
  Z
  M 267.54 257.66
  Q 266.94 258.47 268.00 259.60
  L 268.16 260.20
  Q 268.30 260.72 268.70 260.37
  Q 269.88 259.36 270.53 257.91
  Q 272.99 256.73 275.02 254.74
  A 0.71 0.70 -35.3 0 1 276.15 254.93
  Q 279.63 262.00 283.23 270.05
  Q 283.88 271.51 285.02 272.15
  C 286.94 273.24 291.37 273.56 291.91 270.31
  Q 293.61 260.30 295.45 249.50
  Q 295.67 248.19 294.98 247.07
  Q 295.28 247.76 295.67 247.01
  Q 295.78 246.78 295.79 246.46
  Q 295.80 244.13 296.10 242.17
  Q 296.11 242.10 296.17 242.12
  Q 296.30 242.15 296.43 242.12
  Q 296.73 242.06 296.74 241.76
  L 296.96 237.76
  A 2.30 2.30 0.0 0 0 295.11 235.38
  L 285.55 233.50
  L 236.78 225.03
  Q 233.32 224.43 232.72 227.89
  Q 230.43 241.14 228.09 254.76
  Q 227.97 255.42 227.98 256.24
  C 228.01 259.01 225.88 260.73 229.37 262.70
  Q 229.80 262.94 230.25 262.84
  Q 230.83 262.71 230.88 262.10
  Q 230.94 261.55 231.40 261.24
  Q 233.70 259.74 235.71 257.91
  Q 246.78 247.83 257.06 238.47
  A 0.41 0.40 55.6 0 1 257.69 238.59
  Q 261.41 246.25 264.83 253.78
  C 265.52 255.32 266.62 256.30 267.54 257.66
  Z
  M 346.48 225.85
  A 0.30 0.30 0.0 0 0 345.96 226.06
  L 345.98 236.74
  A 0.30 0.30 0.0 0 0 346.50 236.95
  L 351.81 231.61
  A 0.30 0.30 0.0 0 0 351.81 231.18
  L 346.48 225.85
  Z
  M 360.05 236.89
  A 0.33 0.33 0.0 0 0 360.61 236.66
  L 360.59 226.29
  A 0.33 0.33 0.0 0 0 360.03 226.06
  L 354.83 231.25
  A 0.33 0.33 0.0 0 0 354.83 231.72
  L 360.05 236.89
  Z
  M 347.89 238.15
  A 0.32 0.32 0.0 0 0 348.11 238.70
  L 358.54 238.72
  A 0.32 0.32 0.0 0 0 358.77 238.17
  L 353.56 232.94
  A 0.32 0.32 0.0 0 0 353.11 232.94
  L 347.89 238.15
  Z
  M 232.23 262.76
  A 0.39 0.39 0.0 0 0 232.43 263.43
  L 270.62 270.14
  A 0.39 0.39 0.0 0 0 271.04 269.59
  L 257.32 240.41
  A 0.39 0.39 0.0 0 0 256.70 240.29
  L 232.23 262.76
  Z
  M 358.61 241.23
  A 0.34 0.34 0.0 0 0 358.37 240.65
  L 348.16 240.54
  A 0.34 0.34 0.0 0 0 347.91 241.12
  L 353.09 246.33
  A 0.34 0.34 0.0 0 0 353.57 246.33
  L 358.61 241.23
  Z
  M 346.49 242.30
  A 0.30 0.30 0.0 0 0 345.98 242.51
  L 345.98 253.17
  A 0.30 0.30 0.0 0 0 346.49 253.38
  L 351.81 248.05
  A 0.30 0.30 0.0 0 0 351.81 247.63
  L 346.49 242.30
  Z
  M 360.04 253.24
  A 0.32 0.32 0.0 0 0 360.59 253.01
  L 360.59 242.65
  A 0.32 0.32 0.0 0 0 360.04 242.42
  L 354.85 247.60
  A 0.32 0.32 0.0 0 0 354.85 248.06
  L 360.04 253.24
  Z
  M 347.86 254.52
  A 0.33 0.33 0.0 0 0 348.09 255.09
  L 358.43 255.09
  A 0.33 0.33 0.0 0 0 358.66 254.52
  L 353.49 249.39
  A 0.33 0.33 0.0 0 0 353.03 249.39
  L 347.86 254.52
  Z
  M 272.52 270.28
  A 0.41 0.41 0.0 0 0 272.82 270.51
  L 282.33 272.19
  A 0.41 0.41 0.0 0 0 282.78 271.61
  L 275.69 256.49
  A 0.41 0.41 0.0 0 0 275.05 256.36
  L 268.87 261.86
  A 0.41 0.41 0.0 0 0 268.77 262.34
  L 272.52 270.28
  Z
  M 358.86 259.40
  A 0.34 0.34 0.0 0 0 358.62 258.82
  L 347.95 258.78
  A 0.34 0.34 0.0 0 0 347.71 259.37
  L 353.07 264.61
  A 0.34 0.34 0.0 0 0 353.55 264.61
  L 358.86 259.40
  Z
  M 346.36 260.57
  A 0.34 0.34 0.0 0 0 345.78 260.81
  L 345.78 271.47
  A 0.34 0.34 0.0 0 0 346.36 271.71
  L 351.75 266.38
  A 0.34 0.34 0.0 0 0 351.75 265.90
  L 346.36 260.57
  Z
  M 360.26 271.62
  A 0.34 0.34 0.0 0 0 360.84 271.37
  L 360.84 260.91
  A 0.34 0.34 0.0 0 0 360.26 260.66
  L 354.94 265.90
  A 0.34 0.34 0.0 0 0 354.94 266.38
  L 360.26 271.62
  Z
  M 165.40 267.17
  A 0.58 0.58 0.0 0 0 164.82 266.59
  L 149.38 266.59
  A 0.58 0.58 0.0 0 0 148.80 267.17
  L 148.80 273.19
  A 0.58 0.58 0.0 0 0 149.38 273.77
  L 164.82 273.77
  A 0.58 0.58 0.0 0 0 165.40 273.19
  L 165.40 267.17
  Z
  M 349.34 271.28
  A 0.33 0.33 0.0 0 0 349.57 271.85
  L 357.08 271.88
  A 0.33 0.33 0.0 0 0 357.32 271.31
  L 353.57 267.61
  A 0.33 0.33 0.0 0 0 353.11 267.61
  L 349.34 271.28
  Z
  M 297.84 268.78
  Q 297.34 269.70 297.58 270.75
  Q 297.74 271.45 297.84 270.74
  Q 297.97 269.73 297.81 268.68
  Q 297.80 268.61 297.86 268.62
  Q 297.87 268.62 297.87 268.62
  Q 297.87 268.62 297.87 268.64
  Q 297.87 268.66 297.87 268.72
  Q 297.86 268.75 297.84 268.78
  Z
  M 357.31 275.80
  A 0.33 0.33 0.0 0 0 357.08 275.24
  L 349.59 275.27
  A 0.33 0.33 0.0 0 0 349.36 275.83
  L 353.12 279.52
  A 0.33 0.33 0.0 0 0 353.58 279.51
  L 357.31 275.80
  Z
  M 346.30 275.42
  A 0.31 0.31 0.0 0 0 345.77 275.64
  L 345.77 286.34
  A 0.31 0.31 0.0 0 0 346.30 286.56
  L 351.81 281.21
  A 0.31 0.31 0.0 0 0 351.81 280.77
  L 346.30 275.42
  Z
  M 360.33 286.46
  A 0.31 0.31 0.0 0 0 360.85 286.23
  L 360.83 275.68
  A 0.31 0.31 0.0 0 0 360.31 275.46
  L 354.85 280.74
  A 0.31 0.31 0.0 0 0 354.85 281.19
  L 360.33 286.46
  Z
  M 165.4103 276.3891
  A 0.64 0.64 0.0 0 0 164.7725 275.7468
  L 149.4126 275.6932
  A 0.64 0.64 0.0 0 0 148.7704 276.3310
  L 148.7497 282.2509
  A 0.64 0.64 0.0 0 0 149.3875 282.8932
  L 164.7474 282.9468
  A 0.64 0.64 0.0 0 0 165.3896 282.3090
  L 165.4103 276.3891
  Z
  M 347.64 287.70
  A 0.34 0.34 0.0 0 0 347.87 288.28
  L 358.65 288.32
  A 0.34 0.34 0.0 0 0 358.89 287.74
  L 353.52 282.50
  A 0.34 0.34 0.0 0 0 353.05 282.50
  L 347.64 287.70
  Z
  M 165.40 285.38
  A 0.61 0.61 0.0 0 0 164.79 284.77
  L 149.35 284.77
  A 0.61 0.61 0.0 0 0 148.74 285.38
  L 148.74 291.40
  A 0.61 0.61 0.0 0 0 149.35 292.01
  L 164.79 292.01
  A 0.61 0.61 0.0 0 0 165.40 291.40
  L 165.40 285.38
  Z
  M 358.85 290.74
  A 0.32 0.32 0.0 0 0 358.63 290.19
  L 348.00 290.17
  A 0.32 0.32 0.0 0 0 347.77 290.72
  L 353.08 295.90
  A 0.32 0.32 0.0 0 0 353.53 295.90
  L 358.85 290.74
  Z
  M 346.35 291.82
  A 0.34 0.34 0.0 0 0 345.77 292.07
  L 345.77 302.71
  A 0.34 0.34 0.0 0 0 346.35 302.96
  L 351.76 297.63
  A 0.34 0.34 0.0 0 0 351.76 297.15
  L 346.35 291.82
  Z
  M 360.30 302.88
  A 0.31 0.31 0.0 0 0 360.83 302.65
  L 360.81 292.12
  A 0.31 0.31 0.0 0 0 360.28 291.90
  L 354.90 297.18
  A 0.31 0.31 0.0 0 0 354.90 297.62
  L 360.30 302.88
  Z
  M 165.2647 294.5156
  A 0.53 0.53 0.0 0 0 164.7338 293.9865
  L 149.2938 294.0135
  A 0.53 0.53 0.0 0 0 148.7648 294.5444
  L 148.7753 300.5644
  A 0.53 0.53 0.0 0 0 149.3062 301.0935
  L 164.7462 301.0665
  A 0.53 0.53 0.0 0 0 165.2752 300.5356
  L 165.2647 294.5156
  Z
  M 347.78 304.04
  A 0.34 0.34 0.0 0 0 348.01 304.63
  L 358.60 304.65
  A 0.34 0.34 0.0 0 0 358.84 304.06
  L 353.55 298.91
  A 0.34 0.34 0.0 0 0 353.08 298.91
  L 347.78 304.04
  Z
  M 150.31 305.69
  Q 148.94 305.39 148.84 307.01
  Q 148.74 308.69 148.90 309.69
  Q 148.98 310.20 149.50 310.20
  L 164.57 310.10
  Q 165.12 310.09 165.21 309.55
  Q 165.65 306.98 164.56 304.96
  Q 165.29 304.87 165.13 304.04
  A 0.91 0.90 -4.6 0 0 164.25 303.30
  L 149.51 303.10
  A 0.70 0.69 6.6 0 0 148.82 303.64
  Q 148.51 305.02 150.31 305.69
  Z
  M 358.83 307.10
  A 0.31 0.31 0.0 0 0 358.62 306.57
  L 347.91 306.53
  A 0.31 0.31 0.0 0 0 347.70 307.07
  L 353.13 312.30
  A 0.31 0.31 0.0 0 0 353.57 312.30
  L 358.83 307.10
  Z
  M 346.38 308.28
  A 0.34 0.34 0.0 0 0 345.80 308.52
  L 345.78 319.05
  A 0.34 0.34 0.0 0 0 346.36 319.29
  L 351.72 314.04
  A 0.34 0.34 0.0 0 0 351.72 313.55
  L 346.38 308.28
  Z
  M 360.25 319.25
  A 0.34 0.34 0.0 0 0 360.83 319.00
  L 360.81 308.65
  A 0.34 0.34 0.0 0 0 360.23 308.41
  L 354.95 313.59
  A 0.34 0.34 0.0 0 0 354.95 314.08
  L 360.25 319.25
  Z
  M 164.58 313.40
  C 163.15 314.61 161.88 314.16 161.02 312.69
  A 0.90 0.89 74.7 0 0 160.25 312.25
  L 157.16 312.25
  Q 156.51 312.26 156.17 312.82
  L 155.89 313.31
  Q 155.63 313.77 155.12 313.92
  Q 153.18 314.51 152.31 312.73
  Q 152.10 312.30 151.62 312.29
  L 149.65 312.25
  Q 148.78 312.24 148.78 313.11
  L 148.77 317.30
  Q 148.77 318.08 149.55 318.08
  L 164.78 318.22
  Q 165.29 318.22 165.29 317.72
  L 165.29 313.73
  A 0.43 0.43 0.0 0 0 164.58 313.40
  Z
  M 130.90 315.09
  A 0.76 0.76 0.0 0 0 130.14 314.33
  L 103.78 314.33
  A 0.76 0.76 0.0 0 0 103.02 315.09
  L 103.02 318.43
  A 0.76 0.76 0.0 0 0 103.78 319.19
  L 130.14 319.19
  A 0.76 0.76 0.0 0 0 130.90 318.43
  L 130.90 315.09
  Z
  M 347.64 320.64
  A 0.31 0.31 0.0 0 0 347.86 321.17
  L 358.71 321.09
  A 0.31 0.31 0.0 0 0 358.92 320.56
  L 353.46 315.34
  A 0.31 0.31 0.0 0 0 353.03 315.34
  L 347.64 320.64
  Z
  M 185.38 340.28
  C 183.67 337.68 185.45 334.36 188.60 334.37
  Q 195.72 334.39 201.61 334.35
  A 0.80 0.79 9.9 0 0 202.36 333.83
  Q 204.71 327.38 204.17 320.33
  A 0.46 0.45 88.0 0 0 203.72 319.90
  L 167.69 319.93
  A 0.39 0.38 0.0 0 0 167.30 320.31
  L 167.26 340.50
  Q 167.26 341.00 167.76 341.00
  L 185.00 340.99
  Q 185.85 340.99 185.38 340.28
  Z
  M 233.64 334.25
  A 0.34 0.34 0.0 0 0 233.97 333.86
  L 231.98 320.20
  A 0.34 0.34 0.0 0 0 231.65 319.91
  L 207.06 319.98
  A 0.34 0.34 0.0 0 0 206.72 320.28
  L 204.99 333.87
  A 0.34 0.34 0.0 0 0 205.33 334.25
  L 233.64 334.25
  Z
  M 105.05 320.99
  A 0.32 0.32 0.0 0 0 104.73 321.37
  L 108.16 339.06
  A 0.32 0.32 0.0 0 0 108.47 339.32
  L 125.22 339.36
  A 0.32 0.32 0.0 0 0 125.54 339.10
  L 128.96 321.30
  A 0.32 0.32 0.0 0 0 128.64 320.92
  L 105.05 320.99
  Z
  M 165.28 321.85
  A 0.48 0.48 0.0 0 0 164.80 321.37
  L 149.24 321.37
  A 0.48 0.48 0.0 0 0 148.76 321.85
  L 148.76 328.05
  A 0.48 0.48 0.0 0 0 149.24 328.53
  L 164.80 328.53
  A 0.48 0.48 0.0 0 0 165.28 328.05
  L 165.28 321.85
  Z
  M 358.82 325.09
  A 0.34 0.34 0.0 0 0 358.59 324.51
  L 347.93 324.48
  A 0.34 0.34 0.0 0 0 347.69 325.07
  L 353.12 330.26
  A 0.34 0.34 0.0 0 0 353.60 330.26
  L 358.82 325.09
  Z
  M 346.37 326.26
  A 0.34 0.34 0.0 0 0 345.79 326.50
  L 345.77 337.03
  A 0.34 0.34 0.0 0 0 346.35 337.28
  L 351.74 332.02
  A 0.34 0.34 0.0 0 0 351.74 331.53
  L 346.37 326.26
  Z
  M 360.28 337.22
  A 0.33 0.33 0.0 0 0 360.83 336.98
  L 360.80 326.63
  A 0.33 0.33 0.0 0 0 360.24 326.39
  L 354.92 331.59
  A 0.33 0.33 0.0 0 0 354.92 332.06
  L 360.28 337.22
  Z
  M 165.31 330.72
  A 0.26 0.26 0.0 0 0 165.05 330.46
  L 148.97 330.46
  A 0.26 0.26 0.0 0 0 148.71 330.72
  L 148.71 340.74
  A 0.26 0.26 0.0 0 0 148.97 341.00
  L 165.05 341.00
  A 0.26 0.26 0.0 0 0 165.31 340.74
  L 165.31 330.72
  Z
  M 358.62 339.04
  A 0.34 0.34 0.0 0 0 358.86 338.46
  L 353.58 333.31
  A 0.34 0.34 0.0 0 0 353.10 333.31
  L 347.74 338.51
  A 0.34 0.34 0.0 0 0 347.98 339.10
  L 358.62 339.04
  Z
  M 251.87 337.81
  A 1.69 1.69 0.0 0 0 250.18 336.12
  L 188.12 336.12
  A 1.69 1.69 0.0 0 0 186.43 337.81
  L 186.43 338.61
  A 1.69 1.69 0.0 0 0 188.12 340.30
  L 250.18 340.30
  A 1.69 1.69 0.0 0 0 251.87 338.61
  L 251.87 337.81
  Z"
/>
<path fill="#305790" d="
  M 214.03 117.66
  Q 213.42 117.67 212.99 117.22
  A 1.01 1.00 61.1 0 1 213.47 115.55
  Q 214.35 115.34 214.74 114.53
  Q 215.92 112.08 216.74 114.66
  Q 217.05 115.63 218.15 115.68
  Q 218.70 115.70 218.84 116.23
  Q 218.91 116.52 218.82 116.82
  Q 218.68 117.25 218.24 117.38
  L 217.42 117.62
  Q 216.83 117.79 216.76 118.41
  Q 216.70 119.05 216.22 119.49
  A 0.69 0.69 0.0 0 1 215.28 119.49
  Q 214.73 118.98 214.66 118.22
  A 0.63 0.62 86.5 0 0 214.03 117.66
  Z"
/>
<path fill="#acd1fd" d="
  M 267.68 134.74
  Q 267.13 135.03 266.07 134.47
  L 258.22 134.58
  Q 257.14 134.59 257.15 133.51
  L 257.20 129.47
  Q 257.22 128.41 258.28 128.41
  L 313.17 128.61
  A 0.25 0.25 0.0 0 1 313.41 128.85
  L 313.48 134.22
  A 0.26 0.26 0.0 0 1 313.23 134.49
  L 267.68 134.74
  Z"
/>
<circle fill="#305790" cx="239.98" cy="141.28" r="1.54"/>
<path fill="#acd1fd" d="
  M 163.57 163.44
  Q 163.39 164.23 163.49 165.03
  Q 163.59 165.85 162.76 165.88
  L 160.82 165.94
  Q 160.16 165.97 160.13 165.31
  L 160.06 163.79
  Q 160.03 163.20 159.57 162.83
  Q 156.51 160.45 155.07 162.34
  Q 154.14 163.57 153.06 162.47
  L 152.55 161.95
  Q 151.53 160.91 152.70 160.04
  Q 154.51 158.69 152.41 155.71
  C 151.77 154.81 151.10 154.69 150.09 154.91
  Q 149.23 155.10 149.23 154.22
  L 149.23 152.71
  Q 149.22 151.77 150.16 151.79
  Q 153.30 151.89 153.48 147.80
  Q 153.51 147.21 153.05 146.84
  L 152.33 146.26
  Q 151.85 145.88 152.18 145.36
  Q 152.72 144.51 153.57 143.84
  Q 153.98 143.51 154.37 143.85
  L 155.75 145.05
  Q 156.19 145.43 156.72 145.21
  L 159.47 144.04
  Q 160.02 143.82 160.06 143.23
  L 160.21 141.47
  A 0.69 0.69 0.0 0 1 160.78 140.84
  Q 161.79 140.68 162.83 140.91
  Q 163.51 141.07 163.49 141.76
  L 163.46 142.78
  Q 163.44 143.27 163.80 143.62
  Q 166.84 146.56 169.00 143.86
  Q 169.47 143.28 169.99 143.81
  L 171.27 145.11
  Q 171.78 145.62 171.27 146.13
  L 170.30 147.07
  Q 169.85 147.52 169.94 148.15
  Q 170.52 152.02 173.50 151.77
  Q 174.33 151.70 174.37 152.52
  L 174.45 154.00
  Q 174.51 155.02 173.50 154.99
  L 172.08 154.97
  Q 171.29 154.95 170.98 155.68
  L 169.91 158.23
  Q 169.64 158.87 170.10 159.39
  L 171.32 160.76
  Q 171.82 161.33 171.25 161.83
  L 170.23 162.72
  Q 169.47 163.39 168.81 162.61
  Q 167.10 160.60 164.15 162.59
  Q 163.70 162.90 163.57 163.44
  Z
  M 167.64 153.36
  A 5.88 5.88 0.0 0 0 161.76 147.48
  A 5.88 5.88 0.0 0 0 155.88 153.36
  A 5.88 5.88 0.0 0 0 161.76 159.24
  A 5.88 5.88 0.0 0 0 167.64 153.36
  Z"
/>
<path fill="#acd1fd" d="
  M 239.44 168.40
  A 14.20 14.20 0.0 0 1 225.24 182.60
  A 14.20 14.20 0.0 0 1 211.04 168.40
  A 14.20 14.20 0.0 0 1 225.24 154.20
  A 14.20 14.20 0.0 0 1 239.44 168.40
  Z
  M 215.66 162.95
  Q 213.75 165.76 213.98 169.44
  Q 214.08 171.04 214.90 172.58
  C 216.59 175.70 218.17 178.22 221.98 178.94
  Q 222.49 179.04 222.87 179.38
  Q 224.05 180.44 225.75 179.92
  Q 227.48 179.39 229.29 178.93
  Q 231.15 178.46 232.32 177.27
  C 234.06 175.50 235.91 173.87 236.10 171.23
  Q 236.22 169.49 235.98 167.97
  C 235.80 166.90 236.03 166.17 236.23 165.14
  Q 236.34 164.56 235.86 164.22
  Q 235.30 163.81 235.47 163.18
  Q 235.62 162.67 235.21 162.32
  Q 233.13 160.58 231.08 159.03
  C 228.11 156.79 222.55 156.64 219.37 159.08
  Q 217.10 160.81 215.66 162.95
  Z"
/>
<circle fill="#305790" cx="321.55" cy="156.48" r="1.50"/>
<path fill="#305790" d="
  M 219.37 159.08
  C 222.55 156.64 228.11 156.79 231.08 159.03
  Q 233.13 160.58 235.21 162.32
  Q 235.62 162.67 235.47 163.18
  Q 235.30 163.81 235.86 164.22
  Q 236.34 164.56 236.23 165.14
  C 236.03 166.17 235.80 166.90 235.98 167.97
  Q 236.22 169.49 236.10 171.23
  C 235.91 173.87 234.06 175.50 232.32 177.27
  Q 231.15 178.46 229.29 178.93
  Q 227.48 179.39 225.75 179.92
  Q 224.05 180.44 222.87 179.38
  Q 222.49 179.04 221.98 178.94
  C 218.17 178.22 216.59 175.70 214.90 172.58
  Q 214.08 171.04 213.98 169.44
  Q 213.75 165.76 215.66 162.95
  Q 217.10 160.81 219.37 159.08
  Z
  M 215.50 168.65
  Q 214.80 169.13 215.01 169.96
  Q 215.70 172.71 217.14 174.76
  Q 217.41 175.15 217.89 175.12
  Q 218.61 175.07 218.68 175.81
  A 1.32 1.30 -74.7 0 0 219.21 176.76
  Q 222.08 178.84 225.14 178.56
  Q 225.51 178.53 225.88 178.54
  Q 230.02 178.69 233.23 174.93
  Q 235.49 172.28 235.50 169.11
  Q 235.50 168.73 235.11 168.68
  Q 234.88 168.66 234.64 168.66
  Q 234.08 168.66 234.60 168.44
  Q 234.90 168.31 235.20 168.35
  A 0.29 0.29 0.0 0 0 235.53 168.06
  Q 235.50 164.46 233.24 162.01
  Q 231.96 160.63 230.65 159.71
  Q 229.22 158.69 227.24 158.39
  Q 222.78 157.71 219.28 160.10
  Q 218.67 160.52 218.71 161.26
  Q 218.74 161.80 218.20 161.74
  Q 217.50 161.67 217.10 162.24
  Q 215.45 164.60 214.98 167.47
  Q 214.87 168.09 215.46 168.31
  Q 215.81 168.44 215.50 168.65
  Z"
/>
<rect fill="#305790" x="-3.35" y="-0.45" transform="translate(243.39,162.51) rotate(-0.1)" width="6.70" height="0.90" rx="0.44"/>
<path fill="#acd1fd" d="
  M 180.08 174.20
  Q 178.39 175.11 178.70 176.82
  Q 178.80 177.40 178.34 177.76
  Q 178.03 177.99 177.65 177.89
  Q 177.01 177.71 176.80 177.08
  Q 176.70 176.78 176.52 176.51
  Q 176.29 176.17 175.87 176.02
  Q 173.94 175.36 173.23 177.11
  A 0.43 0.42 -72.3 0 1 172.74 177.37
  Q 172.20 177.25 171.73 176.92
  A 0.61 0.61 0.0 0 1 171.55 176.10
  C 172.47 174.60 171.03 172.69 169.35 173.11
  Q 168.91 173.22 168.59 172.91
  Q 168.21 172.55 168.22 172.01
  Q 168.24 171.46 168.75 171.27
  L 169.27 171.07
  Q 169.69 170.91 169.86 170.49
  Q 170.65 168.46 168.96 167.60
  Q 168.63 167.44 168.69 167.07
  Q 168.77 166.59 169.06 166.23
  Q 169.44 165.76 169.98 166.00
  C 171.54 166.70 173.26 165.20 172.80 163.60
  A 0.57 0.56 73.4 0 1 173.17 162.90
  L 173.80 162.71
  Q 174.33 162.55 174.59 163.04
  L 174.91 163.62
  Q 175.15 164.08 175.65 164.25
  Q 177.33 164.83 178.31 163.46
  Q 178.61 163.05 179.11 163.12
  Q 179.45 163.17 179.69 163.50
  Q 179.95 163.85 179.89 164.26
  Q 179.81 164.77 179.72 165.30
  Q 179.64 165.78 179.92 166.19
  Q 180.82 167.53 182.25 167.18
  Q 182.54 167.11 182.79 167.27
  Q 183.35 167.64 183.37 168.32
  Q 183.38 168.82 182.90 168.99
  Q 181.27 169.53 181.60 171.33
  Q 181.69 171.82 182.01 172.20
  L 182.70 173.03
  Q 183.10 173.49 182.78 174.01
  Q 182.59 174.30 182.30 174.48
  Q 181.93 174.70 181.54 174.49
  L 181.01 174.20
  Q 180.55 173.95 180.08 174.20
  Z
  M 179.43 170.23
  A 3.66 3.66 0.0 0 0 175.77 166.57
  A 3.66 3.66 0.0 0 0 172.11 170.23
  A 3.66 3.66 0.0 0 0 175.77 173.89
  A 3.66 3.66 0.0 0 0 179.43 170.23
  Z"
/>
<ellipse fill="#305790" cx="0.00" cy="0.00" transform="translate(225.38,165.02) rotate(90.5)" rx="2.59" ry="0.43"/>
<ellipse fill="#305790" cx="0.00" cy="0.00" transform="translate(229.76,168.51) rotate(-1.2)" rx="2.41" ry="0.44"/>
<rect fill="#305790" x="-6.04" y="-0.46" transform="translate(248.19,168.51) rotate(0.1)" width="12.08" height="0.92" rx="0.44"/>
<rect fill="#305790" x="-3.36" y="-0.46" transform="translate(243.39,174.48) rotate(-0.4)" width="6.72" height="0.92" rx="0.44"/>
<path fill="#acd1fd" d="
  M 298.85 193.80
  A 0.40 0.40 0.0 0 0 298.38 193.87
  L 290.36 201.83
  Q 289.22 202.96 288.05 201.85
  Q 287.90 201.71 287.74 201.56
  Q 286.60 200.51 287.70 199.42
  L 295.62 191.61
  A 0.84 0.83 -34.4 0 0 295.80 190.67
  C 292.98 184.19 297.33 177.32 304.52 178.62
  C 310.58 179.71 313.28 186.58 309.72 191.56
  C 307.19 195.09 302.54 195.74 298.85 193.80
  Z
  M 309.02 186.60
  A 5.95 5.95 0.0 0 0 303.07 180.65
  A 5.95 5.95 0.0 0 0 297.12 186.60
  A 5.95 5.95 0.0 0 0 303.07 192.55
  A 5.95 5.95 0.0 0 0 309.02 186.60
  Z"
/>
<rect fill="#acd1fd" x="-2.88" y="-0.69" transform="translate(302.99,187.08) rotate(-0.5)" width="5.76" height="1.38" rx="0.47"/>
<circle fill="#305790" cx="152.85" cy="188.98" r="1.51"/>
<rect fill="#305790" x="208.79" y="189.23" width="34.64" height="2.08" rx="1.02"/>
<path fill="#305790" d="
  M 226.56 206.99
  Q 226.38 207.86 225.57 208.02
  A 0.73 0.72 83.3 0 1 224.71 207.33
  L 224.68 206.28
  A 0.82 0.82 0.0 0 0 224.02 205.50
  Q 223.09 205.31 223.10 204.34
  Q 223.10 203.84 223.59 203.74
  L 225.12 203.44
  A 0.75 0.75 0.0 0 0 225.69 202.92
  Q 225.94 202.17 226.71 202.04
  Q 227.25 201.96 227.39 202.48
  Q 227.60 203.22 227.56 203.95
  Q 227.54 204.45 228.02 204.59
  Q 228.95 204.85 229.02 205.73
  A 0.73 0.72 88.1 0 1 228.30 206.51
  L 227.15 206.51
  A 0.59 0.59 0.0 0 0 226.56 206.99
  Z"
/>
<rect fill="#305790" x="122.39" y="204.13" width="54.52" height="1.92" rx="0.80"/>
<circle fill="#305790" cx="219.09" cy="217.62" r="1.00"/>
<path fill="#acd1fd" d="
  M 230.24 219.98
  Q 229.42 222.04 228.74 223.97
  Q 228.04 225.99 227.69 228.18
  Q 225.75 240.41 223.55 251.87
  Q 223.48 252.23 223.11 252.22
  Q 222.66 252.21 222.77 252.41
  Q 221.50 252.85 221.29 256.17
  A 0.30 0.30 0.0 0 0 221.61 256.49
  Q 221.89 256.47 222.48 256.15
  Q 222.86 257.26 222.48 258.62
  Q 222.01 260.30 222.03 260.96
  C 222.23 265.46 225.67 267.73 229.75 268.27
  Q 232.43 268.62 232.48 268.63
  Q 260.14 273.29 287.75 278.22
  Q 291.68 278.92 294.77 276.63
  C 295.41 276.15 295.53 275.39 296.24 275.04
  Q 296.63 274.84 296.92 275.17
  Q 297.28 275.58 298.32 275.41
  Q 298.24 288.09 296.38 300.52
  Q 295.77 304.61 291.72 305.31
  Q 290.07 305.60 286.00 305.65
  Q 222.34 306.41 170.75 306.22
  Q 170.14 306.21 168.28 305.70
  L 167.85 305.62
  Q 167.35 305.54 167.35 305.03
  L 167.25 260.01
  Q 167.25 259.23 166.47 259.12
  L 166.09 259.07
  A 0.43 0.43 0.0 0 0 165.60 259.47
  L 165.39 263.77
  A 0.92 0.92 0.0 0 1 164.47 264.64
  L 149.59 264.62
  Q 148.80 264.62 148.78 263.84
  L 148.67 260.18
  Q 148.65 259.39 147.88 259.21
  Q 147.64 259.15 147.39 259.20
  Q 146.74 259.32 146.74 259.99
  L 146.65 305.79
  C 144.00 305.24 141.49 303.48 141.38 300.69
  Q 140.31 274.43 139.76 249.41
  Q 139.44 234.67 140.31 224.49
  C 140.73 219.62 144.25 219.83 148.48 219.80
  Q 189.12 219.59 230.24 219.98
  Z
  M 213.58 247.48
  Q 214.16 247.43 214.48 246.94
  A 0.73 0.73 0.0 0 0 214.05 245.85
  Q 212.94 245.57 212.44 246.65
  Q 212.13 247.33 212.63 247.87
  Q 212.73 247.98 212.83 247.87
  Q 212.93 247.77 213.03 247.69
  Q 213.27 247.50 213.58 247.48
  Z"
/>
<path fill="#7fa7ca" fill-opacity="0.812" d="
  M 271.45 220.09
  L 285.23 227.19
  Q 286.39 227.78 285.09 227.87
  C 283.85 227.95 282.90 227.12 281.69 227.09
  Q 279.48 227.02 277.21 226.39
  Q 275.55 225.92 273.84 225.76
  Q 272.05 225.60 270.08 225.01
  Q 269.06 224.71 267.87 224.84
  Q 266.80 224.95 265.91 224.46
  Q 264.43 223.63 262.36 223.83
  Q 260.69 223.99 258.97 223.61
  Q 254.56 222.63 250.19 221.90
  Q 249.72 221.82 249.27 221.96
  Q 248.52 222.18 247.82 221.92
  Q 247.03 221.62 247.77 221.21
  Q 250.63 219.63 254.03 220.30
  L 252.59 220.84
  Q 251.80 221.13 252.62 221.36
  Q 252.95 221.45 253.29 221.38
  Q 253.84 221.27 254.25 221.58
  Q 254.68 221.91 254.97 221.45
  Q 255.39 220.79 256.32 220.10
  L 271.45 220.09
  Z"
/>
<path fill="#7fa7ca" fill-opacity="0.812" d="
  M 297.47 229.89
  Q 294.38 230.48 292.43 229.37
  Q 294.20 228.91 296.25 229.61
  Q 296.70 229.77 296.69 229.29
  L 296.60 226.22
  Q 296.59 225.65 296.06 225.41
  Q 295.24 225.04 294.63 224.24
  A 1.53 1.52 71.4 0 0 293.45 223.65
  L 286.50 223.56
  Q 285.40 223.54 286.36 224.08
  Q 287.25 224.57 288.25 224.76
  Q 288.72 224.84 288.98 225.25
  Q 289.54 226.13 288.60 227.18
  L 276.46 220.39
  Q 285.25 219.65 293.38 220.15
  C 298.66 220.47 297.82 226.31 297.47 229.89
  Z"
/>
<path fill="#304f78" fill-opacity="0.502" d="
  M 254.03 220.30
  Q 255.21 220.53 256.32 220.10
  Q 255.39 220.79 254.97 221.45
  Q 254.68 221.91 254.25 221.58
  Q 253.84 221.27 253.29 221.38
  Q 252.95 221.45 252.62 221.36
  Q 251.80 221.13 252.59 220.84
  L 254.03 220.30
  Z"
/>
<path fill="#304f78" fill-opacity="0.502" d="
  M 292.43 229.37
  L 288.60 227.18
  Q 289.54 226.13 288.98 225.25
  Q 288.72 224.84 288.25 224.76
  Q 287.25 224.57 286.36 224.08
  Q 285.40 223.54 286.50 223.56
  L 293.45 223.65
  A 1.53 1.52 71.4 0 1 294.63 224.24
  Q 295.24 225.04 296.06 225.41
  Q 296.59 225.65 296.60 226.22
  L 296.69 229.29
  Q 296.70 229.77 296.25 229.61
  Q 294.20 228.91 292.43 229.37
  Z"
/>
<path fill="#acd1fd" d="
  M 285.55 233.50
  L 286.00 233.71
  Q 286.57 233.97 286.07 234.36
  Q 285.94 234.46 285.90 234.63
  Q 285.83 234.89 285.97 235.12
  Q 287.72 237.96 291.39 237.32
  Q 291.89 237.23 292.20 237.64
  Q 293.28 239.09 292.23 240.68
  Q 291.96 241.09 291.95 241.58
  Q 291.91 243.59 292.28 244.72
  Q 292.78 246.26 294.98 247.07
  Q 295.67 248.19 295.45 249.50
  Q 293.61 260.30 291.91 270.31
  C 291.37 273.56 286.94 273.24 285.02 272.15
  Q 283.88 271.51 283.23 270.05
  Q 279.63 262.00 276.15 254.93
  A 0.71 0.70 -35.3 0 0 275.02 254.74
  Q 272.99 256.73 270.53 257.91
  L 268.00 259.60
  L 268.53 258.52
  Q 268.78 258.00 268.22 257.85
  L 267.54 257.66
  C 266.62 256.30 265.52 255.32 264.83 253.78
  Q 261.41 246.25 257.69 238.59
  A 0.41 0.40 55.6 0 0 257.06 238.47
  Q 246.78 247.83 235.71 257.91
  Q 233.70 259.74 231.40 261.24
  Q 230.94 261.55 230.88 262.10
  Q 230.83 262.71 230.25 262.84
  Q 229.80 262.94 229.37 262.70
  C 225.88 260.73 228.01 259.01 227.98 256.24
  Q 227.97 255.42 228.09 254.76
  Q 230.43 241.14 232.72 227.89
  Q 233.32 224.43 236.78 225.03
  L 285.55 233.50
  Z
  M 290.1610 242.4695
  A 4.51 4.27 -6.5 0 0 285.1966 238.7374
  A 4.51 4.27 -6.5 0 0 281.1990 243.4905
  A 4.51 4.27 -6.5 0 0 286.1634 247.2226
  A 4.51 4.27 -6.5 0 0 290.1610 242.4695
  Z"
/>
<path fill="#305790" d="
  M 127.49 233.19
  A 0.57 0.57 0.0 0 1 126.92 233.76
  L 120.26 233.76
  A 0.57 0.57 0.0 0 1 119.69 233.19
  L 119.69 226.55
  A 0.57 0.57 0.0 0 1 120.26 225.98
  L 126.92 225.98
  A 0.57 0.57 0.0 0 1 127.49 226.55
  L 127.49 233.19
  Z
  M 126.27 227.40
  A 0.41 0.41 0.0 0 0 125.86 226.99
  L 121.22 226.99
  A 0.41 0.41 0.0 0 0 120.81 227.40
  L 120.81 232.12
  A 0.41 0.41 0.0 0 0 121.22 232.53
  L 125.86 232.53
  A 0.41 0.41 0.0 0 0 126.27 232.12
  L 126.27 227.40
  Z"
/>
<rect fill="#305790" x="-3.35" y="-0.45" transform="translate(114.79,227.50) rotate(-0.2)" width="6.70" height="0.90" rx="0.43"/>
<rect fill="#305790" x="-5.93" y="-0.40" transform="translate(112.13,229.61) rotate(-0.1)" width="11.86" height="0.80" rx="0.33"/>
<rect fill="#305790" x="-4.36" y="-0.46" transform="translate(113.59,232.13) rotate(-0.1)" width="8.72" height="0.92" rx="0.27"/>
<rect fill="#305790" x="374.87" y="232.18" width="54.58" height="1.96" rx="0.91"/>
<path fill="#7fa7ca" fill-opacity="0.812" d="
  M 285.55 233.50
  L 295.11 235.38
  A 2.30 2.30 0.0 0 1 296.96 237.76
  L 296.74 241.76
  Q 296.73 242.06 296.43 242.12
  Q 296.30 242.15 296.17 242.12
  Q 296.11 242.10 296.10 242.17
  Q 295.80 244.13 295.79 246.46
  Q 295.78 246.78 295.67 247.01
  Q 295.28 247.76 294.98 247.07
  Q 292.78 246.26 292.28 244.72
  Q 291.91 243.59 291.95 241.58
  Q 291.96 241.09 292.23 240.68
  Q 293.28 239.09 292.20 237.64
  Q 291.89 237.23 291.39 237.32
  Q 287.72 237.96 285.97 235.12
  Q 285.83 234.89 285.90 234.63
  Q 285.94 234.46 286.07 234.36
  Q 286.57 233.97 286.00 233.71
  L 285.55 233.50
  Z"
/>
<path fill="#305790" d="
  M 290.1610 242.4695
  A 4.51 4.27 -6.5 0 1 286.1634 247.2226
  A 4.51 4.27 -6.5 0 1 281.1990 243.4905
  A 4.51 4.27 -6.5 0 1 285.1966 238.7374
  A 4.51 4.27 -6.5 0 1 290.1610 242.4695
  Z
  M 288.87 243.02
  A 3.18 3.18 0.0 0 0 285.69 239.84
  A 3.18 3.18 0.0 0 0 282.51 243.02
  A 3.18 3.18 0.0 0 0 285.69 246.20
  A 3.18 3.18 0.0 0 0 288.87 243.02
  Z"
/>
<path fill="#acd1fd" d="
  M 326.09 261.81
  Q 324.99 261.61 323.94 261.91
  C 317.63 260.99 318.94 254.95 318.78 250.56
  Q 318.62 246.37 319.94 244.52
  Q 322.65 240.72 327.64 242.48
  C 330.42 243.46 331.03 245.95 331.17 248.64
  Q 331.49 254.56 331.16 256.98
  Q 330.57 261.39 326.09 261.81
  Z"
/>
<ellipse fill="#305790" cx="0.00" cy="0.00" transform="translate(314.62,245.10) rotate(20.4)" rx="1.33" ry="0.53"/>
<ellipse fill="#305790" cx="0.00" cy="0.00" transform="translate(333.78,246.62) rotate(-18.9)" rx="1.23" ry="0.51"/>
<ellipse fill="#305790" cx="0.00" cy="0.00" transform="translate(314.19,251.42) rotate(8.5)" rx="1.60" ry="0.54"/>
<ellipse fill="#305790" cx="0.00" cy="0.00" transform="translate(334.16,251.26) rotate(-3.4)" rx="1.31" ry="0.58"/>
<ellipse fill="#305790" cx="0.00" cy="0.00" transform="translate(334.53,256.25) rotate(12.5)" rx="1.50" ry="0.58"/>
<ellipse fill="#305790" cx="0.00" cy="0.00" transform="translate(314.80,256.53) rotate(-6.4)" rx="1.27" ry="0.52"/>
<path fill="#304f78" fill-opacity="0.502" d="
  M 267.54 257.66
  L 268.22 257.85
  Q 268.78 258.00 268.53 258.52
  L 268.00 259.60
  Q 266.94 258.47 267.54 257.66
  Z"
/>
<path fill="#305790" d="
  M 123.48 262.50
  L 123.33 263.35
  Q 123.23 263.92 122.67 264.03
  Q 122.34 264.09 122.06 263.96
  Q 121.59 263.73 121.54 263.21
  L 121.47 262.53
  Q 121.42 261.95 120.83 261.96
  Q 119.91 261.99 119.45 261.23
  Q 119.21 260.84 119.55 260.54
  Q 120.11 260.03 120.85 259.92
  A 0.76 0.75 86.7 0 0 121.48 259.21
  L 121.50 258.81
  Q 121.52 258.28 122.01 258.08
  Q 122.43 257.90 122.85 257.99
  A 0.72 0.72 0.0 0 1 123.42 258.75
  Q 123.31 260.10 124.67 260.09
  A 0.85 0.84 -9.7 0 1 125.47 260.65
  Q 125.62 261.07 125.37 261.45
  Q 125.05 261.94 124.49 261.96
  Q 124.26 261.97 124.05 261.99
  A 0.62 0.61 2.9 0 0 123.48 262.50
  Z"
/>
<ellipse fill="#305790" cx="0.00" cy="0.00" transform="translate(391.72,267.79) rotate(-1.6)" rx="1.90" ry="1.58"/>
<rect fill="#acd1fd" x="148.80" y="266.59" width="16.60" height="7.18" rx="0.58"/>
<rect fill="#acd1fd" x="-8.32" y="-3.60" transform="translate(157.08,279.32) rotate(0.2)" width="16.64" height="7.20" rx="0.64"/>
<path fill="#04d663" d="
  M 120.28 312.73
  L 114.36 312.76
  L 113.53 311.97
  Q 113.08 311.55 113.61 311.23
  Q 114.04 310.97 114.15 310.47
  Q 114.27 309.92 113.70 309.83
  Q 110.67 309.35 107.99 307.65
  Q 106.55 306.75 105.94 305.31
  Q 104.96 303.00 104.21 300.87
  C 103.66 299.28 103.93 297.29 103.90 295.59
  C 103.86 293.46 104.65 290.78 107.08 290.42
  Q 109.04 290.13 109.95 292.07
  Q 111.29 294.92 111.70 298.02
  Q 111.97 300.09 113.06 301.84
  Q 114.34 303.88 114.40 301.48
  L 114.52 296.55
  Q 114.54 295.92 114.06 295.50
  Q 113.60 295.09 114.02 294.69
  Q 114.40 294.31 114.42 293.78
  Q 114.51 291.77 114.88 289.44
  C 115.12 287.90 116.13 287.36 117.21 286.45
  Q 117.61 286.11 118.06 286.41
  Q 120.34 287.97 120.63 290.93
  Q 120.94 294.12 122.17 291.16
  C 122.74 289.78 122.96 288.75 122.76 287.24
  Q 122.32 283.97 123.38 280.86
  C 124.01 279.01 125.82 279.42 126.96 278.19
  Q 127.35 277.78 127.47 278.33
  Q 127.68 279.29 128.35 279.98
  C 130.56 282.26 130.85 287.95 130.45 290.73
  Q 129.28 298.72 121.57 299.76
  Q 121.07 299.83 120.99 300.33
  Q 120.72 302.11 121.38 303.52
  Q 121.49 303.76 121.36 303.98
  Q 120.80 304.91 120.77 306.00
  Q 120.66 309.23 120.28 312.73
  Z"
/>
<rect fill="#acd1fd" x="148.74" y="284.77" width="16.66" height="7.24" rx="0.61"/>
<circle fill="#305790" cx="91.33" cy="290.61" r="1.50"/>
<rect fill="#acd1fd" x="-8.25" y="-3.54" transform="translate(157.02,297.54) rotate(-0.1)" width="16.50" height="7.08" rx="0.53"/>
<path fill="#acd1fd" d="
  M 164.56 304.96
  Q 163.04 304.50 161.39 305.05
  L 154.77 305.64
  L 150.31 305.69
  Q 148.51 305.02 148.82 303.64
  A 0.70 0.69 6.6 0 1 149.51 303.10
  L 164.25 303.30
  A 0.91 0.90 -4.6 0 1 165.13 304.04
  Q 165.29 304.87 164.56 304.96
  Z"
/>
<path fill="#305790" d="
  M 161.39 305.05
  Q 163.07 304.96 163.54 305.42
  Q 163.90 305.77 163.39 305.77
  L 154.77 305.64
  L 161.39 305.05
  Z"
/>
<path fill="#acd1fd" d="
  M 432.98 340.64
  L 431.29 340.25
  Q 430.22 340.00 430.16 339.00
  Q 429.64 331.02 429.93 323.18
  A 0.65 0.65 0.0 0 0 429.28 322.51
  L 406.18 322.51
  A 0.57 0.57 0.0 0 0 405.61 323.07
  L 405.43 339.09
  A 0.89 0.88 -89.7 0 1 404.55 339.97
  Q 402.39 339.99 402.12 339.99
  Q 401.31 340.00 401.30 339.19
  L 401.07 323.04
  Q 401.06 322.51 400.54 322.51
  L 396.99 322.50
  Q 396.23 322.50 396.23 321.74
  L 396.23 308.76
  Q 396.23 308.24 396.74 308.24
  L 399.71 308.23
  Q 400.21 308.23 400.43 307.78
  L 400.58 307.48
  Q 400.82 306.97 401.39 306.96
  L 406.16 306.88
  Q 406.67 306.87 406.96 307.29
  L 407.29 307.78
  Q 407.59 308.23 408.13 308.23
  L 427.97 308.22
  Q 428.47 308.22 428.65 307.76
  Q 428.78 307.46 429.03 307.28
  Q 429.31 307.08 429.64 307.04
  Q 432.00 306.81 434.48 306.91
  Q 435.07 306.93 435.31 307.48
  Q 435.49 307.91 436.09 308.09
  A 1.81 0.93 36.3 0 0 436.34 308.13
  L 438.85 308.28
  Q 439.39 308.32 439.39 308.85
  L 439.29 321.85
  Q 439.28 322.49 438.65 322.49
  L 435.10 322.52
  Q 434.48 322.53 434.47 323.15
  L 434.25 339.01
  Q 434.24 339.51 433.87 339.84
  L 432.98 340.64
  Z
  M 406.18 310.09
  A 0.47 0.47 0.0 0 0 405.72 309.50
  L 401.34 309.51
  A 0.47 0.47 0.0 0 0 400.88 309.87
  L 398.28 320.56
  A 0.47 0.47 0.0 0 0 398.72 321.15
  L 402.95 321.26
  A 0.47 0.47 0.0 0 0 403.42 320.91
  L 406.18 310.09
  Z
  M 408.82 320.42
  A 0.66 0.66 0.0 0 0 409.47 321.24
  L 413.48 321.21
  A 0.66 0.66 0.0 0 0 414.11 320.71
  L 416.72 310.36
  A 0.66 0.66 0.0 0 0 416.07 309.54
  L 412.01 309.59
  A 0.66 0.66 0.0 0 0 411.38 310.09
  L 408.82 320.42
  Z
  M 427.35 310.40
  A 0.71 0.71 0.0 0 0 426.66 309.51
  L 422.63 309.52
  A 0.71 0.71 0.0 0 0 421.94 310.06
  L 419.48 320.30
  A 0.71 0.71 0.0 0 0 420.16 321.18
  L 424.04 321.21
  A 0.71 0.71 0.0 0 0 424.74 320.68
  L 427.35 310.40
  Z
  M 437.83 310.31
  A 0.63 0.63 0.0 0 0 437.23 309.53
  L 433.22 309.48
  A 0.63 0.63 0.0 0 0 432.60 309.95
  L 429.91 320.46
  A 0.63 0.63 0.0 0 0 430.53 321.25
  L 434.63 321.13
  A 0.63 0.63 0.0 0 0 435.23 320.66
  L 437.83 310.31
  Z"
/>
<path fill="#acd1fd" d="
  M 386.03 317.59
  L 377.50 317.65
  L 379.22 311.94
  Q 379.43 311.24 380.15 311.24
  L 383.32 311.26
  Q 384.04 311.26 384.25 311.95
  L 386.03 317.59
  Z"
/>
<rect fill="#304f78" fill-opacity="0.502" x="103.02" y="314.33" width="27.88" height="4.86" rx="0.76"/>
<rect fill="#305790" x="68.85" y="317.21" width="28.18" height="2.00" rx="0.82"/>
<path fill="#305790" d="
  M 377.50 317.65
  L 386.03 317.59
  L 388.17 324.72
  L 375.31 324.58
  L 377.50 317.65
  Z"
/>
<path fill="#305790" d="
  M 246.97 328.98
  Q 246.89 329.32 246.71 329.62
  Q 246.46 329.99 246.01 330.02
  Q 245.79 330.04 245.58 329.97
  A 0.92 0.92 0.0 0 1 244.99 328.86
  Q 245.29 327.68 244.14 327.32
  Q 243.55 327.14 243.56 326.53
  Q 243.57 325.91 244.11 325.62
  A 0.90 0.89 -46.8 0 1 244.90 325.59
  Q 245.87 326.03 246.10 324.99
  Q 246.22 324.42 246.71 324.16
  A 0.76 0.76 0.0 0 1 247.83 324.89
  Q 247.71 326.39 249.03 327.12
  Q 249.82 327.56 249.19 328.20
  Q 248.61 328.77 247.83 328.50
  Q 247.14 328.27 246.97 328.98
  Z"
/>
<path fill="#305790" d="
  M 274.0917 331.2066
  A 0.49 0.49 0.0 0 1 273.6034 331.6984
  L 266.9435 331.7216
  A 0.49 0.49 0.0 0 1 266.4518 331.2333
  L 266.4283 324.5134
  A 0.49 0.49 0.0 0 1 266.9166 324.0216
  L 273.5765 323.9984
  A 0.49 0.49 0.0 0 1 274.0682 324.4867
  L 274.0917 331.2066
  Z
  M 273.1241 325.5149
  A 0.51 0.51 0.0 0 0 272.6150 325.0041
  L 267.9750 324.9960
  A 0.51 0.51 0.0 0 0 267.4641 325.5051
  L 267.4559 330.2051
  A 0.51 0.51 0.0 0 0 267.9650 330.7159
  L 272.6050 330.7240
  A 0.51 0.51 0.0 0 0 273.1159 330.2149
  L 273.1241 325.5149
  Z"
/>
<path fill="#acd1fd" d="
  M 375.31 324.58
  L 388.17 324.72
  L 389.91 330.66
  Q 389.46 331.15 389.25 331.15
  Q 382.13 331.31 375.01 331.15
  Q 373.73 331.13 373.91 329.75
  L 375.31 324.58
  Z"
/>
<rect fill="#305790" x="-3.30" y="-0.39" transform="translate(279.11,325.48) rotate(0.6)" width="6.60" height="0.78" rx="0.37"/>
<rect fill="#305790" x="-5.88" y="-0.37" transform="translate(281.74,327.70) rotate(0.3)" width="11.76" height="0.74" rx="0.35"/>
<path fill="#04d663" d="
  M 321.23 330.89
  L 320.51 339.54
  A 1.34 1.33 1.9 0 1 319.20 340.76
  L 303.54 340.94
  Q 302.29 337.87 302.75 335.50
  Q 303.68 330.68 308.99 330.95
  A 1.03 0.99 -64.7 0 0 309.77 330.65
  C 312.39 328.01 316.28 329.26 317.56 332.48
  Q 317.77 332.99 318.24 332.70
  L 321.23 330.89
  Z"
/>
<rect fill="#305790" x="-4.33" y="-0.36" transform="translate(280.32,330.16) rotate(-0.1)" width="8.66" height="0.72" rx="0.26"/>
<path fill="#305790" d="
  M 373.91 329.75
  Q 373.73 331.13 375.01 331.15
  Q 382.13 331.31 389.25 331.15
  Q 389.46 331.15 389.91 330.66
  L 392.24 337.88
  L 371.12 337.88
  L 373.91 329.75
  Z"
/>
<path fill="#04d663" d="
  M 300.45 335.90
  L 299.53 336.41
  Q 298.89 336.77 298.76 336.05
  Q 298.58 334.98 299.01 334.10
  Q 299.28 333.53 299.53 334.11
  Q 299.74 334.60 299.53 335.15
  Q 299.31 335.75 299.94 335.89
  Q 300.26 335.96 300.48 335.71
  Q 300.65 335.53 300.66 335.28
  Q 300.69 334.15 301.32 333.36
  Q 301.79 332.76 301.73 333.52
  Q 301.65 334.62 301.27 335.77
  Q 301.19 336.03 300.92 336.00
  Q 300.73 335.98 300.56 335.90
  Q 300.51 335.87 300.45 335.90
  Z"
/>
<path fill="#304f78" fill-opacity="0.502" d="
  M 392.24 337.88
  Q 394.55 337.55 393.84 340.89
  L 370.27 340.91
  Q 370.48 339.73 369.79 339.20
  Q 369.39 338.90 369.76 338.57
  Q 370.20 338.18 371.12 337.88
  L 392.24 337.88
  Z"
/>
<path fill="#305790" d="
  M 223.26 377.75
  L 223.22 373.70
  Q 223.22 373.33 223.59 373.31
  L 225.23 373.24
  Q 225.99 373.21 225.99 373.98
  L 225.98 386.95
  Q 225.97 387.93 225.00 387.82
  Q 224.15 387.73 223.62 387.14
  Q 223.23 386.72 222.75 387.05
  C 220.22 388.85 217.29 387.83 216.66 384.77
  C 215.85 380.87 217.62 374.90 222.65 378.08
  Q 223.26 378.47 223.26 377.75
  Z
  M 223.4179 381.4464
  A 1.93 1.93 0.0 0 0 221.4846 379.5197
  L 221.1646 379.5203
  A 1.93 1.93 0.0 0 0 219.2379 381.4536
  L 219.2421 383.8336
  A 1.93 1.93 0.0 0 0 221.1754 385.7603
  L 221.4954 385.7597
  A 1.93 1.93 0.0 0 0 223.4221 383.8264
  L 223.4179 381.4464
  Z"
/>
<circle fill="#305790" cx="284.39" cy="374.64" r="1.47"/>
<path fill="#305790" d="
  M 126.75 378.76
  L 124.60 387.09
  A 0.88 0.86 -82.9 0 1 123.78 387.74
  L 121.94 387.75
  Q 121.26 387.76 121.09 387.10
  L 117.91 374.73
  Q 117.78 374.26 118.27 374.26
  L 120.01 374.26
  A 0.66 0.66 0.0 0 1 120.65 374.77
  L 122.83 383.98
  Q 122.95 384.48 123.08 383.99
  L 125.45 374.81
  A 0.76 0.74 -82.4 0 1 126.17 374.25
  L 127.74 374.25
  Q 128.25 374.25 128.38 374.75
  L 130.78 384.00
  Q 130.93 384.57 131.06 384.00
  L 133.15 374.87
  Q 133.28 374.29 133.87 374.28
  L 135.53 374.25
  Q 136.08 374.24 135.94 374.77
  L 132.76 387.19
  Q 132.62 387.73 132.06 387.73
  L 129.96 387.74
  A 0.70 0.69 83.0 0 1 129.29 387.21
  L 127.11 378.76
  Q 126.93 378.05 126.75 378.76
  Z"
/>
<path fill="#305790" d="
  M 195.66 385.54
  L 196.24 385.51
  A 2.26 2.25 89.1 0 0 198.41 383.26
  L 198.42 374.79
  Q 198.42 374.26 198.95 374.26
  L 200.75 374.27
  Q 201.21 374.27 201.22 374.74
  Q 201.29 378.96 201.17 383.39
  C 201.01 389.46 190.23 389.61 190.21 383.35
  Q 190.19 378.96 190.18 374.82
  Q 190.17 374.27 190.72 374.27
  L 192.47 374.26
  Q 192.94 374.25 192.94 374.72
  L 192.92 382.91
  Q 192.92 385.65 195.66 385.54
  Z"
/>
<path fill="#305790" d="
  M 265.72 379.27
  Q 265.66 377.66 265.14 379.18
  L 262.47 387.12
  Q 262.26 387.74 261.61 387.73
  L 260.38 387.72
  Q 259.74 387.72 259.55 387.11
  L 257.09 379.19
  Q 256.41 377.01 256.43 379.30
  L 256.50 387.09
  Q 256.51 387.69 255.91 387.71
  L 254.50 387.75
  A 0.50 0.50 0.0 0 1 253.99 387.25
  L 253.99 374.77
  Q 253.99 374.28 254.48 374.28
  L 257.28 374.28
  Q 257.82 374.28 257.98 374.79
  L 260.80 383.75
  Q 261.09 384.67 261.40 383.75
  L 264.41 374.81
  A 0.82 0.81 9.6 0 1 265.18 374.27
  L 267.87 374.28
  A 0.59 0.58 90.0 0 1 268.45 374.87
  L 268.44 386.91
  A 0.84 0.83 0.3 0 1 267.59 387.74
  L 266.47 387.73
  Q 265.76 387.73 265.78 387.01
  Q 265.88 382.96 265.72 379.27
  Z"
/>
<path fill="#305790" d="
  M 301.10 379.53
  Q 300.81 379.61 300.58 379.48
  Q 299.93 379.09 300.52 378.62
  L 301.94 377.49
  A 1.18 1.18 0.0 0 0 302.39 376.65
  Q 302.49 375.20 303.94 375.18
  Q 304.50 375.18 304.52 375.73
  L 304.58 376.93
  Q 304.61 377.50 305.18 377.50
  L 306.75 377.50
  Q 307.50 377.50 307.51 378.25
  L 307.52 379.24
  A 0.51 0.50 90.0 0 1 307.01 379.76
  L 305.22 379.74
  Q 304.51 379.73 304.54 380.45
  Q 304.61 382.25 304.53 383.88
  Q 304.40 386.51 307.01 385.62
  A 0.46 0.46 0.0 0 1 307.62 386.10
  L 307.52 387.05
  Q 307.47 387.60 306.94 387.74
  C 300.57 389.41 301.93 383.65 301.80 380.04
  A 0.55 0.55 0.0 0 0 301.10 379.53
  Z"
/>
<path fill="#305790" d="
  M 140.49 383.49
  Q 139.59 383.49 139.95 384.31
  Q 140.54 385.62 142.35 385.82
  A 2.20 2.05 41.3 0 0 143.00 385.80
  L 145.81 385.30
  A 0.15 0.15 0.0 0 1 145.99 385.43
  Q 146.11 386.29 145.89 387.14
  Q 145.83 387.36 145.62 387.42
  C 133.66 391.09 135.39 374.56 143.76 377.56
  Q 146.91 378.69 146.62 382.93
  Q 146.58 383.50 146.01 383.50
  L 140.49 383.49
  Z
  M 140.10 381.53
  L 143.94 381.51
  A 0.21 0.21 0.0 0 0 144.15 381.30
  L 144.15 381.20
  A 1.99 1.95 -0.2 0 0 142.16 379.26
  L 141.88 379.26
  A 1.99 1.95 -0.2 0 0 139.89 381.22
  L 139.89 381.32
  A 0.21 0.21 0.0 0 0 140.10 381.53
  Z"
/>
<path fill="#305790" d="
  M 159.45 386.57
  C 154.44 391.58 149.93 382.82 155.69 381.58
  Q 157.26 381.25 158.87 381.26
  Q 159.35 381.26 159.42 380.79
  Q 159.53 380.11 158.91 379.82
  Q 157.55 379.17 156.11 379.83
  Q 155.20 380.24 154.58 379.48
  L 154.37 379.22
  Q 153.71 378.42 154.66 377.99
  C 157.08 376.91 162.02 376.64 162.19 380.42
  Q 162.34 383.72 162.25 387.15
  Q 162.24 387.70 161.70 387.79
  Q 160.26 388.04 159.98 386.73
  Q 159.86 386.16 159.45 386.57
  Z
  M 159.5232 383.5856
  A 1.99 1.31 -22.9 0 0 157.1802 383.1532
  A 1.99 1.31 -22.9 0 0 155.8568 385.1344
  A 1.99 1.31 -22.9 0 0 158.1998 385.5668
  A 1.99 1.31 -22.9 0 0 159.5232 383.5856
  Z"
/>
<path fill="#305790" d="
  M 168.10 378.89
  Q 169.18 377.57 170.98 377.16
  A 0.64 0.64 0.0 0 1 171.76 377.74
  L 171.88 379.18
  Q 171.93 379.81 171.29 379.80
  C 166.63 379.70 168.24 384.49 167.97 387.35
  Q 167.93 387.72 167.56 387.72
  L 165.48 387.73
  Q 165.24 387.73 165.24 387.48
  L 165.24 378.23
  Q 165.24 377.44 166.02 377.48
  L 166.66 377.52
  Q 167.29 377.55 167.48 378.16
  L 167.66 378.80
  A 0.26 0.25 56.2 0 0 168.10 378.89
  Z"
/>
<path fill="#305790" d="
  M 176.79 383.50
  Q 175.72 383.51 176.32 384.39
  L 176.68 384.93
  A 2.20 2.20 0.0 0 0 178.92 385.87
  L 182.02 385.29
  A 0.23 0.23 0.0 0 1 182.29 385.52
  L 182.25 387.02
  Q 182.24 387.28 182.00 387.37
  Q 179.21 388.39 176.54 387.59
  C 172.27 386.32 172.29 379.03 176.37 377.61
  C 180.28 376.25 183.25 378.78 182.85 382.96
  Q 182.79 383.49 182.26 383.49
  L 176.79 383.50
  Z
  M 176.47 381.53
  L 180.09 381.49
  A 0.23 0.23 0.0 0 0 180.32 381.26
  L 180.32 381.14
  A 1.91 1.91 0.0 0 0 178.39 379.25
  L 178.13 379.25
  A 1.91 1.91 0.0 0 0 176.24 381.18
  L 176.24 381.30
  A 0.23 0.23 0.0 0 0 176.47 381.53
  Z"
/>
<path fill="#305790" d="
  M 207.34 378.58
  Q 210.63 375.81 213.49 378.69
  Q 213.89 379.10 213.90 379.67
  L 214.01 387.35
  Q 214.02 387.73 213.65 387.72
  L 211.74 387.72
  Q 211.25 387.72 211.25 387.23
  L 211.25 381.12
  Q 211.25 379.73 209.87 379.51
  Q 209.62 379.47 209.38 379.48
  Q 207.30 379.58 207.29 381.66
  L 207.25 387.24
  A 0.48 0.48 0.0 0 1 206.76 387.72
  L 204.97 387.70
  A 0.48 0.48 0.0 0 1 204.50 387.22
  L 204.49 378.22
  Q 204.49 377.62 205.08 377.49
  Q 206.53 377.16 206.93 378.46
  Q 207.05 378.82 207.34 378.58
  Z"
/>
<path fill="#305790" d="
  M 231.36 384.41
  L 231.78 385.08
  Q 232.44 386.14 233.67 385.92
  L 237.04 385.32
  Q 237.29 385.27 237.29 385.53
  L 237.25 386.97
  Q 237.25 387.27 236.96 387.37
  C 226.00 391.22 225.54 375.54 234.86 377.53
  Q 236.65 377.91 237.33 379.61
  Q 237.79 380.73 237.94 382.18
  Q 238.08 383.48 236.77 383.48
  L 231.88 383.49
  Q 230.79 383.49 231.36 384.41
  Z
  M 231.68 381.53
  L 235.10 381.51
  A 0.25 0.25 0.0 0 0 235.34 381.26
  L 235.34 381.12
  A 1.89 1.84 89.7 0 0 233.49 379.24
  L 233.25 379.24
  A 1.89 1.84 89.7 0 0 231.42 381.14
  L 231.42 381.28
  A 0.25 0.25 0.0 0 0 231.68 381.53
  Z"
/>
<path fill="#305790" d="
  M 243.21 378.82
  Q 244.33 377.45 246.10 377.17
  A 0.60 0.59 -5.8 0 1 246.78 377.72
  L 246.85 379.14
  A 0.66 0.66 0.0 0 1 246.11 379.83
  C 241.91 379.34 243.06 385.00 243.01 387.26
  Q 243.00 387.73 242.54 387.73
  L 240.75 387.74
  Q 240.24 387.75 240.24 387.25
  L 240.24 378.11
  Q 240.24 377.46 240.89 377.49
  L 241.68 377.53
  Q 242.32 377.56 242.47 378.18
  L 242.59 378.68
  A 0.36 0.35 -31.8 0 0 243.21 378.82
  Z"
/>
<path fill="#305790" d="
  M 277.24 386.73
  C 276.84 387.31 276.19 387.65 275.51 387.81
  C 270.61 389.05 269.41 382.61 273.49 381.66
  Q 275.23 381.25 276.91 381.27
  Q 277.62 381.28 277.49 380.58
  Q 277.46 380.44 277.44 380.29
  A 0.72 0.72 0.0 0 0 277.00 379.75
  Q 275.56 379.17 274.07 379.83
  Q 273.18 380.22 272.57 379.47
  L 272.36 379.20
  Q 271.70 378.37 272.68 377.97
  C 275.19 376.93 280.08 376.68 280.21 380.45
  Q 280.32 383.72 280.27 387.10
  Q 280.26 387.76 279.61 387.83
  Q 278.31 387.98 278.05 386.89
  Q 277.81 385.91 277.24 386.73
  Z
  M 277.5483 383.6427
  A 2.02 1.32 -20.8 0 0 275.1913 383.1260
  A 2.02 1.32 -20.8 0 0 273.7717 385.0773
  A 2.02 1.32 -20.8 0 0 276.1287 385.5940
  A 2.02 1.32 -20.8 0 0 277.5483 383.6427
  Z"
/>
<path fill="#305790" d="
  M 292.00 378.29
  Q 292.35 377.87 292.92 377.67
  C 300.09 375.14 298.39 383.67 298.54 387.16
  Q 298.57 387.73 297.99 387.74
  L 296.26 387.74
  A 0.50 0.50 0.0 0 1 295.76 387.25
  L 295.73 380.90
  Q 295.72 379.66 294.50 379.50
  Q 293.95 379.42 293.41 379.59
  Q 291.80 380.08 291.79 381.76
  L 291.76 387.22
  Q 291.76 387.69 291.28 387.70
  L 289.50 387.74
  Q 289.01 387.75 289.01 387.25
  L 288.99 378.01
  A 0.53 0.51 -9.5 0 1 289.35 377.52
  Q 290.71 377.09 291.25 378.20
  Q 291.55 378.82 292.00 378.29
  Z"
/>
<path fill="#305790" d="
  M 312.52 383.49
  Q 311.34 383.49 312.05 384.43
  L 312.41 384.89
  Q 313.04 385.73 314.09 385.78
  Q 315.92 385.86 317.52 385.28
  Q 318.02 385.10 318.02 385.64
  Q 318.01 386.12 318.01 386.71
  A 0.82 0.81 -9.6 0 1 317.46 387.48
  C 314.84 388.39 310.83 388.23 309.62 385.22
  C 306.08 376.35 319.38 373.84 318.60 382.96
  Q 318.56 383.50 318.02 383.50
  L 312.52 383.49
  Z
  M 312.14 381.53
  L 315.98 381.53
  A 0.21 0.21 0.0 0 0 316.19 381.32
  L 316.19 381.20
  A 1.99 1.95 -0.0 0 0 314.20 379.25
  L 313.92 379.25
  A 1.99 1.95 0.0 0 0 311.93 381.20
  L 311.93 381.32
  A 0.21 0.21 0.0 0 0 312.14 381.53
  Z"
/>
<path fill="#305790" d="
  M 323.69 378.36
  C 325.54 377.03 328.32 376.65 329.63 378.67
  C 330.75 380.40 330.25 384.88 330.27 387.26
  Q 330.28 387.76 329.77 387.76
  L 327.99 387.73
  Q 327.50 387.72 327.50 387.24
  L 327.50 381.21
  Q 327.50 379.14 325.46 379.51
  L 325.14 379.57
  Q 323.60 379.85 323.58 381.41
  L 323.51 387.25
  Q 323.50 387.74 323.00 387.74
  L 321.25 387.74
  Q 320.75 387.74 320.75 387.25
  L 320.74 378.33
  A 1.00 0.99 2.4 0 1 321.82 377.34
  Q 322.74 377.42 322.92 378.09
  Q 323.10 378.79 323.69 378.36
  Z"
/>
<path fill="#305790" d="
  M 338.63 381.21
  Q 339.37 381.17 339.02 380.52
  L 338.89 380.27
  Q 338.46 379.47 337.55 379.50
  Q 336.25 379.54 335.03 379.98
  Q 334.45 380.19 334.17 379.64
  L 333.74 378.76
  Q 333.49 378.25 334.00 378.02
  C 336.82 376.74 341.68 376.64 341.75 380.89
  Q 341.81 384.00 341.73 387.21
  Q 341.72 387.76 341.17 387.82
  Q 339.86 387.98 339.51 386.70
  A 0.32 0.32 0.0 0 0 338.96 386.57
  Q 337.18 388.48 334.68 387.80
  C 331.60 386.97 331.91 382.13 335.26 381.57
  Q 336.99 381.28 338.63 381.21
  Z
  M 339.0553 383.5728
  A 1.93 1.34 -23.1 0 0 336.7543 383.0974
  A 1.93 1.34 -23.1 0 0 335.5047 385.0872
  A 1.93 1.34 -23.1 0 0 337.8057 385.5626
  A 1.93 1.34 -23.1 0 0 339.0553 383.5728
  Z"
/>
<path fill="#305790" d="
  M 347.82 378.33
  C 350.09 376.13 354.03 377.25 354.20 380.58
  Q 354.36 383.64 354.25 387.32
  Q 354.24 387.76 353.80 387.76
  L 351.99 387.73
  Q 351.50 387.72 351.50 387.24
  L 351.50 381.21
  Q 351.50 379.14 349.46 379.51
  L 349.14 379.57
  Q 347.60 379.84 347.58 381.41
  L 347.51 387.24
  Q 347.50 387.74 347.01 387.73
  L 345.24 387.73
  Q 344.76 387.73 344.76 387.25
  L 344.74 378.24
  Q 344.74 377.71 345.23 377.53
  Q 346.47 377.09 347.07 378.22
  Q 347.37 378.77 347.82 378.33
  Z"
/>
<path fill="#305790" d="
  M 360.65 385.54
  Q 362.22 386.09 363.83 385.32
  Q 364.92 384.79 364.66 385.98
  L 364.53 386.57
  Q 364.31 387.57 363.31 387.77
  Q 358.00 388.84 356.89 384.70
  C 355.51 379.60 358.94 375.99 364.11 377.64
  Q 365.21 377.99 364.57 378.96
  Q 364.52 379.04 364.49 379.12
  Q 364.13 380.24 363.01 379.81
  C 359.34 378.37 359.12 382.37 359.79 384.63
  A 1.40 1.39 1.8 0 0 360.65 385.54
  Z"
/>
<path fill="#305790" d="
  M 370.01 383.51
  Q 369.00 383.51 369.41 384.43
  Q 369.84 385.36 371.07 385.72
  A 0.80 0.04 16.2 0 0 371.77 385.89
  L 375.02 385.27
  Q 375.32 385.22 375.31 385.52
  L 375.25 386.97
  Q 375.24 387.29 374.95 387.40
  C 370.43 389.06 365.76 387.33 366.44 381.65
  C 367.20 375.23 376.58 375.83 375.89 382.94
  Q 375.84 383.50 375.28 383.50
  L 370.01 383.51
  Z
  M 369.67 381.48
  L 373.03 381.52
  A 0.25 0.25 0.0 0 0 373.28 381.27
  L 373.28 381.12
  A 1.86 1.82 -89.3 0 0 371.48 379.24
  L 371.26 379.24
  A 1.86 1.82 -89.3 0 0 369.42 381.08
  L 369.42 381.23
  A 0.25 0.25 0.0 0 0 369.67 381.48
  Z"
/>
<rect fill="#305790" x="282.99" y="377.50" width="2.78" height="10.22" rx="0.38"/>
<circle fill="#305790" cx="379.46" cy="386.36" r="1.62"/>
<rect fill="#305790" x="210.12" y="398.74" width="1.38" height="10.04" rx="0.63"/>
<rect fill="#305790" x="213.87" y="398.77" width="1.40" height="9.96" rx="0.45"/>
<path fill="#305790" d="
  M 222.99 401.90
  C 227.18 399.27 229.23 408.42 224.40 408.99
  Q 223.73 409.07 223.23 408.62
  Q 222.43 407.91 221.59 408.59
  Q 220.86 409.19 220.86 408.25
  L 220.85 399.20
  A 0.43 0.43 0.0 0 1 221.30 398.77
  L 221.92 398.80
  Q 222.26 398.82 222.26 399.16
  L 222.25 401.49
  Q 222.25 402.36 222.99 401.90
  Z
  M 224.0067 407.8697
  A 2.63 1.79 89.2 0 0 225.7598 405.2150
  A 2.63 1.79 89.2 0 0 223.9333 402.6103
  A 2.63 1.79 89.2 0 0 222.1802 405.2650
  A 2.63 1.79 89.2 0 0 224.0067 407.8697
  Z"
/>
<path fill="#305790" d="
  M 264.14 404.54
  L 267.08 401.55
  A 0.25 0.25 0.0 0 1 267.39 401.51
  L 267.90 401.80
  A 0.25 0.25 0.0 0 1 267.95 402.19
  L 265.67 404.62
  A 0.25 0.25 0.0 0 0 265.66 404.94
  L 268.22 408.32
  A 0.25 0.25 0.0 0 1 268.13 408.70
  L 267.66 408.92
  A 0.25 0.25 0.0 0 1 267.36 408.85
  L 264.41 405.17
  A 0.25 0.25 0.0 0 0 263.97 405.30
  L 263.62 408.55
  A 0.25 0.25 0.0 0 1 263.45 408.76
  L 262.72 409.02
  A 0.25 0.25 0.0 0 1 262.39 408.78
  L 262.37 399.00
  A 0.25 0.25 0.0 0 1 262.64 398.75
  L 263.51 398.82
  A 0.25 0.25 0.0 0 1 263.74 399.07
  L 263.71 404.36
  A 0.25 0.25 0.0 0 0 264.14 404.54
  Z"
/>
<circle fill="#305790" cx="207.35" cy="399.88" r="0.79"/>
<path fill="#305790" d="
  M 199.12 402.60
  L 198.01 406.30
  Q 196.46 411.47 195.13 406.24
  L 193.48 399.79
  A 0.35 0.34 87.1 0 1 193.86 399.36
  L 194.34 399.43
  Q 194.82 399.50 194.94 399.98
  L 196.36 405.79
  Q 196.62 406.83 196.90 405.80
  L 198.49 400.11
  Q 198.64 399.55 199.22 399.46
  Q 199.62 399.40 199.94 399.69
  Q 200.22 399.94 200.32 400.31
  Q 201.10 403.11 201.93 406.01
  Q 202.20 406.96 202.42 405.99
  L 203.81 400.03
  Q 203.92 399.55 204.41 399.55
  L 204.90 399.56
  Q 205.39 399.56 205.26 400.03
  L 203.15 408.07
  Q 203.01 408.58 202.51 408.75
  Q 201.99 408.92 201.58 408.61
  Q 201.33 408.42 201.24 408.12
  Q 200.41 405.25 199.67 402.60
  Q 199.41 401.65 199.12 402.60
  Z"
/>
<path fill="#305790" d="
  M 275.00 400.62
  A 1.28 1.28 0.0 0 0 274.87 402.94
  C 276.00 403.55 277.80 404.04 278.30 405.32
  C 279.65 408.71 275.25 409.59 273.02 408.53
  Q 272.53 408.30 272.57 407.76
  Q 272.58 407.60 272.72 407.52
  Q 273.00 407.37 273.30 407.46
  Q 274.75 407.92 276.26 407.66
  Q 276.61 407.61 276.78 407.30
  Q 277.68 405.70 275.87 404.97
  Q 274.68 404.49 273.74 403.78
  C 272.31 402.72 272.46 400.37 274.16 399.65
  Q 275.94 398.89 277.95 399.69
  A 0.47 0.47 0.0 0 1 278.19 400.36
  L 278.06 400.58
  A 0.57 0.57 0.0 0 1 277.30 400.81
  Q 276.08 400.20 275.00 400.62
  Z"
/>
<path fill="#305790" d="
  M 245.59 404.08
  L 246.01 404.53
  A 1.84 1.80 20.0 0 1 246.48 405.51
  C 247.02 409.09 243.00 408.89 240.69 408.74
  Q 239.99 408.70 239.99 408.00
  L 240.00 400.22
  Q 240.00 399.44 240.78 399.47
  L 244.43 399.64
  A 1.93 1.91 82.0 0 1 246.16 400.95
  Q 246.64 402.34 245.63 403.26
  Q 245.19 403.65 245.59 404.08
  Z
  M 244.7468 401.5908
  A 0.78 0.78 0.0 0 0 243.9960 400.7827
  L 242.2571 400.7190
  A 0.78 0.78 0.0 0 0 241.4491 401.4699
  L 241.4132 402.4492
  A 0.78 0.78 0.0 0 0 242.1640 403.2573
  L 243.9029 403.3210
  A 0.78 0.78 0.0 0 0 244.7109 402.5701
  L 244.7468 401.5908
  Z
  M 241.47 404.90
  L 241.47 407.10
  A 0.43 0.43 0.0 0 0 241.89 407.54
  L 243.50 407.54
  A 1.50 1.29 0.2 0 0 245.01 406.26
  L 245.01 405.78
  A 1.50 1.29 0.2 0 0 243.52 404.48
  L 241.91 404.48
  A 0.43 0.43 0.0 0 0 241.47 404.90
  Z"
/>
<rect fill="#305790" x="-0.69" y="-3.12" transform="translate(305.05,402.63) rotate(-0.3)" width="1.38" height="6.24" rx="0.38"/>
<path fill="#305790" d="
  M 230.71 405.46
  Q 229.78 405.45 229.99 406.36
  Q 230.24 407.48 231.68 407.81
  A 1.02 0.95 47.0 0 0 231.82 407.82
  L 233.74 407.57
  Q 234.35 407.49 234.22 408.09
  Q 234.10 408.62 233.57 408.74
  Q 228.28 409.84 228.50 404.76
  C 228.67 400.65 234.20 400.13 234.63 404.77
  Q 234.70 405.49 233.98 405.48
  L 230.71 405.46
  Z
  M 230.44 404.61
  L 232.74 404.51
  A 0.41 0.41 0.0 0 0 233.13 404.08
  L 233.12 403.91
  A 1.48 1.40 87.4 0 0 231.65 402.49
  L 231.33 402.51
  A 1.48 1.40 87.4 0 0 230.00 404.05
  L 230.01 404.22
  A 0.41 0.41 0.0 0 0 230.44 404.61
  Z"
/>
<path fill="#305790" d="
  M 251.81 404.50
  Q 252.57 404.42 252.32 403.69
  L 252.13 403.11
  Q 251.85 402.26 250.97 402.44
  L 249.36 402.78
  Q 249.00 402.85 248.77 402.57
  Q 248.65 402.43 248.73 402.22
  Q 248.83 401.99 249.07 401.89
  C 251.57 400.92 254.09 401.62 253.79 404.70
  Q 253.62 406.49 253.82 408.05
  Q 253.95 409.02 253.10 408.54
  Q 252.94 408.45 252.78 408.38
  Q 252.21 408.14 251.70 408.48
  C 250.06 409.58 247.51 408.82 247.92 406.48
  Q 248.20 404.90 249.79 404.73
  L 251.81 404.50
  Z
  M 252.3145 405.9126
  A 1.65 1.22 -28.9 0 0 250.2804 405.6419
  A 1.65 1.22 -28.9 0 0 249.4255 407.5074
  A 1.65 1.22 -28.9 0 0 251.4596 407.7781
  A 1.65 1.22 -28.9 0 0 252.3145 405.9126
  Z"
/>
<path fill="#305790" d="
  M 259.96 402.97
  C 256.05 401.07 255.45 409.01 259.93 407.67
  Q 261.17 407.29 260.41 408.34
  Q 259.92 409.01 259.00 408.98
  Q 255.06 408.85 255.51 404.76
  Q 255.96 400.71 260.21 401.74
  A 0.47 0.46 -80.8 0 1 260.56 402.24
  L 260.51 402.67
  Q 260.45 403.21 259.96 402.97
  Z"
/>
<path fill="#305790" d="
  M 283.2465 409.0399
  A 3.80 3.34 89.6 0 1 279.8801 405.2633
  A 3.80 3.34 89.6 0 1 283.1935 401.4401
  A 3.80 3.34 89.6 0 1 286.5599 405.2167
  A 3.80 3.34 89.6 0 1 283.2465 409.0399
  Z
  M 283.2200 407.8600
  A 2.61 1.88 90.0 0 0 285.1000 405.2500
  A 2.61 1.88 90.0 0 0 283.2200 402.6400
  A 2.61 1.88 90.0 0 0 281.3400 405.2500
  A 2.61 1.88 90.0 0 0 283.2200 407.8600
  Z"
/>
<path fill="#305790" d="
  M 291.0097 409.0298
  A 3.79 3.34 89.4 0 1 287.6302 405.2750
  A 3.79 3.34 89.4 0 1 290.9303 401.4502
  A 3.79 3.34 89.4 0 1 294.3098 405.2050
  A 3.79 3.34 89.4 0 1 291.0097 409.0298
  Z
  M 290.9891 407.8800
  A 2.62 1.88 89.8 0 0 292.8600 405.2534
  A 2.62 1.88 89.8 0 0 290.9709 402.6400
  A 2.62 1.88 89.8 0 0 289.1000 405.2666
  A 2.62 1.88 89.8 0 0 290.9891 407.8800
  Z"
/>
<path fill="#305790" d="
  M 297.96 402.09
  Q 300.24 400.72 301.86 402.51
  A 1.20 1.18 -67.7 0 1 302.18 403.30
  L 302.25 408.24
  Q 302.26 408.74 301.76 408.74
  L 301.25 408.73
  Q 300.78 408.73 300.78 408.25
  L 300.77 403.95
  A 1.23 1.23 0.0 0 0 299.45 402.73
  L 298.95 402.77
  A 1.56 1.55 88.2 0 0 297.52 404.30
  L 297.50 408.38
  Q 297.49 408.80 297.08 408.77
  L 296.75 408.75
  A 0.73 0.72 -88.3 0 1 296.07 408.02
  L 296.10 402.32
  Q 296.11 401.72 296.69 401.82
  Q 296.87 401.85 296.99 401.97
  Q 297.43 402.41 297.96 402.09
  Z"
/>
<rect fill="#305790" x="206.63" y="401.76" width="1.38" height="6.98" rx="0.52"/>
<circle fill="#305790" cx="305.03" cy="407.98" r="0.92"/>
<path fill="#305790" d="
  M 246.70 473.86
  Q 246.40 473.80 246.35 474.10
  L 246.31 474.36
  A 0.03 0.03 0.0 0 0 246.34 474.40
  Q 251.43 475.15 256.00 472.92
  Q 256.84 472.51 256.72 473.43
  C 256.26 477.19 250.83 477.80 247.88 476.90
  C 245.25 476.10 246.27 473.31 244.56 471.91
  A 0.96 0.95 -70.0 0 1 244.20 471.12
  Q 244.23 470.36 243.59 469.75
  Q 242.54 468.76 243.85 469.37
  Q 244.67 469.74 245.08 470.75
  Q 245.57 471.93 245.54 470.65
  Q 245.54 470.52 245.45 470.41
  Q 244.59 469.25 245.98 469.10
  Q 246.14 469.08 246.29 469.05
  Q 246.50 469.01 246.67 468.89
  Q 248.50 467.58 250.42 467.08
  Q 251.07 466.91 250.45 466.65
  Q 250.10 466.50 249.79 466.66
  Q 248.98 467.07 249.53 466.35
  Q 249.94 465.81 250.13 465.18
  Q 250.38 464.33 250.91 465.05
  Q 251.05 465.25 251.09 465.49
  Q 251.17 466.02 251.60 466.35
  Q 252.76 467.28 254.00 468.04
  Q 254.51 468.36 254.97 468.14
  Q 255.49 467.90 255.96 468.22
  L 256.49 468.59
  Q 257.04 468.98 256.78 469.59
  Q 256.40 470.48 256.52 471.43
  Q 256.59 471.97 256.11 472.23
  Q 251.29 474.85 246.70 473.86
  Z
  M 250.47 470.73
  A 1.78 1.78 0.0 0 0 248.69 468.95
  A 1.78 1.78 0.0 0 0 246.91 470.73
  A 1.78 1.78 0.0 0 0 248.69 472.51
  A 1.78 1.78 0.0 0 0 250.47 470.73
  Z
  M 255.18 469.80
  Q 255.22 469.74 255.26 469.69
  Q 255.61 469.25 255.05 469.32
  Q 254.47 469.38 253.90 469.13
  Q 253.29 468.87 252.92 469.42
  Q 252.59 469.92 252.75 470.48
  A 1.04 1.03 -25.8 0 0 254.33 471.03
  Q 254.89 470.63 255.09 469.98
  Q 255.12 469.88 255.18 469.80
  Z"
/>
<path fill="#305790" d="
  M 180.35 470.03
  Q 180.13 469.19 180.38 468.20
  A 0.57 0.56 -80.6 0 1 180.96 467.78
  L 181.21 467.79
  A 0.67 0.67 0.0 0 1 181.84 468.47
  L 181.78 475.98
  A 0.56 0.55 -78.3 0 1 181.01 476.49
  Q 179.80 475.98 178.70 476.56
  A 1.47 1.47 0.0 0 1 177.23 476.51
  C 174.16 474.56 175.17 468.76 179.75 470.56
  Q 180.58 470.89 180.35 470.03
  Z
  M 178.6591 475.4900
  A 2.08 1.58 90.3 0 0 180.2500 473.4183
  A 2.08 1.58 90.3 0 0 178.6809 471.3300
  A 2.08 1.58 90.3 0 0 177.0900 473.4017
  A 2.08 1.58 90.3 0 0 178.6591 475.4900
  Z"
/>
<circle fill="#305790" cx="196.51" cy="468.51" r="0.72"/>
<path fill="#305790" d="
  M 223.51 470.32
  L 223.51 468.29
  Q 223.51 467.79 224.01 467.81
  L 224.30 467.82
  Q 224.92 467.85 224.93 468.47
  L 224.97 476.26
  A 0.36 0.36 0.0 0 1 224.44 476.57
  Q 223.24 475.93 222.01 476.53
  A 1.62 1.59 38.7 0 1 220.90 476.64
  C 217.78 475.80 217.62 470.06 221.70 470.22
  Q 222.23 470.24 222.69 470.48
  L 222.99 470.64
  Q 223.51 470.92 223.51 470.32
  Z
  M 221.7377 475.4991
  A 2.10 1.60 91.7 0 0 223.3993 473.4475
  A 2.10 1.60 91.7 0 0 221.8623 471.3009
  A 2.10 1.60 91.7 0 0 220.2007 473.3525
  A 2.10 1.60 91.7 0 0 221.7377 475.4991
  Z"
/>
<path fill="#305790" d="
  M 230.75 470.65
  C 233.86 468.46 235.88 473.12 234.11 475.61
  Q 232.84 477.39 230.89 476.26
  Q 230.46 476.01 230.00 476.19
  Q 229.68 476.33 229.44 476.56
  A 0.50 0.50 0.0 0 1 228.59 476.21
  L 228.53 468.52
  A 0.72 0.71 -89.6 0 1 229.25 467.80
  L 229.56 467.81
  Q 230.01 467.81 230.01 468.26
  L 230.02 470.27
  Q 230.02 471.16 230.75 470.65
  Z
  M 231.6454 475.5395
  A 2.13 1.59 91.2 0 0 233.2797 473.4433
  A 2.13 1.59 91.2 0 0 231.7346 471.2805
  A 2.13 1.59 91.2 0 0 230.1003 473.3767
  A 2.13 1.59 91.2 0 0 231.6454 475.5395
  Z"
/>
<path fill="#305790" d="
  M 262.49 471.61
  L 262.39 475.98
  A 0.70 0.70 0.0 0 1 261.98 476.60
  L 261.71 476.72
  A 0.59 0.58 -12.5 0 1 260.89 476.20
  L 260.80 472.06
  Q 260.79 471.63 260.45 471.36
  Q 260.29 471.24 260.11 471.19
  Q 259.22 470.96 260.03 470.53
  Q 261.03 469.98 260.97 468.77
  A 0.77 0.76 -14.2 0 1 261.41 468.05
  Q 262.75 467.41 264.08 467.97
  Q 264.66 468.22 264.16 468.59
  Q 263.53 469.05 262.60 469.19
  Q 262.35 469.22 262.40 469.47
  L 262.50 469.87
  Q 262.65 470.52 263.31 470.49
  L 267.81 470.27
  A 0.58 0.57 -10.1 0 1 268.40 470.67
  L 268.48 470.94
  Q 268.66 471.52 268.06 471.53
  L 266.53 471.56
  Q 265.83 471.57 265.81 472.27
  L 265.71 475.89
  Q 265.69 476.72 264.86 476.61
  L 264.57 476.58
  A 0.48 0.47 4.2 0 1 264.16 476.11
  L 264.12 472.13
  Q 264.12 471.52 263.61 471.18
  Q 263.42 471.06 263.19 471.02
  A 0.61 0.60 -85.1 0 0 262.49 471.61
  Z"
/>
<ellipse fill="#305790" cx="0.00" cy="0.00" transform="translate(289.89,468.50) rotate(-7.5)" rx="0.78" ry="0.68"/>
<path fill="#305790" d="
  M 294.11 472.41
  Q 294.85 471.09 296.18 470.23
  Q 296.64 469.93 296.97 470.37
  Q 297.06 470.50 297.05 470.66
  Q 297.02 471.03 296.77 471.33
  Q 296.37 471.82 295.94 472.27
  Q 295.49 472.73 295.91 473.22
  Q 296.92 474.39 297.45 475.73
  A 0.67 0.66 -27.6 0 1 297.19 476.53
  Q 296.90 476.72 296.56 476.60
  A 0.40 0.39 -8.6 0 1 296.34 476.44
  L 294.58 473.79
  A 0.42 0.42 0.0 0 0 293.82 473.95
  L 293.41 476.33
  A 0.41 0.40 -83.6 0 1 292.99 476.67
  L 292.63 476.66
  A 0.62 0.61 -89.0 0 1 292.04 476.04
  L 292.02 468.45
  A 0.69 0.68 -85.7 0 1 292.80 467.77
  L 293.17 467.82
  A 0.43 0.42 3.9 0 1 293.54 468.24
  L 293.60 472.28
  Q 293.62 473.30 294.11 472.41
  Z"
/>
<rect fill="#305790" x="-0.77" y="-3.34" transform="translate(289.91,473.32) rotate(-0.1)" width="1.54" height="6.68" rx="0.74"/>
<path fill="#305790" d="
  M 188.50 475.42
  Q 187.22 477.04 185.11 476.63
  C 181.58 475.95 181.96 470.27 185.56 470.06
  Q 187.80 469.94 188.70 472.18
  A 1.24 1.24 0.0 0 1 187.52 473.88
  L 184.83 473.81
  A 0.49 0.49 0.0 0 0 184.37 474.49
  Q 184.70 475.29 185.49 475.60
  Q 185.96 475.78 186.39 475.52
  Q 187.96 474.60 189.85 474.56
  Q 190.43 474.54 190.83 474.97
  L 191.28 475.45
  A 1.05 1.05 0.0 0 0 192.62 475.61
  L 192.92 475.42
  A 0.57 0.57 0.0 0 0 192.95 474.49
  Q 192.01 473.79 190.69 473.56
  A 1.54 1.54 0.0 0 1 189.78 471.05
  Q 191.66 468.85 194.41 471.19
  Q 194.56 471.32 194.48 471.50
  L 194.29 471.98
  A 0.38 0.37 31.1 0 1 193.70 472.12
  Q 192.43 471.04 191.37 471.36
  Q 190.60 471.59 191.19 472.13
  Q 191.87 472.74 192.95 472.80
  A 1.94 1.94 0.0 0 1 194.76 474.48
  Q 194.93 475.82 193.64 476.34
  Q 190.99 477.40 189.40 475.41
  A 0.58 0.57 44.2 0 0 188.50 475.42
  Z
  M 184.75 472.81
  L 186.51 472.90
  Q 187.25 472.94 186.98 472.25
  Q 186.84 471.90 186.61 471.60
  Q 186.28 471.17 185.78 471.27
  Q 184.96 471.43 184.44 472.18
  A 0.40 0.40 0.0 0 0 184.75 472.81
  Z"
/>
<rect fill="#305790" x="-0.75" y="-3.29" transform="translate(196.50,473.36) rotate(0.1)" width="1.50" height="6.58" rx="0.73"/>
<path fill="#305790" d="
  M 208.50 471.35
  C 206.44 471.66 207.11 474.77 206.90 476.19
  A 0.60 0.60 0.0 0 1 206.16 476.68
  Q 205.64 476.55 205.59 476.02
  Q 205.35 473.55 205.58 470.78
  A 0.62 0.62 0.0 0 1 206.63 470.38
  Q 207.29 471.01 208.05 470.46
  Q 208.45 470.16 208.95 470.16
  Q 210.94 470.13 211.13 471.99
  Q 211.33 474.06 211.14 476.24
  A 0.44 0.43 -83.7 0 1 210.65 476.64
  L 210.28 476.60
  A 0.70 0.70 0.0 0 1 209.67 475.85
  Q 209.84 473.70 209.41 471.96
  Q 209.24 471.24 208.50 471.35
  Z"
/>
<path fill="#305790" d="
  M 214.29 473.75
  A 0.64 0.64 0.0 0 0 213.81 474.83
  Q 215.45 476.58 217.26 474.54
  A 0.38 0.38 0.0 0 1 217.92 474.75
  L 218.00 475.42
  A 0.32 0.29 -22.8 0 1 217.87 475.70
  Q 215.06 477.68 212.95 475.75
  C 209.77 472.85 214.51 467.63 217.64 471.32
  Q 218.54 472.38 217.82 473.46
  Q 217.57 473.85 217.10 473.84
  L 214.29 473.75
  Z
  M 213.69 472.53
  A 0.34 0.34 0.0 0 0 214.02 472.98
  L 216.12 472.88
  A 0.45 0.45 0.0 0 0 216.50 472.24
  Q 215.96 471.15 214.89 471.21
  Q 214.52 471.23 214.27 471.53
  Q 213.88 471.98 213.69 472.53
  Z"
/>
<path fill="#305790" d="
  M 238.25 474.24
  L 239.44 470.67
  A 0.67 0.67 0.0 0 1 240.06 470.21
  L 240.44 470.21
  A 0.42 0.42 0.0 0 1 240.85 470.76
  Q 239.81 473.94 238.44 477.34
  Q 237.49 479.69 235.03 478.89
  A 0.33 0.33 0.0 0 1 234.81 478.52
  Q 234.88 478.17 235.16 477.98
  Q 235.37 477.84 235.63 477.85
  Q 236.39 477.86 236.84 477.35
  Q 237.29 476.83 237.03 476.20
  L 235.05 471.48
  Q 234.79 470.84 235.30 470.37
  L 235.54 470.14
  A 0.45 0.44 58.8 0 1 236.26 470.32
  L 237.70 474.25
  Q 237.99 475.03 238.25 474.24
  Z"
/>
<path fill="#305790" d="
  M 270.45 473.93
  A 0.53 0.53 0.0 0 0 270.18 474.78
  L 270.44 475.09
  Q 271.04 475.82 271.96 475.61
  Q 272.85 475.41 273.55 474.66
  A 0.41 0.40 65.1 0 1 274.25 474.92
  Q 274.30 475.99 273.24 476.32
  Q 269.54 477.50 268.57 474.52
  C 267.32 470.68 272.05 468.38 274.17 471.54
  Q 274.81 472.50 274.19 473.45
  A 0.88 0.87 21.2 0 1 273.32 473.83
  Q 271.75 473.58 270.45 473.93
  Z
  M 272.65 472.77
  Q 273.11 472.75 272.93 472.33
  Q 272.34 470.89 270.96 471.35
  Q 270.26 471.59 270.11 472.30
  Q 269.98 472.94 270.63 472.90
  L 272.65 472.77
  Z"
/>
<path fill="#305790" d="
  M 277.22 473.91
  Q 276.40 474.12 276.92 474.78
  L 277.18 475.12
  A 1.39 1.39 0.0 0 0 278.66 475.60
  Q 279.61 475.33 280.31 474.72
  Q 280.57 474.49 280.77 474.77
  L 280.99 475.06
  A 0.49 0.48 52.8 0 1 280.90 475.73
  C 278.65 477.53 275.20 476.72 275.14 473.46
  C 275.03 468.34 282.66 469.73 280.89 473.50
  A 0.67 0.66 16.9 0 1 280.18 473.87
  Q 278.52 473.58 277.22 473.91
  Z
  M 279.30 471.79
  Q 277.94 470.59 276.93 472.19
  Q 276.46 472.94 277.34 472.88
  L 278.96 472.78
  Q 280.33 472.70 279.30 471.79
  Z"
/>
<path fill="#305790" d="
  M 304.80 475.50
  Q 305.54 475.50 305.97 474.72
  Q 306.26 474.20 306.85 474.18
  Q 307.01 474.17 307.16 474.24
  Q 307.63 474.50 307.43 475.00
  Q 306.88 476.42 305.21 476.62
  C 299.65 477.30 300.46 468.61 305.97 470.36
  Q 307.11 470.72 307.28 471.85
  Q 307.41 472.74 306.55 472.47
  Q 305.94 472.29 305.54 471.69
  Q 305.21 471.22 304.65 471.31
  Q 302.84 471.60 303.03 473.86
  Q 303.16 475.50 304.80 475.50
  Z"
/>
<path fill="#305790" d="
  M 314.61 473.40
  A 3.29 3.29 0.0 0 1 311.32 476.69
  A 3.29 3.29 0.0 0 1 308.03 473.40
  A 3.29 3.29 0.0 0 1 311.32 470.11
  A 3.29 3.29 0.0 0 1 314.61 473.40
  Z
  M 311.3112 475.5500
  A 2.14 1.63 89.7 0 0 312.9300 473.4015
  A 2.14 1.63 89.7 0 0 311.2888 471.2700
  A 2.14 1.63 89.7 0 0 309.6700 473.4185
  A 2.14 1.63 89.7 0 0 311.3112 475.5500
  Z"
/>
<path fill="#305790" d="
  M 321.07 470.61
  Q 322.66 469.49 324.17 470.85
  A 0.91 0.89 22.2 0 1 324.47 471.54
  L 324.44 476.15
  A 0.47 0.47 0.0 0 1 323.99 476.62
  L 323.72 476.64
  A 0.77 0.77 0.0 0 1 322.91 475.90
  L 322.75 471.88
  A 0.58 0.57 -7.6 0 0 322.05 471.35
  L 321.70 471.43
  Q 320.81 471.63 320.77 472.55
  L 320.61 476.23
  A 0.42 0.42 0.0 0 1 320.15 476.63
  L 319.79 476.61
  A 0.81 0.81 0.0 0 1 319.04 475.80
  L 319.02 472.09
  A 0.69 0.69 0.0 0 0 318.35 471.40
  L 318.04 471.39
  Q 316.94 471.36 316.92 472.46
  L 316.84 475.92
  Q 316.83 476.70 316.05 476.68
  L 315.77 476.67
  A 0.48 0.48 0.0 0 1 315.30 476.20
  L 315.22 470.79
  Q 315.21 470.05 315.91 470.30
  Q 317.24 470.78 318.39 470.20
  Q 319.02 469.89 319.58 470.31
  L 319.94 470.59
  Q 320.50 471.02 321.07 470.61
  Z"
/>
<path fill="#305790" d="
  M 202.14 476.12
  C 198.91 478.07 197.18 473.67 198.68 471.27
  C 199.39 470.13 201.01 469.80 202.08 470.59
  Q 202.56 470.95 202.99 470.53
  Q 203.27 470.25 203.66 470.22
  Q 204.37 470.17 204.37 470.88
  L 204.34 477.05
  Q 204.34 477.57 203.97 477.95
  Q 202.12 479.88 199.09 478.57
  Q 198.39 478.27 198.34 477.56
  A 0.60 0.59 20.4 0 1 199.35 477.10
  Q 200.45 478.17 201.89 477.90
  Q 202.71 477.74 202.77 476.91
  L 202.79 476.51
  A 0.43 0.42 -13.7 0 0 202.14 476.12
  Z
  M 201.2392 475.4200
  A 2.07 1.60 90.3 0 0 202.8500 473.3584
  A 2.07 1.60 90.3 0 0 201.2608 471.2800
  A 2.07 1.60 90.3 0 0 199.6500 473.3416
  A 2.07 1.60 90.3 0 0 201.2392 475.4200
  Z"
/>
<path fill="#305790" d="
  M 283.47 476.48
  L 283.46 478.29
  A 0.65 0.65 0.0 0 1 282.98 478.92
  L 282.67 479.00
  Q 282.01 479.17 282.01 478.49
  L 281.94 470.67
  Q 281.93 469.94 282.59 470.25
  L 283.24 470.57
  Q 283.76 470.82 284.27 470.56
  C 287.61 468.83 289.01 473.01 287.74 475.46
  C 287.02 476.84 285.23 476.92 284.03 476.17
  A 0.37 0.37 0.0 0 0 283.47 476.48
  Z
  M 285.0816 475.4999
  A 2.11 1.61 90.5 0 0 286.7099 473.4040
  A 2.11 1.61 90.5 0 0 285.1184 471.2801
  A 2.11 1.61 90.5 0 0 283.4901 473.3760
  A 2.11 1.61 90.5 0 0 285.0816 475.4999
  Z"
/>
<circle fill="#305790" cx="299.50" cy="475.81" r="0.83"/>
</svg>
