<?xml version="1.0" encoding="UTF-8"?>
<!DOCTYPE svg PUBLIC "-//W3C//DTD SVG 1.1//EN" "http://www.w3.org/Graphics/SVG/1.1/DTD/svg11.dtd">
<svg xmlns="http://www.w3.org/2000/svg" version="1.1" width="512px" height="512px" style="shape-rendering:geometricPrecision; text-rendering:geometricPrecision; image-rendering:optimizeQuality; fill-rule:evenodd; clip-rule:evenodd" xmlns:xlink="http://www.w3.org/1999/xlink">
<g><path style="opacity:0.977" fill="#9f85ec" d="M 241.5,-0.5 C 251.167,-0.5 260.833,-0.5 270.5,-0.5C 305.145,10.3393 321.645,34.0059 320,70.5C 316.643,94.4012 304.143,111.568 282.5,122C 277.705,125.755 274.538,130.588 273,136.5C 273.453,145.543 269.953,152.376 262.5,157C 253.717,160.072 246.55,157.905 241,150.5C 237.616,122.103 248.783,101.603 274.5,89C 288.587,76.4886 291.087,61.9886 282,45.5C 266.378,28.0996 249.711,27.0996 232,42.5C 223.881,53.6214 222.381,65.6214 227.5,78.5C 225.306,91.8689 217.639,97.0355 204.5,94C 201.438,92.9392 198.938,91.1059 197,88.5C 185.539,57.1734 192.706,31.0067 218.5,10C 225.76,5.36591 233.427,1.86591 241.5,-0.5 Z"/></g>
<g><path style="opacity:0.986" fill="#37004c" d="M 511.5,249.5 C 511.5,253.5 511.5,257.5 511.5,261.5C 510.121,264.386 508.121,266.886 505.5,269C 486.378,277.978 467.211,286.812 448,295.5C 447.667,337.5 447.333,379.5 447,421.5C 445.939,424.562 444.106,427.062 441.5,429C 381.076,456.549 320.743,484.049 260.5,511.5C 257.167,511.5 253.833,511.5 250.5,511.5C 189.774,483.973 129.107,456.14 68.5,428C 66.3485,425.531 64.8485,422.698 64,419.5C 63.3333,394.833 63.3333,370.167 64,345.5C 68.4731,336.518 75.6397,333.351 85.5,336C 90,337.833 93.1667,341 95,345.5C 95.173,365.406 95.673,385.24 96.5,405C 144.075,426.371 191.575,447.871 239,469.5C 239.667,416.833 239.667,364.167 239,311.5C 226.804,323.362 214.97,335.529 203.5,348C 198.298,351.266 192.631,352.266 186.5,351C 126.715,324.274 67.0479,297.274 7.5,270C 3.82094,267.169 1.15427,263.669 -0.5,259.5C -0.5,256.5 -0.5,253.5 -0.5,250.5C 0.892318,248.727 2.05898,246.727 3,244.5C 25.5281,221.638 48.3614,199.138 71.5,177C 108.833,160 146.167,143 183.5,126C 199.241,122.275 207.074,128.442 207,144.5C 206.064,148.207 204.231,151.374 201.5,154C 174.491,166.505 147.491,179.005 120.5,191.5C 164.372,211.936 208.372,232.102 252.5,252C 254.5,252.667 256.5,252.667 258.5,252C 302.65,232.091 346.65,211.924 390.5,191.5C 363.662,178.717 336.662,166.217 309.5,154C 300.605,145.289 300.271,136.289 308.5,127C 311.737,125.032 315.237,123.865 319,123.5C 323.732,124.281 328.232,125.781 332.5,128C 368.749,144.86 405.082,161.527 441.5,178C 465.426,201.424 488.759,225.257 511.5,249.5 Z M 82.5,211.5 C 130.636,233.045 178.636,254.878 226.5,277C 213.653,290.014 200.653,302.847 187.5,315.5C 140.016,293.924 92.6829,272.09 45.5,250C 58.401,237.601 70.7344,224.768 82.5,211.5 Z M 426.5,211.5 C 440.247,223.744 453.581,236.578 466.5,250C 418.91,271.923 371.243,293.756 323.5,315.5C 310.347,302.847 297.347,290.014 284.5,277C 331.943,255.249 379.277,233.415 426.5,211.5 Z M 413.5,310.5 C 414.833,325.819 415.499,341.485 415.5,357.5C 415.333,373.167 415.167,388.833 415,404.5C 367.694,426.569 320.194,448.236 272.5,469.5C 271.333,417.17 271.167,364.837 272,312.5C 284.07,324.448 296.237,336.281 308.5,348C 315.576,352.309 322.909,352.643 330.5,349C 358.311,336.241 385.978,323.408 413.5,310.5 Z"/></g>
<g><path style="opacity:0.967" fill="#9e85eb" d="M 249.5,175.5 C 268.778,174.61 275.278,183.276 269,201.5C 262.055,208.069 254.222,209.236 245.5,205C 238.931,198.055 237.764,190.222 242,181.5C 244.114,178.879 246.614,176.879 249.5,175.5 Z"/></g>
</svg>
