<?xml version="1.0" encoding="UTF-8" standalone="no"?>
<!DOCTYPE svg PUBLIC "-//W3C//DTD SVG 1.1//EN" "http://www.w3.org/Graphics/SVG/1.1/DTD/svg11.dtd">
<svg xmlns="http://www.w3.org/2000/svg" version="1.1" viewBox="0.00 0.00 500.00 500.00">
<g stroke-width="2.00" fill="none" stroke-linecap="butt">
<path stroke="#55142b" vector-effect="non-scaling-stroke" d="
  M 277.19 70.49
  Q 277.14 70.65 277.14 70.78
  Q 277.16 71.12 277.51 71.09
  Q 277.76 71.06 277.96 71.17
  Q 278.09 71.23 278.16 71.38
  Q 279.13 73.61 278.84 76.37
  Q 278.80 76.74 278.46 76.62
  Q 278.24 76.55 278.05 76.63
  Q 277.56 76.84 278.03 77.09
  Q 278.42 77.29 278.46 77.73"
/>
<path stroke="#bc8f8d" vector-effect="non-scaling-stroke" d="
  M 278.46 77.73
  Q 259.71 72.51 245.61 85.16
  Q 245.13 85.59 244.49 85.53
  Q 235.98 84.69 228.77 84.80
  Q 219.34 84.94 210.61 91.56
  Q 203.92 96.64 201.88 104.54
  Q 199.83 112.48 202.40 119.81"
/>
<path stroke="#55142b" vector-effect="non-scaling-stroke" d="
  M 202.40 119.81
  Q 197.92 120.80 195.03 119.69"
/>
<path stroke="#e3d0c7" vector-effect="non-scaling-stroke" d="
  M 285.28 81.59
  Q 287.95 86.90 290.54 91.73
  Q 292.33 95.06 292.88 99.02
  Q 295.01 114.38 285.41 125.52
  Q 279.90 131.90 271.50 133.70
  Q 261.29 135.89 251.53 128.52"
/>
<path stroke="#978483" vector-effect="non-scaling-stroke" d="
  M 251.53 128.52
  Q 247.30 124.19 246.28 116.86
  C 246.09 115.51 245.42 114.48 243.87 114.57
  A 2.09 2.09 0.0 0 0 241.93 116.32
  L 241.35 119.79"
/>
<path stroke="#e3d0c7" vector-effect="non-scaling-stroke" d="
  M 241.35 119.79
  Q 240.12 121.94 238.97 123.98
  Q 237.69 126.25 235.79 127.42
  Q 225.02 134.06 210.92 130.44"
/>
<path stroke="#481129" vector-effect="non-scaling-stroke" d="
  M 359.46 430.09
  L 355.90 436.87
  Q 355.81 437.04 355.81 437.24
  Q 355.83 437.69 356.03 437.61
  Q 356.83 437.30 356.39 438.04
  Q 355.06 440.28 353.47 442.21
  C 353.15 442.59 353.10 443.09 352.95 443.56
  Q 352.78 444.07 352.31 444.33
  Q 351.86 444.58 351.47 445.06
  Q 350.97 445.66 351.72 445.88
  L 353.30 446.34"
/>
<path stroke="#978483" vector-effect="non-scaling-stroke" d="
  M 202.40 119.81
  Q 205.53 127.19 210.92 130.44"
/>
<path stroke="#7b5665" vector-effect="non-scaling-stroke" d="
  M 210.92 130.44
  Q 217.80 135.42 224.26 135.19
  Q 231.87 134.93 240.13 135.16"
/>
<path stroke="#978483" vector-effect="non-scaling-stroke" d="
  M 240.13 135.16
  Q 231.90 141.55 222.52 141.04
  A 0.48 0.48 0.0 0 0 222.01 141.52
  L 222.00 164.21
  A 0.25 0.25 0.0 0 0 222.25 164.46
  L 281.61 164.41"
/>
<path stroke="#7b5665" vector-effect="non-scaling-stroke" d="
  M 281.61 164.41
  L 306.53 164.39"
/>
<path stroke="#502b47" vector-effect="non-scaling-stroke" d="
  M 306.53 164.39
  L 312.95 164.31
  Q 313.49 164.30 313.49 163.77
  L 313.51 151.94
  A 2.26 2.25 -66.0 0 0 312.94 150.44
  L 307.33 144.23"
/>
<path stroke="#7b5665" vector-effect="non-scaling-stroke" d="
  M 307.33 144.23
  L 306.22 142.62
  Q 305.44 141.47 306.81 141.72
  C 313.03 142.87 319.24 142.52 324.98 139.38
  C 331.38 135.87 335.81 132.03 338.07 124.66
  Q 339.65 119.53 339.17 114.06
  Q 337.72 97.33 320.92 90.97
  Q 309.59 86.68 298.93 93.06
  A 1.92 1.91 58.8 0 1 296.32 92.41
  Q 292.23 85.69 285.28 81.59"
/>
<path stroke="#978483" vector-effect="non-scaling-stroke" d="
  M 285.28 81.59
  Q 282.56 79.19 278.46 77.73"
/>
<path stroke="#978483" vector-effect="non-scaling-stroke" d="
  M 273.33 156.32
  C 269.07 154.39 270.12 150.76 269.59 147.04
  Q 269.51 146.52 268.99 146.46
  C 260.61 145.54 252.26 140.33 246.62 133.44"
/>
<path stroke="#7b5665" vector-effect="non-scaling-stroke" d="
  M 246.62 133.44
  Q 242.26 127.95 241.35 119.79"
/>
<path stroke="#e3d0c7" vector-effect="non-scaling-stroke" d="
  M 246.62 133.44
  Q 241.87 136.53 240.13 135.16"
/>
<path stroke="#9c778b" vector-effect="non-scaling-stroke" d="
  M 307.33 144.23
  Q 307.36 153.85 307.34 163.33
  Q 307.34 163.52 307.45 163.66
  Q 307.55 163.77 307.60 163.90
  Q 307.69 164.10 307.49 164.19
  Q 307.06 164.39 306.53 164.39"
/>
<path stroke="#e3d0c7" vector-effect="non-scaling-stroke" d="
  M 281.61 164.41
  L 273.33 156.32"
/>
<path stroke="#7b5665" vector-effect="non-scaling-stroke" d="
  M 273.33 156.32
  L 273.62 147.74
  Q 273.65 146.88 274.51 146.87
  Q 288.70 146.56 299.50 135.57
  A 1.74 1.74 0.0 0 0 299.94 133.85
  C 299.07 130.83 296.69 130.95 294.63 132.47
  C 285.13 139.48 273.36 141.91 262.21 137.32
  Q 255.43 134.53 251.53 128.52"
/>
<path stroke="#8c3041" vector-effect="non-scaling-stroke" d="
  M 400.98 431.18
  Q 399.60 431.78 399.12 431.67
  A 1.75 1.74 -88.4 0 0 397.03 433.65
  Q 397.90 439.11 397.89 443.95"
/>
<path stroke="#89302e" vector-effect="non-scaling-stroke" d="
  M 134.26 336.84
  L 139.36 336.99
  Q 140.20 337.01 140.20 336.17
  Q 140.27 319.77 140.18 305.50
  Q 140.15 299.85 142.89 295.66"
/>
<path stroke="#641a2a" vector-effect="non-scaling-stroke" d="
  M 142.89 295.66
  Q 144.44 294.65 145.55 293.24
  Q 146.53 291.99 146.55 289.96
  Q 146.87 232.67 146.71 175.32"
/>
<path stroke="#89302e" vector-effect="non-scaling-stroke" d="
  M 146.71 175.32
  Q 147.19 174.49 147.28 173.56"
/>
<path stroke="#978082" vector-effect="non-scaling-stroke" d="
  M 147.28 173.56
  Q 147.69 173.18 147.80 172.72"
/>
<path stroke="#914036" vector-effect="non-scaling-stroke" d="
  M 147.80 172.72
  L 151.72 167.84
  Q 152.24 167.19 151.43 166.99
  C 148.04 166.15 145.01 162.84 146.12 159.23
  Q 146.65 157.51 147.98 156.73
  Q 152.36 154.14 158.26 153.10
  Q 161.58 152.52 164.71 151.33"
/>
<path stroke="#978082" vector-effect="non-scaling-stroke" d="
  M 164.71 151.33
  Q 168.42 150.70 170.78 149.82
  Q 173.23 148.90 170.61 148.81
  C 167.33 148.71 163.82 148.48 160.57 149.14
  C 157.41 149.78 154.19 149.78 151.04 150.62
  C 145.00 152.23 138.30 156.52 135.40 162.38
  Q 131.56 170.16 131.55 178.27
  Q 131.48 260.31 131.55 336.03
  Q 131.55 336.75 132.24 336.94
  Q 132.94 337.15 134.26 336.84"
/>
<path stroke="#f9b697" vector-effect="non-scaling-stroke" d="
  M 164.71 151.33
  Q 151.51 149.32 142.06 157.66
  C 135.99 163.02 141.45 169.82 147.28 171.66
  Q 148.13 171.93 147.80 172.72"
/>
<path stroke="#f1a68f" vector-effect="non-scaling-stroke" d="
  M 147.28 173.56
  Q 144.45 173.20 141.70 172.43
  C 136.70 171.02 134.72 177.44 134.73 181.25
  Q 134.87 254.88 134.65 327.00
  Q 134.63 332.02 134.26 336.84"
/>
<path stroke="#be4037" vector-effect="non-scaling-stroke" d="
  M 146.71 175.32
  Q 143.12 177.52 143.07 180.87
  Q 142.79 200.86 142.81 208.00
  Q 142.92 251.89 142.89 295.66"
/>
<path stroke="#641a2a" vector-effect="non-scaling-stroke" d="
  M 177.28 151.24
  Q 176.55 152.91 177.28 155.27
  Q 177.43 155.73 177.91 155.74
  L 214.76 155.80
  Q 215.31 155.80 215.42 155.26
  Q 215.92 152.85 215.50 150.18"
/>
<path stroke="#976037" vector-effect="non-scaling-stroke" d="
  M 215.50 150.18
  Q 215.54 149.60 215.51 149.54
  A 1.17 1.16 -10.6 0 0 214.42 148.80
  Q 195.83 148.86 178.13 148.89
  Q 177.60 148.89 177.41 149.38
  Q 177.16 150.02 177.28 151.24"
/>
<path stroke="#cc7140" vector-effect="non-scaling-stroke" d="
  M 215.50 150.18
  L 214.74 150.99
  Q 214.39 151.37 213.87 151.36
  L 177.28 151.24"
/>
<path stroke="#481129" vector-effect="non-scaling-stroke" d="
  M 366.03 167.89
  Q 365.32 192.98 365.46 218.32
  Q 365.46 218.46 365.53 218.66
  Q 365.59 218.83 365.59 219.00
  Q 365.75 277.25 365.35 335.78
  A 1.14 1.14 0.0 0 0 366.44 336.93
  Q 368.98 337.06 370.05 336.39"
/>
<path stroke="#55142b" vector-effect="non-scaling-stroke" d="
  M 370.05 336.39
  Q 372.06 336.46 372.06 334.50
  Q 372.21 257.12 372.02 179.75
  Q 372.00 170.36 369.20 165.32"
/>
<path stroke="#976037" vector-effect="non-scaling-stroke" d="
  M 369.20 165.32
  Q 366.42 159.92 363.90 157.86
  Q 361.59 155.98 357.53 155.68"
/>
<path stroke="#55142b" vector-effect="non-scaling-stroke" d="
  M 357.53 155.68
  Q 356.10 154.92 354.75 154.94
  Q 338.91 155.20 321.85 155.06
  A 0.68 0.68 0.0 0 0 321.17 155.82
  L 321.39 157.81
  Q 321.48 158.59 322.27 158.58
  Q 345.97 158.35 353.27 158.85
  Q 361.59 159.42 366.03 167.89"
/>
<path stroke="#bc6b41" vector-effect="non-scaling-stroke" d="
  M 357.53 155.68
  Q 356.88 155.49 356.41 155.85
  A 0.28 0.27 34.7 0 0 356.50 156.33
  Q 363.30 158.52 369.20 165.32"
/>
<path stroke="#6d1c33" vector-effect="non-scaling-stroke" d="
  M 370.05 336.39
  Q 369.54 273.63 369.87 211.00
  Q 369.95 194.86 369.61 178.75
  Q 369.48 172.36 366.03 167.89"
/>
<path stroke="#55142b" vector-effect="non-scaling-stroke" d="
  M 172.18 158.98
  L 171.89 157.23
  A 0.52 0.52 0.0 0 0 171.29 156.80
  L 168.80 157.21
  A 12.97 1.26 -9.3 0 0 156.20 160.55
  L 156.25 160.84
  A 12.97 1.26 -9.3 0 0 169.25 159.99
  L 171.75 159.58
  A 0.52 0.52 0.0 0 0 172.18 158.98"
/>
<path stroke="#742839" vector-effect="non-scaling-stroke" d="
  M 215.5600 163.1093
  A 1.07 1.07 0.0 0 0 214.4919 162.0375
  L 194.4919 162.0025
  A 1.07 1.07 0.0 0 0 193.4201 163.0707
  L 193.4200 163.1307
  A 1.07 1.07 0.0 0 0 194.4881 164.2025
  L 214.4881 164.2375
  A 1.07 1.07 0.0 0 0 215.5599 163.1693
  L 215.5600 163.1093"
/>
<path stroke="#742839" vector-effect="non-scaling-stroke" d="
  M 188.97 163.92
  L 189.07 162.66
  A 0.28 0.28 0.0 0 0 188.82 162.36
  L 187.54 162.26
  A 2.86 0.78 4.6 0 0 184.63 162.80
  L 184.61 163.06
  A 2.86 0.78 4.6 0 0 187.39 164.07
  L 188.67 164.17
  A 0.28 0.28 0.0 0 0 188.97 163.92"
/>
<path stroke="#742839" vector-effect="non-scaling-stroke" d="
  M 355.4803 165.1871
  A 0.27 0.27 0.0 0 0 355.2108 164.9166
  L 324.7508 164.8634
  A 0.27 0.27 0.0 0 0 324.4804 165.1329
  L 324.4797 165.5329
  A 0.27 0.27 0.0 0 0 324.7492 165.8034
  L 355.2092 165.8566
  A 0.27 0.27 0.0 0 0 355.4796 165.5871
  L 355.4803 165.1871"
/>
<path stroke="#89302e" vector-effect="non-scaling-stroke" d="
  M 151.88 178.08
  L 151.65 188.32"
/>
<path stroke="#641a2a" vector-effect="non-scaling-stroke" d="
  M 151.65 188.32
  Q 151.16 190.28 151.68 192.44
  Q 151.80 192.93 152.31 192.94
  L 164.72 193.21"
/>
<path stroke="#89302e" vector-effect="non-scaling-stroke" d="
  M 164.72 193.21
  L 167.37 192.97
  A 1.22 1.21 -3.3 0 0 168.48 191.73
  L 168.25 184.55"
/>
<path stroke="#641a2a" vector-effect="non-scaling-stroke" d="
  M 168.25 184.55
  L 168.41 176.73"
/>
<path stroke="#89302e" vector-effect="non-scaling-stroke" d="
  M 168.41 176.73
  L 169.55 173.00"
/>
<path stroke="#978082" vector-effect="non-scaling-stroke" d="
  M 169.55 173.00
  L 172.87 168.86
  Q 173.20 168.45 172.68 168.46
  L 158.75 168.48
  Q 158.14 168.48 157.66 168.85
  Q 153.13 172.33 151.88 178.08"
/>
<path stroke="#f1a68f" vector-effect="non-scaling-stroke" d="
  M 169.55 173.00
  Q 164.05 173.32 158.76 173.50
  Q 157.04 173.55 156.57 174.31
  C 155.47 176.09 154.12 178.46 151.88 178.08"
/>
<path stroke="#be4037" vector-effect="non-scaling-stroke" d="
  M 168.41 176.73
  Q 166.27 178.07 162.51 178.25
  Q 159.38 178.39 158.88 181.29
  Q 158.36 184.22 158.10 187.17
  A 1.62 1.61 86.3 0 1 156.86 188.59
  Q 153.07 189.49 151.65 188.32"
/>
<path stroke="#be4037" vector-effect="non-scaling-stroke" d="
  M 168.25 184.55
  Q 166.15 181.65 166.16 188.00
  Q 166.16 190.09 164.40 191.64
  Q 164.02 191.98 164.07 192.49
  Q 164.13 193.06 164.72 193.21"
/>
<path stroke="#914036" vector-effect="non-scaling-stroke" d="
  M 176.05 173.26
  Q 174.76 174.72 174.40 176.50"
/>
<path stroke="#89302e" vector-effect="non-scaling-stroke" d="
  M 174.40 176.50
  Q 173.56 179.67 173.83 183.56
  A 0.75 0.75 0.0 0 0 174.73 184.24
  C 176.50 183.88 179.06 183.76 179.34 186.21
  C 179.76 189.97 176.53 189.18 174.27 189.24
  A 0.52 0.52 0.0 0 0 173.76 189.78
  Q 174.11 197.43 168.04 197.74
  C 163.73 197.97 159.30 197.89 154.84 197.94"
/>
<path stroke="#978082" vector-effect="non-scaling-stroke" d="
  M 154.84 197.94
  Q 153.41 197.77 152.45 198.27
  A 2.04 2.02 76.2 0 0 151.37 200.07
  L 151.28 289.78
  Q 151.28 290.36 151.86 290.30
  L 153.51 290.14"
/>
<path stroke="#89302e" vector-effect="non-scaling-stroke" d="
  M 153.51 290.14
  Q 237.17 290.07 320.75 290.07
  Q 329.03 290.07 332.84 295.96"
/>
<path stroke="#641a2a" vector-effect="non-scaling-stroke" d="
  M 332.84 295.96
  L 334.83 300.71"
/>
<path stroke="#481129" vector-effect="non-scaling-stroke" d="
  M 334.83 300.71
  L 334.99 336.03
  A 0.94 0.94 0.0 0 0 336.00 336.97
  L 340.14 336.72"
/>
<path stroke="#641a2a" vector-effect="non-scaling-stroke" d="
  M 340.14 336.72
  Q 340.32 319.85 340.13 303.42
  C 340.12 302.35 340.43 301.07 340.42 299.75
  Q 339.91 253.91 340.25 200.01
  C 340.30 191.74 339.52 185.99 334.86 179.95
  Q 333.48 178.17 331.33 177.03"
/>
<path stroke="#89302e" vector-effect="non-scaling-stroke" d="
  M 331.33 177.03
  L 330.80 176.78"
/>
<path stroke="#978082" vector-effect="non-scaling-stroke" d="
  M 330.80 176.78
  C 324.88 171.46 318.49 170.27 310.75 170.28
  Q 246.12 170.32 181.50 170.18
  Q 177.62 170.17 176.05 173.26"
/>
<path stroke="#f1a68f" vector-effect="non-scaling-stroke" d="
  M 330.80 176.78
  Q 330.95 177.42 330.50 177.40
  Q 328.47 177.34 326.57 176.23"
/>
<path stroke="#f9b697" vector-effect="non-scaling-stroke" d="
  M 326.57 176.23
  Q 322.46 173.85 319.50 173.65
  Q 312.70 173.19 310.75 173.18
  Q 249.38 173.14 188.00 173.14
  Q 179.07 173.14 176.05 173.26"
/>
<path stroke="#be4037" vector-effect="non-scaling-stroke" d="
  M 331.33 177.03
  Q 331.31 177.75 330.72 177.86
  Q 330.12 177.98 330.51 178.45
  Q 333.63 182.26 335.05 185.93
  Q 336.66 190.10 336.63 194.75
  C 336.53 209.57 337.08 224.29 337.01 239.20
  Q 336.89 267.20 336.68 295.23
  A 0.85 0.85 0.0 0 1 335.80 296.08
  L 332.84 295.96"
/>
<path stroke="#f1a68f" vector-effect="non-scaling-stroke" d="
  M 153.51 290.14
  Q 154.78 288.70 154.76 287.00
  Q 154.28 242.61 154.84 197.94"
/>
<path stroke="#eb6643" vector-effect="non-scaling-stroke" d="
  M 326.57 176.23
  Q 323.27 176.85 320.03 177.39
  Q 316.79 177.93 313.44 177.90
  Q 301.84 177.80 290.25 177.73
  Q 288.97 177.72 287.75 177.72
  C 279.07 177.74 270.30 178.06 261.76 177.90
  Q 250.06 177.69 237.23 177.77
  C 225.34 177.85 213.53 177.44 201.51 177.67
  Q 190.93 177.88 174.88 177.54
  Q 174.37 177.53 174.38 177.02
  L 174.40 176.50"
/>
<path stroke="#7d2232" vector-effect="non-scaling-stroke" d="
  M 340.14 336.72
  Q 337.63 336.36 338.01 332.11
  Q 338.39 327.99 338.39 327.35
  Q 338.39 309.64 337.93 304.88
  Q 337.74 302.80 334.83 300.71"
/>
<path stroke="#653c59" vector-effect="non-scaling-stroke" d="
  M 343.65 183.47
  L 345.13 188.08"
/>
<path stroke="#502b47" vector-effect="non-scaling-stroke" d="
  M 345.13 188.08
  Q 345.67 196.30 345.66 200.75
  Q 345.56 256.24 345.93 310.75
  Q 345.93 311.02 345.80 311.27
  Q 345.67 311.52 345.67 311.77
  Q 345.77 323.03 345.32 336.30
  A 0.43 0.42 -86.4 0 0 345.70 336.74
  Q 350.20 337.20 353.91 336.21"
/>
<path stroke="#653c59" vector-effect="non-scaling-stroke" d="
  M 353.91 336.21
  Q 354.19 261.23 353.83 186.88
  Q 353.82 184.67 353.25 183.49"
/>
<path stroke="#978082" vector-effect="non-scaling-stroke" d="
  M 353.25 183.49
  C 351.17 178.98 348.17 177.22 344.10 175.23
  Q 343.46 174.92 343.48 174.18
  A 0.68 0.67 -86.8 0 1 344.21 173.52
  C 347.94 173.87 351.32 176.72 353.78 179.35"
/>
<path stroke="#653c59" vector-effect="non-scaling-stroke" d="
  M 353.78 179.35
  C 355.27 181.81 357.73 184.88 357.73 187.75
  Q 357.78 262.12 357.74 336.12
  Q 357.74 336.94 358.56 336.90
  L 359.99 336.84
  A 0.91 0.91 0.0 0 0 360.86 335.93
  L 360.90 173.78"
/>
<path stroke="#978082" vector-effect="non-scaling-stroke" d="
  M 360.90 173.78
  Q 360.71 171.10 354.99 170.99
  Q 343.53 170.76 333.99 170.84
  Q 333.47 170.84 333.85 171.20
  C 337.51 174.57 341.99 178.53 343.65 183.47"
/>
<path stroke="#cdb3ba" vector-effect="non-scaling-stroke" d="
  M 360.90 173.78
  L 353.78 179.35"
/>
<path stroke="#cdb3ba" vector-effect="non-scaling-stroke" d="
  M 353.25 183.49
  Q 348.61 184.27 343.65 183.47"
/>
<path stroke="#865e7f" vector-effect="non-scaling-stroke" d="
  M 353.91 336.21
  Q 351.54 336.86 350.36 335.62
  Q 349.46 334.66 349.53 333.18
  Q 349.85 326.16 349.62 320.30
  Q 349.38 314.33 349.38 308.12
  Q 349.27 222.85 348.84 191.74
  Q 348.80 189.04 345.13 188.08"
/>
<path stroke="#924a32" vector-effect="non-scaling-stroke" d="
  M 148.88 339.75
  C 154.39 345.52 154.73 354.05 152.17 361.18
  C 151.12 364.08 148.64 366.08 146.49 368.14
  Q 146.13 368.49 146.13 368.99
  L 146.18 377.20"
/>
<path stroke="#976037" vector-effect="non-scaling-stroke" d="
  M 146.18 377.20
  L 146.29 378.96"
/>
<path stroke="#924a32" vector-effect="non-scaling-stroke" d="
  M 146.29 378.96
  Q 146.93 383.11 151.33 384.55
  Q 153.32 385.19 155.48 385.20
  Q 236.71 385.26 321.11 385.16
  C 330.18 385.15 328.54 376.10 328.36 370.15
  A 3.43 3.42 -64.2 0 0 327.71 368.27
  L 322.70 361.44"
/>
<path stroke="#976037" vector-effect="non-scaling-stroke" d="
  M 322.70 361.44
  Q 321.25 352.99 322.67 344.61"
/>
<path stroke="#89302e" vector-effect="non-scaling-stroke" d="
  M 322.67 344.61
  L 327.83 338.43
  A 1.94 1.86 66.8 0 0 328.27 337.26
  Q 328.59 319.78 328.16 302.13
  Q 328.06 298.26 324.35 296.61"
/>
<path stroke="#978082" vector-effect="non-scaling-stroke" d="
  M 324.35 296.61
  Q 321.51 295.84 316.25 295.84
  Q 235.68 295.81 155.12 295.83
  Q 150.35 295.83 147.71 299.62
  Q 146.10 301.94 146.13 306.00
  Q 146.23 321.69 146.03 336.56
  Q 146.02 337.19 146.41 337.69
  Q 147.42 338.98 148.88 339.75"
/>
<path stroke="#f1a68f" vector-effect="non-scaling-stroke" d="
  M 324.35 296.61
  Q 324.29 298.48 322.87 299.91"
/>
<path stroke="#ffd798" vector-effect="non-scaling-stroke" d="
  M 322.87 299.91
  Q 241.81 299.97 159.97 299.91
  Q 154.55 299.91 152.66 300.81
  Q 148.71 302.69 148.82 308.25
  Q 148.97 315.23 148.98 338.50"
/>
<path stroke="#fac093" vector-effect="non-scaling-stroke" d="
  M 148.98 338.50
  Q 149.30 339.32 148.88 339.75"
/>
<path stroke="#f18744" vector-effect="non-scaling-stroke" d="
  M 322.67 344.61
  L 322.87 299.91"
/>
<path stroke="#f9a148" vector-effect="non-scaling-stroke" d="
  M 322.70 361.44
  Q 322.43 367.75 322.43 374.01
  C 322.43 378.33 321.58 380.22 317.00 380.22
  Q 235.50 380.26 154.00 380.27
  Q 152.28 380.27 146.29 378.96"
/>
<path stroke="#f9a148" vector-effect="non-scaling-stroke" d="
  M 146.18 377.20
  Q 146.09 375.04 147.48 374.21
  Q 154.14 370.20 155.65 364.99
  C 157.69 357.95 158.04 346.52 151.93 340.97
  Q 151.28 340.38 150.98 339.57
  Q 150.83 339.15 150.41 339.00
  L 148.98 338.50"
/>
<path stroke="#978082" vector-effect="non-scaling-stroke" d="
  M 378.78 336.46
  Q 375.51 342.85 367.23 342.91
  Q 354.52 342.99 340.75 342.88
  C 335.16 342.84 330.77 342.81 328.72 348.73
  Q 327.14 353.31 328.69 357.03"
/>
<path stroke="#641a2a" vector-effect="non-scaling-stroke" d="
  M 328.69 357.03
  Q 331.97 364.66 339.76 364.79
  Q 351.80 365.00 368.56 364.88
  Q 377.40 364.81 380.50 363.36
  Q 387.30 360.17 388.06 350.76
  Q 388.08 350.46 387.79 350.42
  L 387.54 350.38
  Q 387.48 350.37 387.47 350.44
  Q 386.90 353.60 384.85 356.09
  C 382.94 358.41 378.44 358.85 377.91 354.98"
/>
<path stroke="#89302e" vector-effect="non-scaling-stroke" d="
  M 377.91 354.98
  C 379.00 352.65 381.29 353.26 382.17 351.07
  Q 383.58 347.59 385.18 344.05
  C 387.17 339.64 382.40 332.82 379.19 329.15
  Q 378.71 328.60 378.71 329.33
  L 378.78 336.46"
/>
<path stroke="#be4037" vector-effect="non-scaling-stroke" d="
  M 377.91 354.98
  Q 376.91 356.01 375.82 357.01
  C 373.27 359.36 369.26 359.83 365.75 359.89
  Q 351.46 360.13 339.49 359.62
  C 335.99 359.46 333.16 357.16 330.07 355.81"
/>
<path stroke="#f1a68f" vector-effect="non-scaling-stroke" d="
  M 330.07 355.81
  C 329.94 350.95 331.74 345.94 337.38 345.87
  Q 351.97 345.67 366.59 345.78
  C 369.83 345.80 373.64 345.04 376.13 343.14
  Q 379.65 340.45 378.78 336.46"
/>
<path stroke="#cc908b" vector-effect="non-scaling-stroke" d="
  M 330.07 355.81
  Q 329.69 357.11 328.69 357.03"
/>
<path stroke="#641a2a" vector-effect="non-scaling-stroke" d="
  M 120.71 354.81
  Q 120.52 355.35 120.90 356.15
  Q 124.88 364.62 133.15 364.63
  C 139.21 364.63 144.42 363.09 146.34 357.01
  Q 148.27 350.91 144.98 345.60"
/>
<path stroke="#89302e" vector-effect="non-scaling-stroke" d="
  M 144.98 345.60
  Q 144.02 344.83 143.56 344.79"
/>
<path stroke="#978082" vector-effect="non-scaling-stroke" d="
  M 143.56 344.79
  Q 142.06 343.38 140.12 343.17
  Q 134.30 342.52 127.90 343.07"
/>
<path stroke="#f1a68f" vector-effect="non-scaling-stroke" d="
  M 143.56 344.79
  Q 141.45 345.60 139.24 345.73
  Q 133.02 346.11 126.44 345.94"
/>
<path stroke="#be4037" vector-effect="non-scaling-stroke" d="
  M 144.98 345.60
  Q 143.86 348.59 143.51 351.62
  Q 143.27 353.63 142.68 355.22
  C 140.63 360.81 132.51 360.65 128.09 358.96
  C 125.64 358.02 123.75 355.76 121.57 354.11"
/>
<path stroke="#89302e" vector-effect="non-scaling-stroke" d="
  M 134.43 399.20
  Q 135.52 404.14 140.39 407.61
  Q 143.45 409.79 146.91 411.24
  Q 147.40 411.44 147.33 410.91
  Q 147.22 410.19 146.82 409.55"
/>
<path stroke="#641a2a" vector-effect="non-scaling-stroke" d="
  M 146.82 409.55
  L 146.52 390.47
  Q 146.51 389.97 146.22 389.56
  Q 145.01 387.82 142.93 386.45"
/>
<path stroke="#89302e" vector-effect="non-scaling-stroke" d="
  M 142.93 386.45
  Q 139.93 382.74 140.06 377.47"
/>
<path stroke="#55142b" vector-effect="non-scaling-stroke" d="
  M 140.06 377.47
  Q 140.54 374.84 139.71 372.47
  Q 139.55 371.99 139.05 371.89
  Q 136.72 371.43 134.28 372.13"
/>
<path stroke="#be4037" vector-effect="non-scaling-stroke" d="
  M 142.93 386.45
  Q 142.79 396.52 143.15 402.04
  Q 143.45 406.68 146.82 409.55"
/>
<path stroke="#af3b38" vector-effect="non-scaling-stroke" d="
  M 140.06 377.47
  Q 137.79 375.53 134.52 374.76"
/>
<path stroke="#89302e" vector-effect="non-scaling-stroke" d="
  M 328.34 396.14
  C 328.63 402.22 324.40 404.66 318.92 404.57
  Q 311.66 404.44 305.00 404.39
  Q 302.64 404.37 302.62 402.01
  L 302.62 401.47
  Q 302.60 399.13 304.94 399.11
  Q 313.56 399.05 319.39 399.15
  Q 320.83 399.18 322.30 398.66
  A 0.75 0.73 81.0 0 0 322.79 397.97
  L 322.90 393.31
  Q 322.94 391.84 322.03 392.99
  C 321.15 394.12 320.74 395.30 319.40 396.05
  Q 314.85 398.60 310.26 397.46"
/>
<path stroke="#55142b" vector-effect="non-scaling-stroke" d="
  M 310.26 397.46
  L 310.57 395.12
  Q 310.64 394.59 311.07 394.29
  Q 312.53 393.25 314.68 392.70
  Q 314.76 392.68 314.75 392.60
  L 314.71 392.22
  A 0.52 0.51 86.9 0 0 314.20 391.76
  L 174.31 391.83
  A 0.40 0.39 -82.3 0 0 173.93 392.12
  Q 173.15 394.95 173.74 396.97"
/>
<path stroke="#89302e" vector-effect="non-scaling-stroke" d="
  M 173.74 396.97
  Q 173.63 398.60 174.23 398.61
  Q 175.95 398.64 177.62 398.87
  A 2.22 2.20 -2.0 0 1 179.49 400.60
  C 180.18 403.87 177.12 404.46 174.77 404.13
  Q 174.05 404.03 173.93 404.76
  Q 173.64 406.57 174.16 408.22"
/>
<path stroke="#641a2a" vector-effect="non-scaling-stroke" d="
  M 174.16 408.22
  Q 174.20 408.84 174.93 410.84
  C 175.66 412.82 176.51 413.25 178.67 413.24
  Q 236.71 413.03 297.99 413.22
  C 305.02 413.24 311.95 413.52 319.07 413.55
  Q 322.21 413.56 324.59 412.93
  Q 327.02 412.29 329.62 411.93
  Q 331.41 411.68 333.06 410.44
  Q 334.35 409.47 335.56 408.42
  Q 337.79 406.48 339.00 402.80
  Q 340.26 398.97 340.18 393.00
  Q 340.05 382.88 340.08 373.19
  Q 340.09 372.68 339.62 372.47
  Q 339.21 372.28 339.07 372.51"
/>
<path stroke="#55142b" vector-effect="non-scaling-stroke" d="
  M 339.07 372.51
  L 336.76 372.17
  A 0.92 0.92 0.0 0 0 335.70 373.02
  C 335.19 379.95 336.17 386.46 328.89 390.35
  Q 328.43 390.60 328.42 391.11
  L 328.34 396.14"
/>
<path stroke="#8a2534" vector-effect="non-scaling-stroke" d="
  M 339.07 372.51
  Q 338.43 373.37 338.48 374.50
  Q 338.66 378.19 338.58 381.89
  Q 338.49 386.04 337.49 388.47
  Q 336.11 391.84 333.40 393.99"
/>
<path stroke="#af3b38" vector-effect="non-scaling-stroke" d="
  M 333.40 393.99
  Q 330.93 395.60 328.34 396.14"
/>
<path stroke="#be4037" vector-effect="non-scaling-stroke" d="
  M 174.16 408.22
  Q 213.14 408.26 252.00 408.30
  Q 301.05 408.35 326.00 407.98
  Q 329.61 407.92 333.28 405.69
  C 337.06 403.39 336.88 397.31 336.51 393.51
  Q 336.44 392.89 335.86 393.10
  L 333.40 393.99"
/>
<path stroke="#af3b38" vector-effect="non-scaling-stroke" d="
  M 310.26 397.46
  Q 308.86 396.94 307.01 396.95
  Q 257.94 397.13 173.74 396.97"
/>
<path stroke="#653c59" vector-effect="non-scaling-stroke" d="
  M 345.28 399.88
  Q 345.11 401.87 344.87 403.70
  Q 344.77 404.44 345.47 404.19
  C 352.40 401.80 360.73 395.96 360.76 388.11
  Q 360.80 380.88 360.69 373.14
  Q 360.67 372.27 359.80 372.27
  L 358.77 372.26
  Q 357.72 372.26 357.73 373.31
  Q 357.87 381.11 357.59 390.52
  Q 357.53 392.54 356.01 393.69
  Q 355.77 393.86 355.48 393.92
  Q 353.98 394.20 353.97 392.68
  L 353.85 373.32
  A 1.02 1.02 0.0 0 0 352.82 372.31
  L 346.54 372.35
  A 1.05 1.04 -1.8 0 0 345.50 373.45
  Q 346.32 388.13 345.28 399.88"
/>
<path stroke="#481129" vector-effect="non-scaling-stroke" d="
  M 366.96 372.73
  Q 365.21 372.42 365.33 374.19
  Q 365.63 378.62 365.55 383.54
  Q 365.45 389.20 365.06 392.21
  Q 364.50 396.47 362.65 399.63
  Q 360.20 403.81 356.77 405.88
  Q 354.55 407.23 357.13 407.00
  C 364.44 406.36 370.16 396.47 371.25 390.41
  Q 372.27 384.78 372.02 375.34
  Q 371.97 373.64 370.30 373.34
  L 366.96 372.73"
/>
<path stroke="#89302e" vector-effect="non-scaling-stroke" d="
  M 151.62 395.73
  L 152.06 407.77"
/>
<path stroke="#641a2a" vector-effect="non-scaling-stroke" d="
  M 152.06 407.77
  Q 152.65 411.18 155.11 413.09
  Q 155.54 413.42 156.08 413.42
  L 169.14 413.32
  A 0.40 0.39 -8.4 0 0 169.52 412.82
  L 168.24 408.17"
/>
<path stroke="#55142b" vector-effect="non-scaling-stroke" d="
  M 168.24 408.17
  L 168.11 403.04"
/>
<path stroke="#89302e" vector-effect="non-scaling-stroke" d="
  M 168.11 403.04
  L 168.19 396.65"
/>
<path stroke="#55142b" vector-effect="non-scaling-stroke" d="
  M 168.19 396.65
  Q 168.66 395.28 168.33 393.47
  Q 167.98 391.47 165.96 391.67
  Q 158.73 392.40 152.62 391.53
  A 1.02 1.02 0.0 0 0 151.51 392.23
  Q 150.96 393.94 151.62 395.73"
/>
<path stroke="#af3b38" vector-effect="non-scaling-stroke" d="
  M 168.19 396.65
  Q 163.58 396.94 168.11 403.04"
/>
<path stroke="#8a2534" vector-effect="non-scaling-stroke" d="
  M 168.24 408.17
  L 162.81 407.62"
/>
<path stroke="#af3b38" vector-effect="non-scaling-stroke" d="
  M 162.81 407.62
  Q 158.58 406.01 158.29 402.50
  Q 158.13 400.38 157.85 398.20
  Q 157.79 397.70 157.31 397.55
  L 151.62 395.73"
/>
<path stroke="#be4037" vector-effect="non-scaling-stroke" d="
  M 162.81 407.62
  Q 157.70 409.13 152.06 407.77"
/>
<path stroke="#55142b" vector-effect="non-scaling-stroke" d="
  M 269.67 429.32
  C 273.19 436.03 282.98 437.06 287.90 431.65
  Q 289.02 430.43 287.10 428.77"
/>
<path stroke="#481129" vector-effect="non-scaling-stroke" d="
  M 287.10 428.77
  Q 279.66 424.55 270.04 423.32
  Q 268.58 423.13 268.50 424.59
  Q 268.39 426.79 269.67 429.32"
/>
<path stroke="#6d1c33" vector-effect="non-scaling-stroke" d="
  M 287.10 428.77
  Q 279.07 427.84 270.81 427.72
  Q 270.03 427.71 269.82 428.09
  Q 269.60 428.51 269.67 429.32"
/>
<path stroke="#55142b" vector-effect="non-scaling-stroke" d="
  M 213.77 427.39
  Q 217.69 437.65 228.65 434.18
  Q 231.41 433.31 232.39 431.50
  Q 233.59 429.30 230.39 428.50"
/>
<path stroke="#481129" vector-effect="non-scaling-stroke" d="
  M 230.39 428.50
  C 225.71 425.56 220.49 424.59 215.20 423.31
  A 1.42 1.41 -86.4 0 0 213.46 424.85
  L 213.77 427.39"
/>
<path stroke="#6d1c33" vector-effect="non-scaling-stroke" d="
  M 230.39 428.50
  Q 224.58 427.84 219.00 427.58
  Q 217.20 427.49 215.50 426.97
  Q 214.68 426.71 213.77 427.39"
/>
<path stroke="#89302e" vector-effect="non-scaling-stroke" d="
  M 322.28 190.24
  Q 323.06 191.92 323.01 193.85
  Q 322.90 198.88 323.13 203.34
  Q 323.26 205.77 325.65 206.19
  Q 325.96 206.25 326.25 206.14
  Q 328.02 205.50 328.09 204.31
  Q 328.43 198.45 328.16 192.78
  Q 327.89 187.05 323.69 184.90
  Q 321.38 183.72 315.90 183.87
  Q 310.18 184.03 304.85 184.07
  Q 302.73 184.09 302.74 186.21
  L 302.75 186.60
  Q 302.77 189.18 305.35 189.21
  L 320.89 189.34
  A 1.55 1.55 0.0 0 1 322.28 190.24"
/>
<path stroke="#be4037" vector-effect="non-scaling-stroke" d="
  M 210.76 188.42
  Q 213.42 187.40 212.61 185.88
  A 1.28 1.27 -49.6 0 0 210.28 186.07
  Q 209.98 186.97 210.09 188.01
  Q 210.16 188.65 210.76 188.42"
/>
<path stroke="#af3b38" vector-effect="non-scaling-stroke" d="
  M 318.05 199.16
  L 317.96 205.75
  A 0.64 0.64 0.0 0 0 318.63 206.40
  L 319.03 206.38
  A 0.90 0.90 0.0 0 0 319.88 205.56
  L 320.46 199.03"
/>
<path stroke="#89302e" vector-effect="non-scaling-stroke" d="
  M 320.46 199.03
  Q 320.32 192.49 312.28 191.91
  A 1.66 1.66 0.0 0 0 310.60 193.00
  C 310.07 194.43 311.10 195.39 312.26 195.96
  Q 315.30 197.44 318.05 199.16"
/>
<path stroke="#55142b" vector-effect="non-scaling-stroke" d="
  M 320.46 199.03
  L 318.05 199.16"
/>
<path stroke="#8b382f" vector-effect="non-scaling-stroke" d="
  M 186.2910 219.2467
  A 1.12 0.91 76.0 0 0 186.9030 217.9399
  A 1.12 0.91 76.0 0 0 185.7490 217.0733
  A 1.12 0.91 76.0 0 0 185.1370 218.3801
  A 1.12 0.91 76.0 0 0 186.2910 219.2467"
/>
<path stroke="#af3b38" vector-effect="non-scaling-stroke" d="
  M 186.9113 222.8490
  A 0.80 0.80 0.0 0 0 186.1197 222.0407
  L 186.0197 222.0396
  A 0.80 0.80 0.0 0 0 185.2114 222.8312
  L 185.1687 226.9110
  A 0.80 0.80 0.0 0 0 185.9603 227.7193
  L 186.0603 227.7204
  A 0.80 0.80 0.0 0 0 186.8686 226.9288
  L 186.9113 222.8490"
/>
<path stroke="#be4037" vector-effect="non-scaling-stroke" d="
  M 317.2328 236.1020
  A 1.67 0.99 114.3 0 0 318.8223 234.9874
  A 1.67 0.99 114.3 0 0 318.6072 233.0580
  A 1.67 0.99 114.3 0 0 317.0177 234.1726
  A 1.67 0.99 114.3 0 0 317.2328 236.1020"
/>
<path stroke="#89302e" vector-effect="non-scaling-stroke" d="
  M 193.8413 279.8300
  A 10.11 9.65 95.1 0 0 204.3518 270.6178
  A 10.11 9.65 95.1 0 0 195.6387 259.6900
  A 10.11 9.65 95.1 0 0 185.1282 268.9022
  A 10.11 9.65 95.1 0 0 193.8413 279.8300"
/>
<path stroke="#89302e" vector-effect="non-scaling-stroke" d="
  M 279.5662 279.6441
  A 10.14 9.68 102.9 0 0 291.2657 271.9211
  A 10.14 9.68 102.9 0 0 284.0938 259.8759
  A 10.14 9.68 102.9 0 0 272.3943 267.5989
  A 10.14 9.68 102.9 0 0 279.5662 279.6441"
/>
<path stroke="#89302e" vector-effect="non-scaling-stroke" d="
  M 241.08 271.94
  L 241.85 272.87
  Q 242.20 273.29 242.73 273.41
  C 248.69 274.71 249.87 265.16 244.94 263.85
  Q 243.75 263.53 242.71 264.14
  Q 238.52 266.58 233.66 264.02
  Q 231.73 263.00 230.26 264.42
  Q 227.45 267.14 228.97 271.21
  C 229.86 273.59 232.97 274.35 234.81 272.62
  Q 236.81 270.74 240.50 271.58
  A 1.06 1.05 76.4 0 1 241.08 271.94"
/>
<path stroke="#cc7140" vector-effect="non-scaling-stroke" d="
  M 291.52 327.43
  Q 292.51 328.92 294.05 330.12"
/>
<path stroke="#f18744" vector-effect="non-scaling-stroke" d="
  M 294.05 330.12
  Q 297.59 331.87 301.26 327.78
  Q 301.30 327.74 302.76 325.77
  Q 304.67 323.22 306.90 321.68
  Q 309.23 320.07 310.94 317.84
  Q 311.27 317.41 311.80 317.34
  Q 312.02 317.32 312.16 317.16
  Q 314.47 314.54 316.86 311.59
  Q 318.08 310.10 317.28 308.05"
/>
<path stroke="#cc7140" vector-effect="non-scaling-stroke" d="
  M 317.28 308.05
  Q 316.69 306.62 315.57 305.76"
/>
<path stroke="#f18744" vector-effect="non-scaling-stroke" d="
  M 315.57 305.76
  Q 315.33 305.04 314.60 304.82
  Q 310.92 303.65 308.07 306.58
  Q 300.38 314.51 292.41 322.15
  Q 289.81 324.65 291.52 327.43"
/>
<path stroke="#be4037" vector-effect="non-scaling-stroke" d="
  M 315.57 305.76
  Q 315.47 305.84 315.33 305.86
  Q 315.05 305.92 315.09 306.20
  C 315.31 307.90 315.17 309.18 313.79 310.45
  Q 305.58 318.04 297.14 326.65
  Q 295.50 328.32 291.52 327.43"
/>
<path stroke="#be4037" vector-effect="non-scaling-stroke" d="
  M 317.28 308.05
  Q 317.35 309.87 315.89 311.14
  Q 306.68 319.17 298.25 328.01
  Q 296.75 329.59 294.05 330.12"
/>
<path stroke="#976037" vector-effect="non-scaling-stroke" d="
  M 225.80 321.20
  Q 225.79 320.04 226.56 320.91
  Q 230.47 325.36 234.78 331.51
  Q 235.92 333.14 237.68 333.50
  A 1.83 1.83 0.0 0 0 239.87 331.72
  L 239.95 312.05
  A 1.64 1.64 0.0 0 0 239.24 310.70
  Q 237.84 309.75 236.33 310.87
  A 2.03 2.02 -18.6 0 0 235.52 312.49
  L 235.48 321.81
  Q 235.47 324.75 233.73 322.38
  Q 230.06 317.39 226.52 312.36
  C 224.93 310.10 221.18 309.38 221.09 313.10
  Q 220.86 322.18 221.04 331.35
  A 2.05 2.04 -75.4 0 0 222.05 333.08
  Q 223.11 333.70 224.07 333.46
  Q 225.82 333.02 225.81 331.22
  L 225.80 321.20"
/>
<path stroke="#976037" vector-effect="non-scaling-stroke" d="
  M 253.7804 333.9374
  A 11.92 10.37 91.2 0 0 264.3977 322.2372
  A 11.92 10.37 91.2 0 0 254.2796 310.1026
  A 11.92 10.37 91.2 0 0 243.6623 321.8028
  A 11.92 10.37 91.2 0 0 253.7804 333.9374"
/>
<path stroke="#996838" vector-effect="non-scaling-stroke" d="
  M 215.83 362.00
  Q 215.32 357.59 215.69 351.57
  C 216.04 345.71 223.25 344.37 225.15 349.86
  Q 225.48 350.84 226.51 350.82
  L 229.70 350.78
  Q 230.79 350.76 230.53 349.71
  Q 228.77 342.51 221.42 342.06
  C 212.93 341.54 210.22 347.01 210.31 354.39
  C 210.37 360.01 209.61 364.79 214.54 368.79
  Q 217.34 371.07 220.83 370.74
  Q 228.12 370.05 230.60 362.69
  A 0.72 0.72 0.0 0 0 229.94 361.74
  L 226.92 361.64
  Q 225.80 361.61 225.31 362.61
  Q 223.74 365.76 220.07 365.66
  C 218.10 365.60 216.06 363.97 215.83 362.00"
/>
<path stroke="#996838" vector-effect="non-scaling-stroke" d="
  M 310.27 364.49
  C 306.47 366.87 302.29 365.77 298.52 363.90
  Q 297.72 363.50 297.07 364.12
  L 295.33 365.79
  Q 294.41 366.68 295.44 367.43
  Q 301.66 371.97 309.41 370.21
  C 313.29 369.33 316.02 366.59 316.12 362.48
  C 316.29 355.48 310.46 354.50 304.99 353.54
  Q 303.00 353.19 301.97 351.96
  C 300.75 350.50 301.38 347.89 302.97 346.96
  C 305.78 345.32 309.91 346.60 312.33 348.38
  A 0.72 0.72 0.0 0 0 313.34 348.23
  L 315.47 345.28
  Q 315.93 344.65 315.23 344.29
  C 308.12 340.62 294.82 340.14 296.35 351.96
  C 297.09 357.77 303.07 358.15 307.43 359.20
  C 309.91 359.79 311.72 360.87 310.88 363.69
  Q 310.73 364.21 310.27 364.49"
/>
<path stroke="#996838" vector-effect="non-scaling-stroke" d="
  M 166.00 358.99
  L 169.42 359.01
  Q 170.16 359.01 170.50 359.66
  L 175.71 369.37
  Q 176.22 370.32 177.31 370.32
  L 180.58 370.30
  A 0.65 0.64 -13.9 0 0 181.15 369.36
  L 175.89 359.14
  Q 175.62 358.62 176.09 358.27
  Q 180.43 355.01 180.15 349.64
  C 179.85 343.89 176.04 342.03 170.72 342.16
  Q 165.73 342.27 160.98 342.20
  Q 160.20 342.19 160.20 342.97
  L 160.20 369.74
  Q 160.20 370.29 160.74 370.29
  L 164.72 370.29
  Q 165.22 370.29 165.22 369.78
  L 165.22 359.75
  Q 165.22 358.98 166.00 358.99"
/>
<path stroke="#996838" vector-effect="non-scaling-stroke" d="
  M 192.28 365.50
  A 0.56 0.56 0.0 0 1 191.72 364.94
  L 191.75 359.36
  A 0.56 0.56 0.0 0 1 192.31 358.80
  L 202.79 358.84
  A 0.56 0.56 0.0 0 0 203.35 358.27
  L 203.26 354.47
  A 0.56 0.56 0.0 0 0 202.70 353.92
  L 192.29 353.97
  A 0.56 0.56 0.0 0 1 191.73 353.41
  L 191.74 347.11
  A 0.56 0.56 0.0 0 1 192.30 346.55
  L 204.91 346.58
  A 0.56 0.56 0.0 0 0 205.47 346.03
  L 205.51 342.77
  A 0.56 0.56 0.0 0 0 204.95 342.20
  L 187.26 342.21
  A 0.56 0.56 0.0 0 0 186.70 342.77
  L 186.70 369.76
  A 0.56 0.56 0.0 0 0 187.26 370.32
  L 204.95 370.30
  A 0.56 0.56 0.0 0 0 205.51 369.74
  L 205.50 366.06
  A 0.56 0.56 0.0 0 0 204.94 365.50
  L 192.28 365.50"
/>
<path stroke="#996838" vector-effect="non-scaling-stroke" d="
  M 240.30 342.91
  A 0.68 0.68 0.0 0 0 239.62 342.23
  L 236.46 342.23
  A 0.68 0.68 0.0 0 0 235.78 342.91
  L 235.78 369.67
  A 0.68 0.68 0.0 0 0 236.46 370.35
  L 239.62 370.35
  A 0.68 0.68 0.0 0 0 240.30 369.67
  L 240.30 342.91"
/>
<path stroke="#996838" vector-effect="non-scaling-stroke" d="
  M 253.01 360.01
  C 255.68 359.94 258.82 360.36 261.33 359.56
  Q 267.71 357.53 267.30 350.09
  Q 266.89 342.81 259.61 342.35
  Q 254.21 342.02 247.57 342.31
  A 0.30 0.29 -1.0 0 0 247.28 342.60
  L 247.27 369.54
  Q 247.27 370.31 248.04 370.31
  L 251.73 370.31
  Q 252.51 370.31 252.51 369.52
  L 252.49 360.54
  Q 252.49 360.02 253.01 360.01"
/>
<path stroke="#996838" vector-effect="non-scaling-stroke" d="
  M 277.94 353.97
  A 0.62 0.62 0.0 0 1 277.32 353.35
  L 277.31 347.16
  A 0.62 0.62 0.0 0 1 277.93 346.54
  L 290.41 346.58
  A 0.62 0.62 0.0 0 0 291.03 345.97
  L 291.06 342.83
  A 0.62 0.62 0.0 0 0 290.44 342.20
  L 272.89 342.21
  A 0.62 0.62 0.0 0 0 272.27 342.83
  L 272.27 369.67
  A 0.62 0.62 0.0 0 0 272.89 370.29
  L 290.47 370.32
  A 0.62 0.62 0.0 0 0 291.09 369.69
  L 291.04 366.11
  A 0.62 0.62 0.0 0 0 290.42 365.50
  L 277.91 365.50
  A 0.62 0.62 0.0 0 1 277.29 364.88
  L 277.31 359.42
  A 0.62 0.62 0.0 0 1 277.93 358.80
  L 288.41 358.78
  A 0.62 0.62 0.0 0 0 289.03 358.15
  L 288.97 354.52
  A 0.62 0.62 0.0 0 0 288.35 353.91
  L 277.94 353.97"
/>
<path stroke="#976037" vector-effect="non-scaling-stroke" d="
  M 254.0781 328.8996
  A 6.87 5.85 90.6 0 0 259.9997 322.0913
  A 6.87 5.85 90.6 0 0 254.2219 315.1604
  A 6.87 5.85 90.6 0 0 248.3003 321.9687
  A 6.87 5.85 90.6 0 0 254.0781 328.8996"
/>
<path stroke="#996838" vector-effect="non-scaling-stroke" d="
  M 165.23 346.94
  L 165.21 353.78
  A 0.42 0.42 0.0 0 0 165.63 354.20
  L 171.92 354.21
  A 3.35 3.35 0.0 0 0 175.28 350.87
  L 175.28 349.89
  A 3.35 3.35 0.0 0 0 171.94 346.53
  L 165.65 346.52
  A 0.42 0.42 0.0 0 0 165.23 346.94"
/>
<path stroke="#996838" vector-effect="non-scaling-stroke" d="
  M 252.51 347.20
  L 252.49 354.54
  A 0.69 0.69 0.0 0 0 253.18 355.23
  L 258.39 355.24
  A 4.02 3.80 -89.9 0 0 262.20 351.23
  L 262.20 350.55
  A 4.02 3.80 -89.9 0 0 258.41 346.52
  L 253.20 346.51
  A 0.69 0.69 0.0 0 0 252.51 347.20"
/>
</g>
<path fill="#7a1f35" d="
  M 277.19 70.49
  Q 277.14 70.65 277.14 70.78
  Q 277.16 71.12 277.51 71.09
  Q 277.76 71.06 277.96 71.17
  Q 278.09 71.23 278.16 71.38
  Q 279.13 73.61 278.84 76.37
  Q 278.80 76.74 278.46 76.62
  Q 278.24 76.55 278.05 76.63
  Q 277.56 76.84 278.03 77.09
  Q 278.42 77.29 278.46 77.73
  Q 259.71 72.51 245.61 85.16
  Q 245.13 85.59 244.49 85.53
  Q 235.98 84.69 228.77 84.80
  Q 219.34 84.94 210.61 91.56
  Q 203.92 96.64 201.88 104.54
  Q 199.83 112.48 202.40 119.81
  Q 197.92 120.80 195.03 119.69
  C 192.86 113.42 193.94 105.73 196.19 99.71
  Q 198.83 92.64 204.35 87.74
  C 214.89 78.37 227.81 75.84 241.48 78.85
  C 242.68 79.11 243.73 78.71 244.57 77.88
  C 249.15 73.35 256.12 71.27 262.49 70.04
  Q 268.83 68.82 277.19 70.49
  Z"
/>
<path fill="#2f0921" d="
  M 277.19 70.49
  Q 290.44 73.28 299.07 83.69
  Q 299.88 84.66 301.05 84.19
  C 313.16 79.33 325.93 82.95 335.63 91.51
  Q 342.15 97.27 344.81 106.17
  Q 348.49 118.52 343.06 131.79
  Q 342.09 134.18 340.56 135.94
  C 338.94 137.81 337.61 139.92 335.66 141.45
  Q 331.01 145.10 324.04 148.04
  Q 322.85 148.55 324.10 148.87
  Q 324.54 148.98 324.98 148.98
  Q 337.48 148.94 350.66 148.96
  Q 356.77 148.97 361.31 150.66
  C 364.85 151.98 368.64 155.07 371.20 157.79
  C 376.02 162.92 377.85 170.86 377.87 178.42
  Q 378.01 247.94 377.86 317.80
  Q 377.86 318.40 378.27 318.83
  Q 380.55 321.18 383.16 323.45
  C 384.65 324.75 385.34 326.41 386.50 327.95
  C 392.59 336.05 397.35 349.71 392.66 359.47
  Q 388.16 368.85 378.59 371.79
  A 1.16 1.15 -8.3 0 0 377.77 372.88
  C 377.66 378.90 378.06 385.01 376.94 391.02
  Q 374.52 404.12 362.49 411.17
  Q 358.27 413.64 350.19 415.14
  Q 340.90 416.85 332.54 418.46
  C 324.33 420.03 315.92 419.95 307.42 419.75
  A 1.21 1.21 0.0 0 0 306.18 420.97
  L 306.27 429.59
  Q 306.28 430.29 306.97 430.28
  L 359.46 430.09
  L 355.90 436.87
  Q 355.81 437.04 355.81 437.24
  Q 355.83 437.69 356.03 437.61
  Q 356.83 437.30 356.39 438.04
  Q 355.06 440.28 353.47 442.21
  C 353.15 442.59 353.10 443.09 352.95 443.56
  Q 352.78 444.07 352.31 444.33
  Q 351.86 444.58 351.47 445.06
  Q 350.97 445.66 351.72 445.88
  L 353.30 446.34
  Q 349.81 446.66 348.75 446.67
  Q 324.37 446.76 300.00 447.30
  C 279.67 447.74 259.10 447.41 239.01 447.48
  C 224.23 447.54 209.24 446.97 194.40 446.77
  Q 187.95 446.69 181.12 446.29
  C 175.13 445.94 169.19 445.86 163.16 445.33
  Q 153.66 444.48 143.43 443.46
  Q 138.22 442.93 134.30 441.32
  A 0.59 0.59 0.0 0 1 134.07 440.40
  C 135.89 438.17 140.85 437.65 143.57 437.21
  Q 155.66 435.24 167.82 434.36
  Q 186.84 433.00 206.54 432.09
  A 0.83 0.83 0.0 0 0 207.32 431.12
  Q 206.51 426.34 206.95 421.11
  A 1.25 1.24 7.7 0 0 205.94 419.79
  Q 204.59 419.53 203.25 419.52
  Q 179.34 419.27 157.33 419.76
  Q 148.95 419.95 139.70 414.24
  Q 137.30 412.76 135.15 410.02
  Q 132.97 407.25 131.12 404.66
  C 127.69 399.84 126.57 393.73 126.50 387.83
  Q 126.40 379.61 126.52 372.15
  A 1.35 1.34 14.7 0 0 125.80 370.93
  C 120.08 367.94 115.07 362.25 114.30 355.58
  Q 112.04 335.98 125.88 322.59
  Q 126.24 322.24 126.32 321.74
  Q 126.51 320.49 126.51 319.21
  Q 126.54 252.47 126.46 187.42
  Q 126.45 176.35 127.32 170.41
  Q 128.53 162.06 135.74 153.98
  Q 141.49 147.52 149.36 145.39
  Q 160.96 142.25 174.00 142.42
  Q 193.73 142.68 214.00 142.39
  Q 214.90 142.37 215.41 142.10
  A 0.68 0.67 -49.5 0 0 215.32 140.87
  C 213.33 140.16 211.45 139.69 209.61 138.52
  Q 204.70 135.40 203.29 134.17
  Q 197.09 128.75 195.03 119.69
  Q 197.92 120.80 202.40 119.81
  Q 205.53 127.19 210.92 130.44
  Q 217.80 135.42 224.26 135.19
  Q 231.87 134.93 240.13 135.16
  Q 231.90 141.55 222.52 141.04
  A 0.48 0.48 0.0 0 0 222.01 141.52
  L 222.00 164.21
  A 0.25 0.25 0.0 0 0 222.25 164.46
  L 281.61 164.41
  L 306.53 164.39
  L 312.95 164.31
  Q 313.49 164.30 313.49 163.77
  L 313.51 151.94
  A 2.26 2.25 -66.0 0 0 312.94 150.44
  L 307.33 144.23
  L 306.22 142.62
  Q 305.44 141.47 306.81 141.72
  C 313.03 142.87 319.24 142.52 324.98 139.38
  C 331.38 135.87 335.81 132.03 338.07 124.66
  Q 339.65 119.53 339.17 114.06
  Q 337.72 97.33 320.92 90.97
  Q 309.59 86.68 298.93 93.06
  A 1.92 1.91 58.8 0 1 296.32 92.41
  Q 292.23 85.69 285.28 81.59
  Q 282.56 79.19 278.46 77.73
  Q 278.42 77.29 278.03 77.09
  Q 277.56 76.84 278.05 76.63
  Q 278.24 76.55 278.46 76.62
  Q 278.80 76.74 278.84 76.37
  Q 279.13 73.61 278.16 71.38
  Q 278.09 71.23 277.96 71.17
  Q 277.76 71.06 277.51 71.09
  Q 277.16 71.12 277.14 70.78
  Q 277.14 70.65 277.19 70.49
  Z
  M 134.26 336.84
  L 139.36 336.99
  Q 140.20 337.01 140.20 336.17
  Q 140.27 319.77 140.18 305.50
  Q 140.15 299.85 142.89 295.66
  Q 144.44 294.65 145.55 293.24
  Q 146.53 291.99 146.55 289.96
  Q 146.87 232.67 146.71 175.32
  Q 147.19 174.49 147.28 173.56
  Q 147.69 173.18 147.80 172.72
  L 151.72 167.84
  Q 152.24 167.19 151.43 166.99
  C 148.04 166.15 145.01 162.84 146.12 159.23
  Q 146.65 157.51 147.98 156.73
  Q 152.36 154.14 158.26 153.10
  Q 161.58 152.52 164.71 151.33
  Q 168.42 150.70 170.78 149.82
  Q 173.23 148.90 170.61 148.81
  C 167.33 148.71 163.82 148.48 160.57 149.14
  C 157.41 149.78 154.19 149.78 151.04 150.62
  C 145.00 152.23 138.30 156.52 135.40 162.38
  Q 131.56 170.16 131.55 178.27
  Q 131.48 260.31 131.55 336.03
  Q 131.55 336.75 132.24 336.94
  Q 132.94 337.15 134.26 336.84
  Z
  M 177.28 151.24
  Q 176.55 152.91 177.28 155.27
  Q 177.43 155.73 177.91 155.74
  L 214.76 155.80
  Q 215.31 155.80 215.42 155.26
  Q 215.92 152.85 215.50 150.18
  Q 215.54 149.60 215.51 149.54
  A 1.17 1.16 -10.6 0 0 214.42 148.80
  Q 195.83 148.86 178.13 148.89
  Q 177.60 148.89 177.41 149.38
  Q 177.16 150.02 177.28 151.24
  Z
  M 366.03 167.89
  Q 365.32 192.98 365.46 218.32
  Q 365.46 218.46 365.53 218.66
  Q 365.59 218.83 365.59 219.00
  Q 365.75 277.25 365.35 335.78
  A 1.14 1.14 0.0 0 0 366.44 336.93
  Q 368.98 337.06 370.05 336.39
  Q 372.06 336.46 372.06 334.50
  Q 372.21 257.12 372.02 179.75
  Q 372.00 170.36 369.20 165.32
  Q 366.42 159.92 363.90 157.86
  Q 361.59 155.98 357.53 155.68
  Q 356.10 154.92 354.75 154.94
  Q 338.91 155.20 321.85 155.06
  A 0.68 0.68 0.0 0 0 321.17 155.82
  L 321.39 157.81
  Q 321.48 158.59 322.27 158.58
  Q 345.97 158.35 353.27 158.85
  Q 361.59 159.42 366.03 167.89
  Z
  M 172.18 158.98
  L 171.89 157.23
  A 0.52 0.52 0.0 0 0 171.29 156.80
  L 168.80 157.21
  A 12.97 1.26 -9.3 0 0 156.20 160.55
  L 156.25 160.84
  A 12.97 1.26 -9.3 0 0 169.25 159.99
  L 171.75 159.58
  A 0.52 0.52 0.0 0 0 172.18 158.98
  Z
  M 215.5600 163.1093
  A 1.07 1.07 0.0 0 0 214.4919 162.0375
  L 194.4919 162.0025
  A 1.07 1.07 0.0 0 0 193.4201 163.0707
  L 193.4200 163.1307
  A 1.07 1.07 0.0 0 0 194.4881 164.2025
  L 214.4881 164.2375
  A 1.07 1.07 0.0 0 0 215.5599 163.1693
  L 215.5600 163.1093
  Z
  M 188.97 163.92
  L 189.07 162.66
  A 0.28 0.28 0.0 0 0 188.82 162.36
  L 187.54 162.26
  A 2.86 0.78 4.6 0 0 184.63 162.80
  L 184.61 163.06
  A 2.86 0.78 4.6 0 0 187.39 164.07
  L 188.67 164.17
  A 0.28 0.28 0.0 0 0 188.97 163.92
  Z
  M 355.4803 165.1871
  A 0.27 0.27 0.0 0 0 355.2108 164.9166
  L 324.7508 164.8634
  A 0.27 0.27 0.0 0 0 324.4804 165.1329
  L 324.4797 165.5329
  A 0.27 0.27 0.0 0 0 324.7492 165.8034
  L 355.2092 165.8566
  A 0.27 0.27 0.0 0 0 355.4796 165.5871
  L 355.4803 165.1871
  Z
  M 151.88 178.08
  L 151.65 188.32
  Q 151.16 190.28 151.68 192.44
  Q 151.80 192.93 152.31 192.94
  L 164.72 193.21
  L 167.37 192.97
  A 1.22 1.21 -3.3 0 0 168.48 191.73
  L 168.25 184.55
  L 168.41 176.73
  L 169.55 173.00
  L 172.87 168.86
  Q 173.20 168.45 172.68 168.46
  L 158.75 168.48
  Q 158.14 168.48 157.66 168.85
  Q 153.13 172.33 151.88 178.08
  Z
  M 176.05 173.26
  Q 174.76 174.72 174.40 176.50
  Q 173.56 179.67 173.83 183.56
  A 0.75 0.75 0.0 0 0 174.73 184.24
  C 176.50 183.88 179.06 183.76 179.34 186.21
  C 179.76 189.97 176.53 189.18 174.27 189.24
  A 0.52 0.52 0.0 0 0 173.76 189.78
  Q 174.11 197.43 168.04 197.74
  C 163.73 197.97 159.30 197.89 154.84 197.94
  Q 153.41 197.77 152.45 198.27
  A 2.04 2.02 76.2 0 0 151.37 200.07
  L 151.28 289.78
  Q 151.28 290.36 151.86 290.30
  L 153.51 290.14
  Q 237.17 290.07 320.75 290.07
  Q 329.03 290.07 332.84 295.96
  L 334.83 300.71
  L 334.99 336.03
  A 0.94 0.94 0.0 0 0 336.00 336.97
  L 340.14 336.72
  Q 340.32 319.85 340.13 303.42
  C 340.12 302.35 340.43 301.07 340.42 299.75
  Q 339.91 253.91 340.25 200.01
  C 340.30 191.74 339.52 185.99 334.86 179.95
  Q 333.48 178.17 331.33 177.03
  L 330.80 176.78
  C 324.88 171.46 318.49 170.27 310.75 170.28
  Q 246.12 170.32 181.50 170.18
  Q 177.62 170.17 176.05 173.26
  Z
  M 343.65 183.47
  L 345.13 188.08
  Q 345.67 196.30 345.66 200.75
  Q 345.56 256.24 345.93 310.75
  Q 345.93 311.02 345.80 311.27
  Q 345.67 311.52 345.67 311.77
  Q 345.77 323.03 345.32 336.30
  A 0.43 0.42 -86.4 0 0 345.70 336.74
  Q 350.20 337.20 353.91 336.21
  Q 354.19 261.23 353.83 186.88
  Q 353.82 184.67 353.25 183.49
  C 351.17 178.98 348.17 177.22 344.10 175.23
  Q 343.46 174.92 343.48 174.18
  A 0.68 0.67 -86.8 0 1 344.21 173.52
  C 347.94 173.87 351.32 176.72 353.78 179.35
  C 355.27 181.81 357.73 184.88 357.73 187.75
  Q 357.78 262.12 357.74 336.12
  Q 357.74 336.94 358.56 336.90
  L 359.99 336.84
  A 0.91 0.91 0.0 0 0 360.86 335.93
  L 360.90 173.78
  Q 360.71 171.10 354.99 170.99
  Q 343.53 170.76 333.99 170.84
  Q 333.47 170.84 333.85 171.20
  C 337.51 174.57 341.99 178.53 343.65 183.47
  Z
  M 148.88 339.75
  C 154.39 345.52 154.73 354.05 152.17 361.18
  C 151.12 364.08 148.64 366.08 146.49 368.14
  Q 146.13 368.49 146.13 368.99
  L 146.18 377.20
  L 146.29 378.96
  Q 146.93 383.11 151.33 384.55
  Q 153.32 385.19 155.48 385.20
  Q 236.71 385.26 321.11 385.16
  C 330.18 385.15 328.54 376.10 328.36 370.15
  A 3.43 3.42 -64.2 0 0 327.71 368.27
  L 322.70 361.44
  Q 321.25 352.99 322.67 344.61
  L 327.83 338.43
  A 1.94 1.86 66.8 0 0 328.27 337.26
  Q 328.59 319.78 328.16 302.13
  Q 328.06 298.26 324.35 296.61
  Q 321.51 295.84 316.25 295.84
  Q 235.68 295.81 155.12 295.83
  Q 150.35 295.83 147.71 299.62
  Q 146.10 301.94 146.13 306.00
  Q 146.23 321.69 146.03 336.56
  Q 146.02 337.19 146.41 337.69
  Q 147.42 338.98 148.88 339.75
  Z
  M 378.78 336.46
  Q 375.51 342.85 367.23 342.91
  Q 354.52 342.99 340.75 342.88
  C 335.16 342.84 330.77 342.81 328.72 348.73
  Q 327.14 353.31 328.69 357.03
  Q 331.97 364.66 339.76 364.79
  Q 351.80 365.00 368.56 364.88
  Q 377.40 364.81 380.50 363.36
  Q 387.30 360.17 388.06 350.76
  Q 388.08 350.46 387.79 350.42
  L 387.54 350.38
  Q 387.48 350.37 387.47 350.44
  Q 386.90 353.60 384.85 356.09
  C 382.94 358.41 378.44 358.85 377.91 354.98
  C 379.00 352.65 381.29 353.26 382.17 351.07
  Q 383.58 347.59 385.18 344.05
  C 387.17 339.64 382.40 332.82 379.19 329.15
  Q 378.71 328.60 378.71 329.33
  L 378.78 336.46
  Z
  M 120.71 354.81
  Q 120.52 355.35 120.90 356.15
  Q 124.88 364.62 133.15 364.63
  C 139.21 364.63 144.42 363.09 146.34 357.01
  Q 148.27 350.91 144.98 345.60
  Q 144.02 344.83 143.56 344.79
  Q 142.06 343.38 140.12 343.17
  Q 134.30 342.52 127.90 343.07
  Q 125.50 339.12 126.20 333.12
  Q 126.26 332.59 125.77 332.41
  Q 125.52 332.33 125.27 332.38
  Q 124.89 332.47 124.60 333.00
  Q 121.65 338.21 120.17 344.02
  C 119.54 346.51 118.89 352.75 120.71 354.81
  Z
  M 134.43 399.20
  Q 135.52 404.14 140.39 407.61
  Q 143.45 409.79 146.91 411.24
  Q 147.40 411.44 147.33 410.91
  Q 147.22 410.19 146.82 409.55
  L 146.52 390.47
  Q 146.51 389.97 146.22 389.56
  Q 145.01 387.82 142.93 386.45
  Q 139.93 382.74 140.06 377.47
  Q 140.54 374.84 139.71 372.47
  Q 139.55 371.99 139.05 371.89
  Q 136.72 371.43 134.28 372.13
  Q 133.10 371.22 131.98 371.71
  Q 131.51 371.91 131.50 372.43
  Q 131.25 385.51 131.53 392.00
  Q 131.68 395.43 134.43 399.20
  Z
  M 328.34 396.14
  C 328.63 402.22 324.40 404.66 318.92 404.57
  Q 311.66 404.44 305.00 404.39
  Q 302.64 404.37 302.62 402.01
  L 302.62 401.47
  Q 302.60 399.13 304.94 399.11
  Q 313.56 399.05 319.39 399.15
  Q 320.83 399.18 322.30 398.66
  A 0.75 0.73 81.0 0 0 322.79 397.97
  L 322.90 393.31
  Q 322.94 391.84 322.03 392.99
  C 321.15 394.12 320.74 395.30 319.40 396.05
  Q 314.85 398.60 310.26 397.46
  L 310.57 395.12
  Q 310.64 394.59 311.07 394.29
  Q 312.53 393.25 314.68 392.70
  Q 314.76 392.68 314.75 392.60
  L 314.71 392.22
  A 0.52 0.51 86.9 0 0 314.20 391.76
  L 174.31 391.83
  A 0.40 0.39 -82.3 0 0 173.93 392.12
  Q 173.15 394.95 173.74 396.97
  Q 173.63 398.60 174.23 398.61
  Q 175.95 398.64 177.62 398.87
  A 2.22 2.20 -2.0 0 1 179.49 400.60
  C 180.18 403.87 177.12 404.46 174.77 404.13
  Q 174.05 404.03 173.93 404.76
  Q 173.64 406.57 174.16 408.22
  Q 174.20 408.84 174.93 410.84
  C 175.66 412.82 176.51 413.25 178.67 413.24
  Q 236.71 413.03 297.99 413.22
  C 305.02 413.24 311.95 413.52 319.07 413.55
  Q 322.21 413.56 324.59 412.93
  Q 327.02 412.29 329.62 411.93
  Q 331.41 411.68 333.06 410.44
  Q 334.35 409.47 335.56 408.42
  Q 337.79 406.48 339.00 402.80
  Q 340.26 398.97 340.18 393.00
  Q 340.05 382.88 340.08 373.19
  Q 340.09 372.68 339.62 372.47
  Q 339.21 372.28 339.07 372.51
  L 336.76 372.17
  A 0.92 0.92 0.0 0 0 335.70 373.02
  C 335.19 379.95 336.17 386.46 328.89 390.35
  Q 328.43 390.60 328.42 391.11
  L 328.34 396.14
  Z
  M 345.28 399.88
  Q 345.11 401.87 344.87 403.70
  Q 344.77 404.44 345.47 404.19
  C 352.40 401.80 360.73 395.96 360.76 388.11
  Q 360.80 380.88 360.69 373.14
  Q 360.67 372.27 359.80 372.27
  L 358.77 372.26
  Q 357.72 372.26 357.73 373.31
  Q 357.87 381.11 357.59 390.52
  Q 357.53 392.54 356.01 393.69
  Q 355.77 393.86 355.48 393.92
  Q 353.98 394.20 353.97 392.68
  L 353.85 373.32
  A 1.02 1.02 0.0 0 0 352.82 372.31
  L 346.54 372.35
  A 1.05 1.04 -1.8 0 0 345.50 373.45
  Q 346.32 388.13 345.28 399.88
  Z
  M 366.96 372.73
  Q 365.21 372.42 365.33 374.19
  Q 365.63 378.62 365.55 383.54
  Q 365.45 389.20 365.06 392.21
  Q 364.50 396.47 362.65 399.63
  Q 360.20 403.81 356.77 405.88
  Q 354.55 407.23 357.13 407.00
  C 364.44 406.36 370.16 396.47 371.25 390.41
  Q 372.27 384.78 372.02 375.34
  Q 371.97 373.64 370.30 373.34
  L 366.96 372.73
  Z
  M 151.62 395.73
  L 152.06 407.77
  Q 152.65 411.18 155.11 413.09
  Q 155.54 413.42 156.08 413.42
  L 169.14 413.32
  A 0.40 0.39 -8.4 0 0 169.52 412.82
  L 168.24 408.17
  L 168.11 403.04
  L 168.19 396.65
  Q 168.66 395.28 168.33 393.47
  Q 167.98 391.47 165.96 391.67
  Q 158.73 392.40 152.62 391.53
  A 1.02 1.02 0.0 0 0 151.51 392.23
  Q 150.96 393.94 151.62 395.73
  Z
  M 250.78 430.82
  A 0.43 0.43 0.0 0 0 251.21 431.25
  L 261.73 431.30
  A 0.43 0.43 0.0 0 0 262.16 430.86
  L 261.84 420.08
  A 0.43 0.43 0.0 0 0 261.41 419.66
  L 251.20 419.63
  A 0.43 0.43 0.0 0 0 250.77 420.06
  L 250.78 430.82
  Z
  M 269.67 429.32
  C 273.19 436.03 282.98 437.06 287.90 431.65
  Q 289.02 430.43 287.10 428.77
  Q 279.66 424.55 270.04 423.32
  Q 268.58 423.13 268.50 424.59
  Q 268.39 426.79 269.67 429.32
  Z
  M 213.77 427.39
  Q 217.69 437.65 228.65 434.18
  Q 231.41 433.31 232.39 431.50
  Q 233.59 429.30 230.39 428.50
  C 225.71 425.56 220.49 424.59 215.20 423.31
  A 1.42 1.41 -86.4 0 0 213.46 424.85
  L 213.77 427.39
  Z"
/>
<path fill="#fefee4" d="
  M 278.46 77.73
  Q 282.56 79.19 285.28 81.59
  Q 287.95 86.90 290.54 91.73
  Q 292.33 95.06 292.88 99.02
  Q 295.01 114.38 285.41 125.52
  Q 279.90 131.90 271.50 133.70
  Q 261.29 135.89 251.53 128.52
  Q 247.30 124.19 246.28 116.86
  C 246.09 115.51 245.42 114.48 243.87 114.57
  A 2.09 2.09 0.0 0 0 241.93 116.32
  L 241.35 119.79
  Q 240.12 121.94 238.97 123.98
  Q 237.69 126.25 235.79 127.42
  Q 225.02 134.06 210.92 130.44
  Q 205.53 127.19 202.40 119.81
  Q 199.83 112.48 201.88 104.54
  Q 203.92 96.64 210.61 91.56
  Q 219.34 84.94 228.77 84.80
  Q 235.98 84.69 244.49 85.53
  Q 245.13 85.59 245.61 85.16
  Q 259.71 72.51 278.46 77.73
  Z"
/>
<path fill="#c7a2a9" d="
  M 285.28 81.59
  Q 292.23 85.69 296.32 92.41
  A 1.92 1.91 58.8 0 0 298.93 93.06
  Q 309.59 86.68 320.92 90.97
  Q 337.72 97.33 339.17 114.06
  Q 339.65 119.53 338.07 124.66
  C 335.81 132.03 331.38 135.87 324.98 139.38
  C 319.24 142.52 313.03 142.87 306.81 141.72
  Q 305.44 141.47 306.22 142.62
  L 307.33 144.23
  Q 307.36 153.85 307.34 163.33
  Q 307.34 163.52 307.45 163.66
  Q 307.55 163.77 307.60 163.90
  Q 307.69 164.10 307.49 164.19
  Q 307.06 164.39 306.53 164.39
  L 281.61 164.41
  L 273.33 156.32
  L 273.62 147.74
  Q 273.65 146.88 274.51 146.87
  Q 288.70 146.56 299.50 135.57
  A 1.74 1.74 0.0 0 0 299.94 133.85
  C 299.07 130.83 296.69 130.95 294.63 132.47
  C 285.13 139.48 273.36 141.91 262.21 137.32
  Q 255.43 134.53 251.53 128.52
  Q 261.29 135.89 271.50 133.70
  Q 279.90 131.90 285.41 125.52
  Q 295.01 114.38 292.88 99.02
  Q 292.33 95.06 290.54 91.73
  Q 287.95 86.90 285.28 81.59
  Z"
/>
<path fill="#2f0921" d="
  M 251.53 128.52
  Q 255.43 134.53 262.21 137.32
  C 273.36 141.91 285.13 139.48 294.63 132.47
  C 296.69 130.95 299.07 130.83 299.94 133.85
  A 1.74 1.74 0.0 0 1 299.50 135.57
  Q 288.70 146.56 274.51 146.87
  Q 273.65 146.88 273.62 147.74
  L 273.33 156.32
  C 269.07 154.39 270.12 150.76 269.59 147.04
  Q 269.51 146.52 268.99 146.46
  C 260.61 145.54 252.26 140.33 246.62 133.44
  Q 242.26 127.95 241.35 119.79
  L 241.93 116.32
  A 2.09 2.09 0.0 0 1 243.87 114.57
  C 245.42 114.48 246.09 115.51 246.28 116.86
  Q 247.30 124.19 251.53 128.52
  Z"
/>
<path fill="#c7a2a9" d="
  M 241.35 119.79
  Q 242.26 127.95 246.62 133.44
  Q 241.87 136.53 240.13 135.16
  Q 231.87 134.93 224.26 135.19
  Q 217.80 135.42 210.92 130.44
  Q 225.02 134.06 235.79 127.42
  Q 237.69 126.25 238.97 123.98
  Q 240.12 121.94 241.35 119.79
  Z"
/>
<path fill="#fefee4" d="
  M 246.62 133.44
  C 252.26 140.33 260.61 145.54 268.99 146.46
  Q 269.51 146.52 269.59 147.04
  C 270.12 150.76 269.07 154.39 273.33 156.32
  L 281.61 164.41
  L 222.25 164.46
  A 0.25 0.25 0.0 0 1 222.00 164.21
  L 222.01 141.52
  A 0.48 0.48 0.0 0 1 222.52 141.04
  Q 231.90 141.55 240.13 135.16
  Q 241.87 136.53 246.62 133.44
  Z"
/>
<path fill="#714c6d" d="
  M 307.33 144.23
  L 312.94 150.44
  A 2.26 2.25 -66.0 0 1 313.51 151.94
  L 313.49 163.77
  Q 313.49 164.30 312.95 164.31
  L 306.53 164.39
  Q 307.06 164.39 307.49 164.19
  Q 307.69 164.10 307.60 163.90
  Q 307.55 163.77 307.45 163.66
  Q 307.34 163.52 307.34 163.33
  Q 307.36 153.85 307.33 144.23
  Z"
/>
<path fill="#fff6e3" d="
  M 164.71 151.33
  Q 151.51 149.32 142.06 157.66
  C 135.99 163.02 141.45 169.82 147.28 171.66
  Q 148.13 171.93 147.80 172.72
  Q 147.69 173.18 147.28 173.56
  Q 144.45 173.20 141.70 172.43
  C 136.70 171.02 134.72 177.44 134.73 181.25
  Q 134.87 254.88 134.65 327.00
  Q 134.63 332.02 134.26 336.84
  Q 132.94 337.15 132.24 336.94
  Q 131.55 336.75 131.55 336.03
  Q 131.48 260.31 131.55 178.27
  Q 131.56 170.16 135.40 162.38
  C 138.30 156.52 145.00 152.23 151.04 150.62
  C 154.19 149.78 157.41 149.78 160.57 149.14
  C 163.82 148.48 167.33 148.71 170.61 148.81
  Q 173.23 148.90 170.78 149.82
  Q 168.42 150.70 164.71 151.33
  Z"
/>
<path fill="#feb74d" d="
  M 215.50 150.18
  L 214.74 150.99
  Q 214.39 151.37 213.87 151.36
  L 177.28 151.24
  Q 177.16 150.02 177.41 149.38
  Q 177.60 148.89 178.13 148.89
  Q 195.83 148.86 214.42 148.80
  A 1.17 1.16 -10.6 0 1 215.51 149.54
  Q 215.54 149.60 215.50 150.18
  Z"
/>
<path fill="#992a33" d="
  M 215.50 150.18
  Q 215.92 152.85 215.42 155.26
  Q 215.31 155.80 214.76 155.80
  L 177.91 155.74
  Q 177.43 155.73 177.28 155.27
  Q 176.55 152.91 177.28 151.24
  L 213.87 151.36
  Q 214.39 151.37 214.74 150.99
  L 215.50 150.18
  Z"
/>
<path fill="#f2764a" d="
  M 164.71 151.33
  Q 161.58 152.52 158.26 153.10
  Q 152.36 154.14 147.98 156.73
  Q 146.65 157.51 146.12 159.23
  C 145.01 162.84 148.04 166.15 151.43 166.99
  Q 152.24 167.19 151.72 167.84
  L 147.80 172.72
  Q 148.13 171.93 147.28 171.66
  C 141.45 169.82 135.99 163.02 142.06 157.66
  Q 151.51 149.32 164.71 151.33
  Z"
/>
<path fill="#7a1f35" d="
  M 357.53 155.68
  Q 356.88 155.49 356.41 155.85
  A 0.28 0.27 34.7 0 0 356.50 156.33
  Q 363.30 158.52 369.20 165.32
  Q 372.00 170.36 372.02 179.75
  Q 372.21 257.12 372.06 334.50
  Q 372.06 336.46 370.05 336.39
  Q 369.54 273.63 369.87 211.00
  Q 369.95 194.86 369.61 178.75
  Q 369.48 172.36 366.03 167.89
  Q 361.59 159.42 353.27 158.85
  Q 345.97 158.35 322.27 158.58
  Q 321.48 158.59 321.39 157.81
  L 321.17 155.82
  A 0.68 0.68 0.0 0 1 321.85 155.06
  Q 338.91 155.20 354.75 154.94
  Q 356.10 154.92 357.53 155.68
  Z"
/>
<path fill="#feb74d" d="
  M 357.53 155.68
  Q 361.59 155.98 363.90 157.86
  Q 366.42 159.92 369.20 165.32
  Q 363.30 158.52 356.50 156.33
  A 0.28 0.27 34.7 0 1 356.41 155.85
  Q 356.88 155.49 357.53 155.68
  Z"
/>
<path fill="#7a1f35" d="
  M 172.18 158.98
  A 0.52 0.52 0.0 0 1 171.75 159.58
  L 169.25 159.99
  A 12.97 1.26 -9.3 0 1 156.25 160.84
  L 156.20 160.55
  A 12.97 1.26 -9.3 0 1 168.80 157.21
  L 171.29 156.80
  A 0.52 0.52 0.0 0 1 171.89 157.23
  L 172.18 158.98
  Z"
/>
<rect fill="#b84751" x="-11.07" y="-1.10" transform="translate(204.49,163.12) rotate(0.1)" width="22.14" height="2.20" rx="1.07"/>
<path fill="#b84751" d="
  M 188.97 163.92
  A 0.28 0.28 0.0 0 1 188.67 164.17
  L 187.39 164.07
  A 2.86 0.78 4.6 0 1 184.61 163.06
  L 184.63 162.80
  A 2.86 0.78 4.6 0 1 187.54 162.26
  L 188.82 162.36
  A 0.28 0.28 0.0 0 1 189.07 162.66
  L 188.97 163.92
  Z"
/>
<rect fill="#b84751" x="-15.50" y="-0.47" transform="translate(339.98,165.36) rotate(0.1)" width="31.00" height="0.94" rx="0.27"/>
<path fill="#601930" d="
  M 366.03 167.89
  Q 369.48 172.36 369.61 178.75
  Q 369.95 194.86 369.87 211.00
  Q 369.54 273.63 370.05 336.39
  Q 368.98 337.06 366.44 336.93
  A 1.14 1.14 0.0 0 1 365.35 335.78
  Q 365.75 277.25 365.59 219.00
  Q 365.59 218.83 365.53 218.66
  Q 365.46 218.46 365.46 218.32
  Q 365.32 192.98 366.03 167.89
  Z"
/>
<path fill="#fff6e3" d="
  M 169.55 173.00
  Q 164.05 173.32 158.76 173.50
  Q 157.04 173.55 156.57 174.31
  C 155.47 176.09 154.12 178.46 151.88 178.08
  Q 153.13 172.33 157.66 168.85
  Q 158.14 168.48 158.75 168.48
  L 172.68 168.46
  Q 173.20 168.45 172.87 168.86
  L 169.55 173.00
  Z"
/>
<path fill="#fff6e3" d="
  M 330.80 176.78
  Q 330.95 177.42 330.50 177.40
  Q 328.47 177.34 326.57 176.23
  Q 322.46 173.85 319.50 173.65
  Q 312.70 173.19 310.75 173.18
  Q 249.38 173.14 188.00 173.14
  Q 179.07 173.14 176.05 173.26
  Q 177.62 170.17 181.50 170.18
  Q 246.12 170.32 310.75 170.28
  C 318.49 170.27 324.88 171.46 330.80 176.78
  Z"
/>
<path fill="#fff6e3" d="
  M 360.90 173.78
  L 353.78 179.35
  C 351.32 176.72 347.94 173.87 344.21 173.52
  A 0.68 0.67 -86.8 0 0 343.48 174.18
  Q 343.46 174.92 344.10 175.23
  C 348.17 177.22 351.17 178.98 353.25 183.49
  Q 348.61 184.27 343.65 183.47
  C 341.99 178.53 337.51 174.57 333.85 171.20
  Q 333.47 170.84 333.99 170.84
  Q 343.53 170.76 354.99 170.99
  Q 360.71 171.10 360.90 173.78
  Z"
/>
<path fill="#e3563b" d="
  M 147.28 173.56
  Q 147.19 174.49 146.71 175.32
  Q 143.12 177.52 143.07 180.87
  Q 142.79 200.86 142.81 208.00
  Q 142.92 251.89 142.89 295.66
  Q 140.15 299.85 140.18 305.50
  Q 140.27 319.77 140.20 336.17
  Q 140.20 337.01 139.36 336.99
  L 134.26 336.84
  Q 134.63 332.02 134.65 327.00
  Q 134.87 254.88 134.73 181.25
  C 134.72 177.44 136.70 171.02 141.70 172.43
  Q 144.45 173.20 147.28 173.56
  Z"
/>
<path fill="#e3563b" d="
  M 169.55 173.00
  L 168.41 176.73
  Q 166.27 178.07 162.51 178.25
  Q 159.38 178.39 158.88 181.29
  Q 158.36 184.22 158.10 187.17
  A 1.62 1.61 86.3 0 1 156.86 188.59
  Q 153.07 189.49 151.65 188.32
  L 151.88 178.08
  C 154.12 178.46 155.47 176.09 156.57 174.31
  Q 157.04 173.55 158.76 173.50
  Q 164.05 173.32 169.55 173.00
  Z"
/>
<path fill="#f2764a" d="
  M 326.57 176.23
  Q 323.27 176.85 320.03 177.39
  Q 316.79 177.93 313.44 177.90
  Q 301.84 177.80 290.25 177.73
  Q 288.97 177.72 287.75 177.72
  C 279.07 177.74 270.30 178.06 261.76 177.90
  Q 250.06 177.69 237.23 177.77
  C 225.34 177.85 213.53 177.44 201.51 177.67
  Q 190.93 177.88 174.88 177.54
  Q 174.37 177.53 174.38 177.02
  L 174.40 176.50
  Q 174.76 174.72 176.05 173.26
  Q 179.07 173.14 188.00 173.14
  Q 249.38 173.14 310.75 173.18
  Q 312.70 173.19 319.50 173.65
  Q 322.46 173.85 326.57 176.23
  Z"
/>
<path fill="#9a6f90" d="
  M 360.90 173.78
  L 360.86 335.93
  A 0.91 0.91 0.0 0 1 359.99 336.84
  L 358.56 336.90
  Q 357.74 336.94 357.74 336.12
  Q 357.78 262.12 357.73 187.75
  C 357.73 184.88 355.27 181.81 353.78 179.35
  L 360.90 173.78
  Z"
/>
<path fill="#992a33" d="
  M 146.71 175.32
  Q 146.87 232.67 146.55 289.96
  Q 146.53 291.99 145.55 293.24
  Q 144.44 294.65 142.89 295.66
  Q 142.92 251.89 142.81 208.00
  Q 142.79 200.86 143.07 180.87
  Q 143.12 177.52 146.71 175.32
  Z"
/>
<path fill="#e3563b" d="
  M 326.57 176.23
  Q 328.47 177.34 330.50 177.40
  Q 330.95 177.42 330.80 176.78
  L 331.33 177.03
  Q 331.31 177.75 330.72 177.86
  Q 330.12 177.98 330.51 178.45
  Q 333.63 182.26 335.05 185.93
  Q 336.66 190.10 336.63 194.75
  C 336.53 209.57 337.08 224.29 337.01 239.20
  Q 336.89 267.20 336.68 295.23
  A 0.85 0.85 0.0 0 1 335.80 296.08
  L 332.84 295.96
  Q 329.03 290.07 320.75 290.07
  Q 237.17 290.07 153.51 290.14
  Q 154.78 288.70 154.76 287.00
  Q 154.28 242.61 154.84 197.94
  C 159.30 197.89 163.73 197.97 168.04 197.74
  Q 174.11 197.43 173.76 189.78
  A 0.52 0.52 0.0 0 1 174.27 189.24
  C 176.53 189.18 179.76 189.97 179.34 186.21
  C 179.06 183.76 176.50 183.88 174.73 184.24
  A 0.75 0.75 0.0 0 1 173.83 183.56
  Q 173.56 179.67 174.40 176.50
  L 174.38 177.02
  Q 174.37 177.53 174.88 177.54
  Q 190.93 177.88 201.51 177.67
  C 213.53 177.44 225.34 177.85 237.23 177.77
  Q 250.06 177.69 261.76 177.90
  C 270.30 178.06 279.07 177.74 287.75 177.72
  Q 288.97 177.72 290.25 177.73
  Q 301.84 177.80 313.44 177.90
  Q 316.79 177.93 320.03 177.39
  Q 323.27 176.85 326.57 176.23
  Z
  M 322.28 190.24
  Q 323.06 191.92 323.01 193.85
  Q 322.90 198.88 323.13 203.34
  Q 323.26 205.77 325.65 206.19
  Q 325.96 206.25 326.25 206.14
  Q 328.02 205.50 328.09 204.31
  Q 328.43 198.45 328.16 192.78
  Q 327.89 187.05 323.69 184.90
  Q 321.38 183.72 315.90 183.87
  Q 310.18 184.03 304.85 184.07
  Q 302.73 184.09 302.74 186.21
  L 302.75 186.60
  Q 302.77 189.18 305.35 189.21
  L 320.89 189.34
  A 1.55 1.55 0.0 0 1 322.28 190.24
  Z
  M 210.76 188.42
  Q 213.42 187.40 212.61 185.88
  A 1.28 1.27 -49.6 0 0 210.28 186.07
  Q 209.98 186.97 210.09 188.01
  Q 210.16 188.65 210.76 188.42
  Z
  M 318.05 199.16
  L 317.96 205.75
  A 0.64 0.64 0.0 0 0 318.63 206.40
  L 319.03 206.38
  A 0.90 0.90 0.0 0 0 319.88 205.56
  L 320.46 199.03
  Q 320.32 192.49 312.28 191.91
  A 1.66 1.66 0.0 0 0 310.60 193.00
  C 310.07 194.43 311.10 195.39 312.26 195.96
  Q 315.30 197.44 318.05 199.16
  Z
  M 186.2910 219.2467
  A 1.12 0.91 76.0 0 0 186.9030 217.9399
  A 1.12 0.91 76.0 0 0 185.7490 217.0733
  A 1.12 0.91 76.0 0 0 185.1370 218.3801
  A 1.12 0.91 76.0 0 0 186.2910 219.2467
  Z
  M 186.9113 222.8490
  A 0.80 0.80 0.0 0 0 186.1197 222.0407
  L 186.0197 222.0396
  A 0.80 0.80 0.0 0 0 185.2114 222.8312
  L 185.1687 226.9110
  A 0.80 0.80 0.0 0 0 185.9603 227.7193
  L 186.0603 227.7204
  A 0.80 0.80 0.0 0 0 186.8686 226.9288
  L 186.9113 222.8490
  Z
  M 317.2328 236.1020
  A 1.67 0.99 114.3 0 0 318.8223 234.9874
  A 1.67 0.99 114.3 0 0 318.6072 233.0580
  A 1.67 0.99 114.3 0 0 317.0177 234.1726
  A 1.67 0.99 114.3 0 0 317.2328 236.1020
  Z
  M 193.8413 279.8300
  A 10.11 9.65 95.1 0 0 204.3518 270.6178
  A 10.11 9.65 95.1 0 0 195.6387 259.6900
  A 10.11 9.65 95.1 0 0 185.1282 268.9022
  A 10.11 9.65 95.1 0 0 193.8413 279.8300
  Z
  M 279.5662 279.6441
  A 10.14 9.68 102.9 0 0 291.2657 271.9211
  A 10.14 9.68 102.9 0 0 284.0938 259.8759
  A 10.14 9.68 102.9 0 0 272.3943 267.5989
  A 10.14 9.68 102.9 0 0 279.5662 279.6441
  Z
  M 241.08 271.94
  L 241.85 272.87
  Q 242.20 273.29 242.73 273.41
  C 248.69 274.71 249.87 265.16 244.94 263.85
  Q 243.75 263.53 242.71 264.14
  Q 238.52 266.58 233.66 264.02
  Q 231.73 263.00 230.26 264.42
  Q 227.45 267.14 228.97 271.21
  C 229.86 273.59 232.97 274.35 234.81 272.62
  Q 236.81 270.74 240.50 271.58
  A 1.06 1.05 76.4 0 1 241.08 271.94
  Z"
/>
<path fill="#992a33" d="
  M 168.41 176.73
  L 168.25 184.55
  Q 166.15 181.65 166.16 188.00
  Q 166.16 190.09 164.40 191.64
  Q 164.02 191.98 164.07 192.49
  Q 164.13 193.06 164.72 193.21
  L 152.31 192.94
  Q 151.80 192.93 151.68 192.44
  Q 151.16 190.28 151.65 188.32
  Q 153.07 189.49 156.86 188.59
  A 1.62 1.61 86.3 0 0 158.10 187.17
  Q 158.36 184.22 158.88 181.29
  Q 159.38 178.39 162.51 178.25
  Q 166.27 178.07 168.41 176.73
  Z"
/>
<path fill="#992a33" d="
  M 331.33 177.03
  Q 333.48 178.17 334.86 179.95
  C 339.52 185.99 340.30 191.74 340.25 200.01
  Q 339.91 253.91 340.42 299.75
  C 340.43 301.07 340.12 302.35 340.13 303.42
  Q 340.32 319.85 340.14 336.72
  Q 337.63 336.36 338.01 332.11
  Q 338.39 327.99 338.39 327.35
  Q 338.39 309.64 337.93 304.88
  Q 337.74 302.80 334.83 300.71
  L 332.84 295.96
  L 335.80 296.08
  A 0.85 0.85 0.0 0 0 336.68 295.23
  Q 336.89 267.20 337.01 239.20
  C 337.08 224.29 336.53 209.57 336.63 194.75
  Q 336.66 190.10 335.05 185.93
  Q 333.63 182.26 330.51 178.45
  Q 330.12 177.98 330.72 177.86
  Q 331.31 177.75 331.33 177.03
  Z"
/>
<path fill="#9a6f90" d="
  M 353.25 183.49
  Q 353.82 184.67 353.83 186.88
  Q 354.19 261.23 353.91 336.21
  Q 351.54 336.86 350.36 335.62
  Q 349.46 334.66 349.53 333.18
  Q 349.85 326.16 349.62 320.30
  Q 349.38 314.33 349.38 308.12
  Q 349.27 222.85 348.84 191.74
  Q 348.80 189.04 345.13 188.08
  L 343.65 183.47
  Q 348.61 184.27 353.25 183.49
  Z"
/>
<path fill="#e3563b" d="
  M 168.25 184.55
  L 168.48 191.73
  A 1.22 1.21 -3.3 0 1 167.37 192.97
  L 164.72 193.21
  Q 164.13 193.06 164.07 192.49
  Q 164.02 191.98 164.40 191.64
  Q 166.16 190.09 166.16 188.00
  Q 166.15 181.65 168.25 184.55
  Z"
/>
<path fill="#2f0921" d="
  M 322.28 190.24
  A 1.55 1.55 0.0 0 0 320.89 189.34
  L 305.35 189.21
  Q 302.77 189.18 302.75 186.60
  L 302.74 186.21
  Q 302.73 184.09 304.85 184.07
  Q 310.18 184.03 315.90 183.87
  Q 321.38 183.72 323.69 184.90
  Q 327.89 187.05 328.16 192.78
  Q 328.43 198.45 328.09 204.31
  Q 328.02 205.50 326.25 206.14
  Q 325.96 206.25 325.65 206.19
  Q 323.26 205.77 323.13 203.34
  Q 322.90 198.88 323.01 193.85
  Q 323.06 191.92 322.28 190.24
  Z"
/>
<path fill="#992a33" d="
  M 210.76 188.42
  Q 210.16 188.65 210.09 188.01
  Q 209.98 186.97 210.28 186.07
  A 1.28 1.27 -49.6 0 1 212.61 185.88
  Q 213.42 187.40 210.76 188.42
  Z"
/>
<path fill="#714c6d" d="
  M 345.13 188.08
  Q 348.80 189.04 348.84 191.74
  Q 349.27 222.85 349.38 308.12
  Q 349.38 314.33 349.62 320.30
  Q 349.85 326.16 349.53 333.18
  Q 349.46 334.66 350.36 335.62
  Q 351.54 336.86 353.91 336.21
  Q 350.20 337.20 345.70 336.74
  A 0.43 0.42 -86.4 0 1 345.32 336.30
  Q 345.77 323.03 345.67 311.77
  Q 345.67 311.52 345.80 311.27
  Q 345.93 311.02 345.93 310.75
  Q 345.56 256.24 345.66 200.75
  Q 345.67 196.30 345.13 188.08
  Z"
/>
<path fill="#2f0921" d="
  M 320.46 199.03
  L 318.05 199.16
  Q 315.30 197.44 312.26 195.96
  C 311.10 195.39 310.07 194.43 310.60 193.00
  A 1.66 1.66 0.0 0 1 312.28 191.91
  Q 320.32 192.49 320.46 199.03
  Z"
/>
<path fill="#fff6e3" d="
  M 154.84 197.94
  Q 154.28 242.61 154.76 287.00
  Q 154.78 288.70 153.51 290.14
  L 151.86 290.30
  Q 151.28 290.36 151.28 289.78
  L 151.37 200.07
  A 2.04 2.02 76.2 0 1 152.45 198.27
  Q 153.41 197.77 154.84 197.94
  Z"
/>
<path fill="#7a1f35" d="
  M 318.05 199.16
  L 320.46 199.03
  L 319.88 205.56
  A 0.90 0.90 0.0 0 1 319.03 206.38
  L 318.63 206.40
  A 0.64 0.64 0.0 0 1 317.96 205.75
  L 318.05 199.16
  Z"
/>
<ellipse fill="#331922" cx="0.00" cy="0.00" transform="translate(186.02,218.16) rotate(76.0)" rx="1.12" ry="0.91"/>
<rect fill="#7a1f35" x="-0.85" y="-2.84" transform="translate(186.04,224.88) rotate(0.6)" width="1.70" height="5.68" rx="0.80"/>
<ellipse fill="#992a33" cx="0.00" cy="0.00" transform="translate(317.92,234.58) rotate(114.3)" rx="1.67" ry="0.99"/>
<ellipse fill="#2f0921" cx="0.00" cy="0.00" transform="translate(194.74,269.76) rotate(95.1)" rx="10.11" ry="9.65"/>
<ellipse fill="#2f0921" cx="0.00" cy="0.00" transform="translate(281.83,269.76) rotate(102.9)" rx="10.14" ry="9.68"/>
<path fill="#2f0921" d="
  M 240.50 271.58
  Q 236.81 270.74 234.81 272.62
  C 232.97 274.35 229.86 273.59 228.97 271.21
  Q 227.45 267.14 230.26 264.42
  Q 231.73 263.00 233.66 264.02
  Q 238.52 266.58 242.71 264.14
  Q 243.75 263.53 244.94 263.85
  C 249.87 265.16 248.69 274.71 242.73 273.41
  Q 242.20 273.29 241.85 272.87
  L 241.08 271.94
  A 1.06 1.05 76.4 0 0 240.50 271.58
  Z"
/>
<path fill="#fff6e3" d="
  M 324.35 296.61
  Q 324.29 298.48 322.87 299.91
  Q 241.81 299.97 159.97 299.91
  Q 154.55 299.91 152.66 300.81
  Q 148.71 302.69 148.82 308.25
  Q 148.97 315.23 148.98 338.50
  Q 149.30 339.32 148.88 339.75
  Q 147.42 338.98 146.41 337.69
  Q 146.02 337.19 146.03 336.56
  Q 146.23 321.69 146.13 306.00
  Q 146.10 301.94 147.71 299.62
  Q 150.35 295.83 155.12 295.83
  Q 235.68 295.81 316.25 295.84
  Q 321.51 295.84 324.35 296.61
  Z"
/>
<path fill="#e3563b" d="
  M 324.35 296.61
  Q 328.06 298.26 328.16 302.13
  Q 328.59 319.78 328.27 337.26
  A 1.94 1.86 66.8 0 1 327.83 338.43
  L 322.67 344.61
  L 322.87 299.91
  Q 324.29 298.48 324.35 296.61
  Z"
/>
<path fill="#feb74d" d="
  M 322.87 299.91
  L 322.67 344.61
  Q 321.25 352.99 322.70 361.44
  Q 322.43 367.75 322.43 374.01
  C 322.43 378.33 321.58 380.22 317.00 380.22
  Q 235.50 380.26 154.00 380.27
  Q 152.28 380.27 146.29 378.96
  L 146.18 377.20
  Q 146.09 375.04 147.48 374.21
  Q 154.14 370.20 155.65 364.99
  C 157.69 357.95 158.04 346.52 151.93 340.97
  Q 151.28 340.38 150.98 339.57
  Q 150.83 339.15 150.41 339.00
  L 148.98 338.50
  Q 148.97 315.23 148.82 308.25
  Q 148.71 302.69 152.66 300.81
  Q 154.55 299.91 159.97 299.91
  Q 241.81 299.97 322.87 299.91
  Z
  M 291.52 327.43
  Q 292.51 328.92 294.05 330.12
  Q 297.59 331.87 301.26 327.78
  Q 301.30 327.74 302.76 325.77
  Q 304.67 323.22 306.90 321.68
  Q 309.23 320.07 310.94 317.84
  Q 311.27 317.41 311.80 317.34
  Q 312.02 317.32 312.16 317.16
  Q 314.47 314.54 316.86 311.59
  Q 318.08 310.10 317.28 308.05
  Q 316.69 306.62 315.57 305.76
  Q 315.33 305.04 314.60 304.82
  Q 310.92 303.65 308.07 306.58
  Q 300.38 314.51 292.41 322.15
  Q 289.81 324.65 291.52 327.43
  Z
  M 225.80 321.20
  Q 225.79 320.04 226.56 320.91
  Q 230.47 325.36 234.78 331.51
  Q 235.92 333.14 237.68 333.50
  A 1.83 1.83 0.0 0 0 239.87 331.72
  L 239.95 312.05
  A 1.64 1.64 0.0 0 0 239.24 310.70
  Q 237.84 309.75 236.33 310.87
  A 2.03 2.02 -18.6 0 0 235.52 312.49
  L 235.48 321.81
  Q 235.47 324.75 233.73 322.38
  Q 230.06 317.39 226.52 312.36
  C 224.93 310.10 221.18 309.38 221.09 313.10
  Q 220.86 322.18 221.04 331.35
  A 2.05 2.04 -75.4 0 0 222.05 333.08
  Q 223.11 333.70 224.07 333.46
  Q 225.82 333.02 225.81 331.22
  L 225.80 321.20
  Z
  M 253.7804 333.9374
  A 11.92 10.37 91.2 0 0 264.3977 322.2372
  A 11.92 10.37 91.2 0 0 254.2796 310.1026
  A 11.92 10.37 91.2 0 0 243.6623 321.8028
  A 11.92 10.37 91.2 0 0 253.7804 333.9374
  Z
  M 215.83 362.00
  Q 215.32 357.59 215.69 351.57
  C 216.04 345.71 223.25 344.37 225.15 349.86
  Q 225.48 350.84 226.51 350.82
  L 229.70 350.78
  Q 230.79 350.76 230.53 349.71
  Q 228.77 342.51 221.42 342.06
  C 212.93 341.54 210.22 347.01 210.31 354.39
  C 210.37 360.01 209.61 364.79 214.54 368.79
  Q 217.34 371.07 220.83 370.74
  Q 228.12 370.05 230.60 362.69
  A 0.72 0.72 0.0 0 0 229.94 361.74
  L 226.92 361.64
  Q 225.80 361.61 225.31 362.61
  Q 223.74 365.76 220.07 365.66
  C 218.10 365.60 216.06 363.97 215.83 362.00
  Z
  M 310.27 364.49
  C 306.47 366.87 302.29 365.77 298.52 363.90
  Q 297.72 363.50 297.07 364.12
  L 295.33 365.79
  Q 294.41 366.68 295.44 367.43
  Q 301.66 371.97 309.41 370.21
  C 313.29 369.33 316.02 366.59 316.12 362.48
  C 316.29 355.48 310.46 354.50 304.99 353.54
  Q 303.00 353.19 301.97 351.96
  C 300.75 350.50 301.38 347.89 302.97 346.96
  C 305.78 345.32 309.91 346.60 312.33 348.38
  A 0.72 0.72 0.0 0 0 313.34 348.23
  L 315.47 345.28
  Q 315.93 344.65 315.23 344.29
  C 308.12 340.62 294.82 340.14 296.35 351.96
  C 297.09 357.77 303.07 358.15 307.43 359.20
  C 309.91 359.79 311.72 360.87 310.88 363.69
  Q 310.73 364.21 310.27 364.49
  Z
  M 166.00 358.99
  L 169.42 359.01
  Q 170.16 359.01 170.50 359.66
  L 175.71 369.37
  Q 176.22 370.32 177.31 370.32
  L 180.58 370.30
  A 0.65 0.64 -13.9 0 0 181.15 369.36
  L 175.89 359.14
  Q 175.62 358.62 176.09 358.27
  Q 180.43 355.01 180.15 349.64
  C 179.85 343.89 176.04 342.03 170.72 342.16
  Q 165.73 342.27 160.98 342.20
  Q 160.20 342.19 160.20 342.97
  L 160.20 369.74
  Q 160.20 370.29 160.74 370.29
  L 164.72 370.29
  Q 165.22 370.29 165.22 369.78
  L 165.22 359.75
  Q 165.22 358.98 166.00 358.99
  Z
  M 192.28 365.50
  A 0.56 0.56 0.0 0 1 191.72 364.94
  L 191.75 359.36
  A 0.56 0.56 0.0 0 1 192.31 358.80
  L 202.79 358.84
  A 0.56 0.56 0.0 0 0 203.35 358.27
  L 203.26 354.47
  A 0.56 0.56 0.0 0 0 202.70 353.92
  L 192.29 353.97
  A 0.56 0.56 0.0 0 1 191.73 353.41
  L 191.74 347.11
  A 0.56 0.56 0.0 0 1 192.30 346.55
  L 204.91 346.58
  A 0.56 0.56 0.0 0 0 205.47 346.03
  L 205.51 342.77
  A 0.56 0.56 0.0 0 0 204.95 342.20
  L 187.26 342.21
  A 0.56 0.56 0.0 0 0 186.70 342.77
  L 186.70 369.76
  A 0.56 0.56 0.0 0 0 187.26 370.32
  L 204.95 370.30
  A 0.56 0.56 0.0 0 0 205.51 369.74
  L 205.50 366.06
  A 0.56 0.56 0.0 0 0 204.94 365.50
  L 192.28 365.50
  Z
  M 240.30 342.91
  A 0.68 0.68 0.0 0 0 239.62 342.23
  L 236.46 342.23
  A 0.68 0.68 0.0 0 0 235.78 342.91
  L 235.78 369.67
  A 0.68 0.68 0.0 0 0 236.46 370.35
  L 239.62 370.35
  A 0.68 0.68 0.0 0 0 240.30 369.67
  L 240.30 342.91
  Z
  M 253.01 360.01
  C 255.68 359.94 258.82 360.36 261.33 359.56
  Q 267.71 357.53 267.30 350.09
  Q 266.89 342.81 259.61 342.35
  Q 254.21 342.02 247.57 342.31
  A 0.30 0.29 -1.0 0 0 247.28 342.60
  L 247.27 369.54
  Q 247.27 370.31 248.04 370.31
  L 251.73 370.31
  Q 252.51 370.31 252.51 369.52
  L 252.49 360.54
  Q 252.49 360.02 253.01 360.01
  Z
  M 277.94 353.97
  A 0.62 0.62 0.0 0 1 277.32 353.35
  L 277.31 347.16
  A 0.62 0.62 0.0 0 1 277.93 346.54
  L 290.41 346.58
  A 0.62 0.62 0.0 0 0 291.03 345.97
  L 291.06 342.83
  A 0.62 0.62 0.0 0 0 290.44 342.20
  L 272.89 342.21
  A 0.62 0.62 0.0 0 0 272.27 342.83
  L 272.27 369.67
  A 0.62 0.62 0.0 0 0 272.89 370.29
  L 290.47 370.32
  A 0.62 0.62 0.0 0 0 291.09 369.69
  L 291.04 366.11
  A 0.62 0.62 0.0 0 0 290.42 365.50
  L 277.91 365.50
  A 0.62 0.62 0.0 0 1 277.29 364.88
  L 277.31 359.42
  A 0.62 0.62 0.0 0 1 277.93 358.80
  L 288.41 358.78
  A 0.62 0.62 0.0 0 0 289.03 358.15
  L 288.97 354.52
  A 0.62 0.62 0.0 0 0 288.35 353.91
  L 277.94 353.97
  Z"
/>
<path fill="#601930" d="
  M 334.83 300.71
  Q 337.74 302.80 337.93 304.88
  Q 338.39 309.64 338.39 327.35
  Q 338.39 327.99 338.01 332.11
  Q 337.63 336.36 340.14 336.72
  L 336.00 336.97
  A 0.94 0.94 0.0 0 1 334.99 336.03
  L 334.83 300.71
  Z"
/>
<path fill="#e3563b" d="
  M 315.57 305.76
  Q 315.47 305.84 315.33 305.86
  Q 315.05 305.92 315.09 306.20
  C 315.31 307.90 315.17 309.18 313.79 310.45
  Q 305.58 318.04 297.14 326.65
  Q 295.50 328.32 291.52 327.43
  Q 289.81 324.65 292.41 322.15
  Q 300.38 314.51 308.07 306.58
  Q 310.92 303.65 314.60 304.82
  Q 315.33 305.04 315.57 305.76
  Z"
/>
<path fill="#992a33" d="
  M 315.57 305.76
  Q 316.69 306.62 317.28 308.05
  Q 317.35 309.87 315.89 311.14
  Q 306.68 319.17 298.25 328.01
  Q 296.75 329.59 294.05 330.12
  Q 292.51 328.92 291.52 327.43
  Q 295.50 328.32 297.14 326.65
  Q 305.58 318.04 313.79 310.45
  C 315.17 309.18 315.31 307.90 315.09 306.20
  Q 315.05 305.92 315.33 305.86
  Q 315.47 305.84 315.57 305.76
  Z"
/>
<path fill="#e3563b" d="
  M 317.28 308.05
  Q 318.08 310.10 316.86 311.59
  Q 314.47 314.54 312.16 317.16
  Q 312.02 317.32 311.80 317.34
  Q 311.27 317.41 310.94 317.84
  Q 309.23 320.07 306.90 321.68
  Q 304.67 323.22 302.76 325.77
  Q 301.30 327.74 301.26 327.78
  Q 297.59 331.87 294.05 330.12
  Q 296.75 329.59 298.25 328.01
  Q 306.68 319.17 315.89 311.14
  Q 317.35 309.87 317.28 308.05
  Z"
/>
<path fill="#2f0921" d="
  M 225.80 321.20
  L 225.81 331.22
  Q 225.82 333.02 224.07 333.46
  Q 223.11 333.70 222.05 333.08
  A 2.05 2.04 -75.4 0 1 221.04 331.35
  Q 220.86 322.18 221.09 313.10
  C 221.18 309.38 224.93 310.10 226.52 312.36
  Q 230.06 317.39 233.73 322.38
  Q 235.47 324.75 235.48 321.81
  L 235.52 312.49
  A 2.03 2.02 -18.6 0 1 236.33 310.87
  Q 237.84 309.75 239.24 310.70
  A 1.64 1.64 0.0 0 1 239.95 312.05
  L 239.87 331.72
  A 1.83 1.83 0.0 0 1 237.68 333.50
  Q 235.92 333.14 234.78 331.51
  Q 230.47 325.36 226.56 320.91
  Q 225.79 320.04 225.80 321.20
  Z"
/>
<path fill="#2f0921" d="
  M 253.7804 333.9374
  A 11.92 10.37 91.2 0 1 243.6623 321.8028
  A 11.92 10.37 91.2 0 1 254.2796 310.1026
  A 11.92 10.37 91.2 0 1 264.3977 322.2372
  A 11.92 10.37 91.2 0 1 253.7804 333.9374
  Z
  M 254.0781 328.8996
  A 6.87 5.85 90.6 0 0 259.9997 322.0913
  A 6.87 5.85 90.6 0 0 254.2219 315.1604
  A 6.87 5.85 90.6 0 0 248.3003 321.9687
  A 6.87 5.85 90.6 0 0 254.0781 328.8996
  Z"
/>
<ellipse fill="#feb74d" cx="0.00" cy="0.00" transform="translate(254.15,322.03) rotate(90.6)" rx="6.87" ry="5.85"/>
<path fill="#e3563b" d="
  M 377.91 354.98
  Q 376.91 356.01 375.82 357.01
  C 373.27 359.36 369.26 359.83 365.75 359.89
  Q 351.46 360.13 339.49 359.62
  C 335.99 359.46 333.16 357.16 330.07 355.81
  C 329.94 350.95 331.74 345.94 337.38 345.87
  Q 351.97 345.67 366.59 345.78
  C 369.83 345.80 373.64 345.04 376.13 343.14
  Q 379.65 340.45 378.78 336.46
  L 378.71 329.33
  Q 378.71 328.60 379.19 329.15
  C 382.40 332.82 387.17 339.64 385.18 344.05
  Q 383.58 347.59 382.17 351.07
  C 381.29 353.26 379.00 352.65 377.91 354.98
  Z"
/>
<path fill="#fff6e3" d="
  M 378.78 336.46
  Q 379.65 340.45 376.13 343.14
  C 373.64 345.04 369.83 345.80 366.59 345.78
  Q 351.97 345.67 337.38 345.87
  C 331.74 345.94 329.94 350.95 330.07 355.81
  Q 329.69 357.11 328.69 357.03
  Q 327.14 353.31 328.72 348.73
  C 330.77 342.81 335.16 342.84 340.75 342.88
  Q 354.52 342.99 367.23 342.91
  Q 375.51 342.85 378.78 336.46
  Z"
/>
<path fill="#f48a43" d="
  M 148.98 338.50
  L 150.41 339.00
  Q 150.83 339.15 150.98 339.57
  Q 151.28 340.38 151.93 340.97
  C 158.04 346.52 157.69 357.95 155.65 364.99
  Q 154.14 370.20 147.48 374.21
  Q 146.09 375.04 146.18 377.20
  L 146.13 368.99
  Q 146.13 368.49 146.49 368.14
  C 148.64 366.08 151.12 364.08 152.17 361.18
  C 154.73 354.05 154.39 345.52 148.88 339.75
  Q 149.30 339.32 148.98 338.50
  Z"
/>
<path fill="#331922" d="
  M 215.83 362.00
  C 216.06 363.97 218.10 365.60 220.07 365.66
  Q 223.74 365.76 225.31 362.61
  Q 225.80 361.61 226.92 361.64
  L 229.94 361.74
  A 0.72 0.72 0.0 0 1 230.60 362.69
  Q 228.12 370.05 220.83 370.74
  Q 217.34 371.07 214.54 368.79
  C 209.61 364.79 210.37 360.01 210.31 354.39
  C 210.22 347.01 212.93 341.54 221.42 342.06
  Q 228.77 342.51 230.53 349.71
  Q 230.79 350.76 229.70 350.78
  L 226.51 350.82
  Q 225.48 350.84 225.15 349.86
  C 223.25 344.37 216.04 345.71 215.69 351.57
  Q 215.32 357.59 215.83 362.00
  Z"
/>
<path fill="#331922" d="
  M 310.88 363.69
  C 311.72 360.87 309.91 359.79 307.43 359.20
  C 303.07 358.15 297.09 357.77 296.35 351.96
  C 294.82 340.14 308.12 340.62 315.23 344.29
  Q 315.93 344.65 315.47 345.28
  L 313.34 348.23
  A 0.72 0.72 0.0 0 1 312.33 348.38
  C 309.91 346.60 305.78 345.32 302.97 346.96
  C 301.38 347.89 300.75 350.50 301.97 351.96
  Q 303.00 353.19 304.99 353.54
  C 310.46 354.50 316.29 355.48 316.12 362.48
  C 316.02 366.59 313.29 369.33 309.41 370.21
  Q 301.66 371.97 295.44 367.43
  Q 294.41 366.68 295.33 365.79
  L 297.07 364.12
  Q 297.72 363.50 298.52 363.90
  C 302.29 365.77 306.47 366.87 310.27 364.49
  Q 310.73 364.21 310.88 363.69
  Z"
/>
<path fill="#331922" d="
  M 165.22 359.75
  L 165.22 369.78
  Q 165.22 370.29 164.72 370.29
  L 160.74 370.29
  Q 160.20 370.29 160.20 369.74
  L 160.20 342.97
  Q 160.20 342.19 160.98 342.20
  Q 165.73 342.27 170.72 342.16
  C 176.04 342.03 179.85 343.89 180.15 349.64
  Q 180.43 355.01 176.09 358.27
  Q 175.62 358.62 175.89 359.14
  L 181.15 369.36
  A 0.65 0.64 -13.9 0 1 180.58 370.30
  L 177.31 370.32
  Q 176.22 370.32 175.71 369.37
  L 170.50 359.66
  Q 170.16 359.01 169.42 359.01
  L 166.00 358.99
  Q 165.22 358.98 165.22 359.75
  Z
  M 165.23 346.94
  L 165.21 353.78
  A 0.42 0.42 0.0 0 0 165.63 354.20
  L 171.92 354.21
  A 3.35 3.35 0.0 0 0 175.28 350.87
  L 175.28 349.89
  A 3.35 3.35 0.0 0 0 171.94 346.53
  L 165.65 346.52
  A 0.42 0.42 0.0 0 0 165.23 346.94
  Z"
/>
<path fill="#331922" d="
  M 192.28 365.50
  L 204.94 365.50
  A 0.56 0.56 0.0 0 1 205.50 366.06
  L 205.51 369.74
  A 0.56 0.56 0.0 0 1 204.95 370.30
  L 187.26 370.32
  A 0.56 0.56 0.0 0 1 186.70 369.76
  L 186.70 342.77
  A 0.56 0.56 0.0 0 1 187.26 342.21
  L 204.95 342.20
  A 0.56 0.56 0.0 0 1 205.51 342.77
  L 205.47 346.03
  A 0.56 0.56 0.0 0 1 204.91 346.58
  L 192.30 346.55
  A 0.56 0.56 0.0 0 0 191.74 347.11
  L 191.73 353.41
  A 0.56 0.56 0.0 0 0 192.29 353.97
  L 202.70 353.92
  A 0.56 0.56 0.0 0 1 203.26 354.47
  L 203.35 358.27
  A 0.56 0.56 0.0 0 1 202.79 358.84
  L 192.31 358.80
  A 0.56 0.56 0.0 0 0 191.75 359.36
  L 191.72 364.94
  A 0.56 0.56 0.0 0 0 192.28 365.50
  Z"
/>
<rect fill="#331922" x="235.78" y="342.23" width="4.52" height="28.12" rx="0.68"/>
<path fill="#331922" d="
  M 252.49 360.54
  L 252.51 369.52
  Q 252.51 370.31 251.73 370.31
  L 248.04 370.31
  Q 247.27 370.31 247.27 369.54
  L 247.28 342.60
  A 0.30 0.29 -1.0 0 1 247.57 342.31
  Q 254.21 342.02 259.61 342.35
  Q 266.89 342.81 267.30 350.09
  Q 267.71 357.53 261.33 359.56
  C 258.82 360.36 255.68 359.94 253.01 360.01
  Q 252.49 360.02 252.49 360.54
  Z
  M 252.51 347.20
  L 252.49 354.54
  A 0.69 0.69 0.0 0 0 253.18 355.23
  L 258.39 355.24
  A 4.02 3.80 -89.9 0 0 262.20 351.23
  L 262.20 350.55
  A 4.02 3.80 -89.9 0 0 258.41 346.52
  L 253.20 346.51
  A 0.69 0.69 0.0 0 0 252.51 347.20
  Z"
/>
<path fill="#331922" d="
  M 277.94 353.97
  L 288.35 353.91
  A 0.62 0.62 0.0 0 1 288.97 354.52
  L 289.03 358.15
  A 0.62 0.62 0.0 0 1 288.41 358.78
  L 277.93 358.80
  A 0.62 0.62 0.0 0 0 277.31 359.42
  L 277.29 364.88
  A 0.62 0.62 0.0 0 0 277.91 365.50
  L 290.42 365.50
  A 0.62 0.62 0.0 0 1 291.04 366.11
  L 291.09 369.69
  A 0.62 0.62 0.0 0 1 290.47 370.32
  L 272.89 370.29
  A 0.62 0.62 0.0 0 1 272.27 369.67
  L 272.27 342.83
  A 0.62 0.62 0.0 0 1 272.89 342.21
  L 290.44 342.20
  A 0.62 0.62 0.0 0 1 291.06 342.83
  L 291.03 345.97
  A 0.62 0.62 0.0 0 1 290.41 346.58
  L 277.93 346.54
  A 0.62 0.62 0.0 0 0 277.31 347.16
  L 277.32 353.35
  A 0.62 0.62 0.0 0 0 277.94 353.97
  Z"
/>
<path fill="#fff6e3" d="
  M 143.56 344.79
  Q 141.45 345.60 139.24 345.73
  Q 133.02 346.11 126.44 345.94
  L 127.90 343.07
  Q 134.30 342.52 140.12 343.17
  Q 142.06 343.38 143.56 344.79
  Z"
/>
<path fill="#e3563b" d="
  M 143.56 344.79
  Q 144.02 344.83 144.98 345.60
  Q 143.86 348.59 143.51 351.62
  Q 143.27 353.63 142.68 355.22
  C 140.63 360.81 132.51 360.65 128.09 358.96
  C 125.64 358.02 123.75 355.76 121.57 354.11
  Q 122.75 348.53 126.44 345.94
  Q 133.02 346.11 139.24 345.73
  Q 141.45 345.60 143.56 344.79
  Z"
/>
<path fill="#992a33" d="
  M 144.98 345.60
  Q 148.27 350.91 146.34 357.01
  C 144.42 363.09 139.21 364.63 133.15 364.63
  Q 124.88 364.62 120.90 356.15
  Q 120.52 355.35 120.71 354.81
  L 121.57 354.11
  C 123.75 355.76 125.64 358.02 128.09 358.96
  C 132.51 360.65 140.63 360.81 142.68 355.22
  Q 143.27 353.63 143.51 351.62
  Q 143.86 348.59 144.98 345.60
  Z"
/>
<path fill="#feb74d" d="
  M 165.23 346.94
  A 0.42 0.42 0.0 0 1 165.65 346.52
  L 171.94 346.53
  A 3.35 3.35 0.0 0 1 175.28 349.89
  L 175.28 350.87
  A 3.35 3.35 0.0 0 1 171.92 354.21
  L 165.63 354.20
  A 0.42 0.42 0.0 0 1 165.21 353.78
  L 165.23 346.94
  Z"
/>
<path fill="#feb74d" d="
  M 252.51 347.20
  A 0.69 0.69 0.0 0 1 253.20 346.51
  L 258.41 346.52
  A 4.02 3.80 -89.9 0 1 262.20 350.55
  L 262.20 351.23
  A 4.02 3.80 -89.9 0 1 258.39 355.24
  L 253.18 355.23
  A 0.69 0.69 0.0 0 1 252.49 354.54
  L 252.51 347.20
  Z"
/>
<path fill="#992a33" d="
  M 328.69 357.03
  Q 329.69 357.11 330.07 355.81
  C 333.16 357.16 335.99 359.46 339.49 359.62
  Q 351.46 360.13 365.75 359.89
  C 369.26 359.83 373.27 359.36 375.82 357.01
  Q 376.91 356.01 377.91 354.98
  C 378.44 358.85 382.94 358.41 384.85 356.09
  Q 386.90 353.60 387.47 350.44
  Q 387.48 350.37 387.54 350.38
  L 387.79 350.42
  Q 388.08 350.46 388.06 350.76
  Q 387.30 360.17 380.50 363.36
  Q 377.40 364.81 368.56 364.88
  Q 351.80 365.00 339.76 364.79
  Q 331.97 364.66 328.69 357.03
  Z"
/>
<path fill="#f48a43" d="
  M 322.70 361.44
  L 327.71 368.27
  A 3.43 3.42 -64.2 0 1 328.36 370.15
  C 328.54 376.10 330.18 385.15 321.11 385.16
  Q 236.71 385.26 155.48 385.20
  Q 153.32 385.19 151.33 384.55
  Q 146.93 383.11 146.29 378.96
  Q 152.28 380.27 154.00 380.27
  Q 235.50 380.26 317.00 380.22
  C 321.58 380.22 322.43 378.33 322.43 374.01
  Q 322.43 367.75 322.70 361.44
  Z"
/>
<path fill="#7a1f35" d="
  M 140.06 377.47
  Q 137.79 375.53 134.52 374.76
  L 134.28 372.13
  Q 136.72 371.43 139.05 371.89
  Q 139.55 371.99 139.71 372.47
  Q 140.54 374.84 140.06 377.47
  Z"
/>
<path fill="#7a1f35" d="
  M 339.07 372.51
  Q 338.43 373.37 338.48 374.50
  Q 338.66 378.19 338.58 381.89
  Q 338.49 386.04 337.49 388.47
  Q 336.11 391.84 333.40 393.99
  Q 330.93 395.60 328.34 396.14
  L 328.42 391.11
  Q 328.43 390.60 328.89 390.35
  C 336.17 386.46 335.19 379.95 335.70 373.02
  A 0.92 0.92 0.0 0 1 336.76 372.17
  L 339.07 372.51
  Z"
/>
<path fill="#992a33" d="
  M 174.16 408.22
  Q 213.14 408.26 252.00 408.30
  Q 301.05 408.35 326.00 407.98
  Q 329.61 407.92 333.28 405.69
  C 337.06 403.39 336.88 397.31 336.51 393.51
  Q 336.44 392.89 335.86 393.10
  L 333.40 393.99
  Q 336.11 391.84 337.49 388.47
  Q 338.49 386.04 338.58 381.89
  Q 338.66 378.19 338.48 374.50
  Q 338.43 373.37 339.07 372.51
  Q 339.21 372.28 339.62 372.47
  Q 340.09 372.68 340.08 373.19
  Q 340.05 382.88 340.18 393.00
  Q 340.26 398.97 339.00 402.80
  Q 337.79 406.48 335.56 408.42
  Q 334.35 409.47 333.06 410.44
  Q 331.41 411.68 329.62 411.93
  Q 327.02 412.29 324.59 412.93
  Q 322.21 413.56 319.07 413.55
  C 311.95 413.52 305.02 413.24 297.99 413.22
  Q 236.71 413.03 178.67 413.24
  C 176.51 413.25 175.66 412.82 174.93 410.84
  Q 174.20 408.84 174.16 408.22
  Z"
/>
<path fill="#9a6f90" d="
  M 345.28 399.88
  Q 346.32 388.13 345.50 373.45
  A 1.05 1.04 -1.8 0 1 346.54 372.35
  L 352.82 372.31
  A 1.02 1.02 0.0 0 1 353.85 373.32
  L 353.97 392.68
  Q 353.98 394.20 355.48 393.92
  Q 355.77 393.86 356.01 393.69
  Q 357.53 392.54 357.59 390.52
  Q 357.87 381.11 357.73 373.31
  Q 357.72 372.26 358.77 372.26
  L 359.80 372.27
  Q 360.67 372.27 360.69 373.14
  Q 360.80 380.88 360.76 388.11
  C 360.73 395.96 352.40 401.80 345.47 404.19
  Q 344.77 404.44 344.87 403.70
  Q 345.11 401.87 345.28 399.88
  Z"
/>
<path fill="#601930" d="
  M 366.96 372.73
  L 370.30 373.34
  Q 371.97 373.64 372.02 375.34
  Q 372.27 384.78 371.25 390.41
  C 370.16 396.47 364.44 406.36 357.13 407.00
  Q 354.55 407.23 356.77 405.88
  Q 360.20 403.81 362.65 399.63
  Q 364.50 396.47 365.06 392.21
  Q 365.45 389.20 365.55 383.54
  Q 365.63 378.62 365.33 374.19
  Q 365.21 372.42 366.96 372.73
  Z"
/>
<path fill="#e3563b" d="
  M 134.52 374.76
  Q 137.79 375.53 140.06 377.47
  Q 139.93 382.74 142.93 386.45
  Q 142.79 396.52 143.15 402.04
  Q 143.45 406.68 146.82 409.55
  Q 147.22 410.19 147.33 410.91
  Q 147.40 411.44 146.91 411.24
  Q 143.45 409.79 140.39 407.61
  Q 135.52 404.14 134.43 399.20
  L 134.52 374.76
  Z"
/>
<path fill="#992a33" d="
  M 142.93 386.45
  Q 145.01 387.82 146.22 389.56
  Q 146.51 389.97 146.52 390.47
  L 146.82 409.55
  Q 143.45 406.68 143.15 402.04
  Q 142.79 396.52 142.93 386.45
  Z"
/>
<path fill="#7a1f35" d="
  M 168.19 396.65
  Q 163.58 396.94 168.11 403.04
  L 168.24 408.17
  L 162.81 407.62
  Q 158.58 406.01 158.29 402.50
  Q 158.13 400.38 157.85 398.20
  Q 157.79 397.70 157.31 397.55
  L 151.62 395.73
  Q 150.96 393.94 151.51 392.23
  A 1.02 1.02 0.0 0 1 152.62 391.53
  Q 158.73 392.40 165.96 391.67
  Q 167.98 391.47 168.33 393.47
  Q 168.66 395.28 168.19 396.65
  Z"
/>
<path fill="#7a1f35" d="
  M 310.26 397.46
  Q 308.86 396.94 307.01 396.95
  Q 257.94 397.13 173.74 396.97
  Q 173.15 394.95 173.93 392.12
  A 0.40 0.39 -82.3 0 1 174.31 391.83
  L 314.20 391.76
  A 0.52 0.51 86.9 0 1 314.71 392.22
  L 314.75 392.60
  Q 314.76 392.68 314.68 392.70
  Q 312.53 393.25 311.07 394.29
  Q 310.64 394.59 310.57 395.12
  L 310.26 397.46
  Z"
/>
<path fill="#e3563b" d="
  M 328.34 396.14
  Q 330.93 395.60 333.40 393.99
  L 335.86 393.10
  Q 336.44 392.89 336.51 393.51
  C 336.88 397.31 337.06 403.39 333.28 405.69
  Q 329.61 407.92 326.00 407.98
  Q 301.05 408.35 252.00 408.30
  Q 213.14 408.26 174.16 408.22
  Q 173.64 406.57 173.93 404.76
  Q 174.05 404.03 174.77 404.13
  C 177.12 404.46 180.18 403.87 179.49 400.60
  A 2.22 2.20 -2.0 0 0 177.62 398.87
  Q 175.95 398.64 174.23 398.61
  Q 173.63 398.60 173.74 396.97
  Q 257.94 397.13 307.01 396.95
  Q 308.86 396.94 310.26 397.46
  Q 314.85 398.60 319.40 396.05
  C 320.74 395.30 321.15 394.12 322.03 392.99
  Q 322.94 391.84 322.90 393.31
  L 322.79 397.97
  A 0.75 0.73 81.0 0 1 322.30 398.66
  Q 320.83 399.18 319.39 399.15
  Q 313.56 399.05 304.94 399.11
  Q 302.60 399.13 302.62 401.47
  L 302.62 402.01
  Q 302.64 404.37 305.00 404.39
  Q 311.66 404.44 318.92 404.57
  C 324.40 404.66 328.63 402.22 328.34 396.14
  Z"
/>
<path fill="#e3563b" d="
  M 151.62 395.73
  L 157.31 397.55
  Q 157.79 397.70 157.85 398.20
  Q 158.13 400.38 158.29 402.50
  Q 158.58 406.01 162.81 407.62
  Q 157.70 409.13 152.06 407.77
  L 151.62 395.73
  Z"
/>
<path fill="#e3563b" d="
  M 168.19 396.65
  L 168.11 403.04
  Q 163.58 396.94 168.19 396.65
  Z"
/>
<path fill="#992a33" d="
  M 162.81 407.62
  L 168.24 408.17
  L 169.52 412.82
  A 0.40 0.39 -8.4 0 1 169.14 413.32
  L 156.08 413.42
  Q 155.54 413.42 155.11 413.09
  Q 152.65 411.18 152.06 407.77
  Q 157.70 409.13 162.81 407.62
  Z"
/>
<path fill="#601930" d="
  M 287.10 428.77
  Q 279.07 427.84 270.81 427.72
  Q 270.03 427.71 269.82 428.09
  Q 269.60 428.51 269.67 429.32
  Q 268.39 426.79 268.50 424.59
  Q 268.58 423.13 270.04 423.32
  Q 279.66 424.55 287.10 428.77
  Z"
/>
<path fill="#601930" d="
  M 230.39 428.50
  Q 224.58 427.84 219.00 427.58
  Q 217.20 427.49 215.50 426.97
  Q 214.68 426.71 213.77 427.39
  L 213.46 424.85
  A 1.42 1.41 -86.4 0 1 215.20 423.31
  C 220.49 424.59 225.71 425.56 230.39 428.50
  Z"
/>
<path fill="#7a1f35" d="
  M 230.39 428.50
  Q 233.59 429.30 232.39 431.50
  Q 231.41 433.31 228.65 434.18
  Q 217.69 437.65 213.77 427.39
  Q 214.68 426.71 215.50 426.97
  Q 217.20 427.49 219.00 427.58
  Q 224.58 427.84 230.39 428.50
  Z"
/>
<path fill="#7a1f35" d="
  M 287.10 428.77
  Q 289.02 430.43 287.90 431.65
  C 282.98 437.06 273.19 436.03 269.67 429.32
  Q 269.60 428.51 269.82 428.09
  Q 270.03 427.71 270.81 427.72
  Q 279.07 427.84 287.10 428.77
  Z"
/>
<path fill="#601930" d="
  M 400.98 431.18
  Q 399.60 431.78 399.12 431.67
  A 1.75 1.74 -88.4 0 0 397.03 433.65
  Q 397.90 439.11 397.89 443.95
  L 353.30 446.34
  L 351.72 445.88
  Q 350.97 445.66 351.47 445.06
  Q 351.86 444.58 352.31 444.33
  Q 352.78 444.07 352.95 443.56
  C 353.10 443.09 353.15 442.59 353.47 442.21
  Q 355.06 440.28 356.39 438.04
  Q 356.83 437.30 356.03 437.61
  Q 355.83 437.69 355.81 437.24
  Q 355.81 437.04 355.90 436.87
  L 359.46 430.09
  L 400.98 431.18
  Z"
/>
<path fill="#b84751" d="
  M 400.98 431.18
  Q 418.54 431.73 435.98 433.68
  Q 441.43 434.28 446.07 435.50
  Q 446.93 435.72 447.48 436.29
  A 1.21 1.21 0.0 0 1 446.98 438.28
  Q 442.45 439.74 437.32 440.41
  Q 417.47 443.04 397.89 443.95
  Q 397.90 439.11 397.03 433.65
  A 1.75 1.74 -88.4 0 1 399.12 431.67
  Q 399.60 431.78 400.98 431.18
  Z"
/>
</svg>
